<svg width="28" height="28" viewBox="0 0 28 28" fill="none" xmlns="http://www.w3.org/2000/svg">
<path d="M13.9997 2.33301C11.6922 2.33301 9.4366 3.01725 7.51803 4.2992C5.59945 5.58115 4.10411 7.40323 3.22109 9.53503C2.33806 11.6668 2.10702 14.0126 2.55718 16.2757C3.00735 18.5388 4.11849 20.6176 5.7501 22.2493C7.38171 23.8809 9.46051 24.992 11.7236 25.4422C13.9867 25.8923 16.3325 25.6613 18.4643 24.7783C20.5961 23.8952 22.4182 22.3999 23.7002 20.4813C24.9821 18.5628 25.6663 16.3071 25.6663 13.9997C25.6663 12.4676 25.3646 10.9505 24.7783 9.53503C24.192 8.11957 23.3326 6.83345 22.2493 5.7501C21.1659 4.66675 19.8798 3.80738 18.4643 3.22108C17.0489 2.63478 15.5318 2.33301 13.9997 2.33301ZM13.9997 19.833C13.7689 19.833 13.5434 19.7646 13.3515 19.6364C13.1597 19.5082 13.0101 19.326 12.9218 19.1128C12.8335 18.8996 12.8104 18.665 12.8554 18.4387C12.9004 18.2124 13.0116 18.0045 13.1747 17.8414C13.3379 17.6782 13.5458 17.5671 13.7721 17.5221C13.9984 17.4771 14.233 17.5002 14.4461 17.5885C14.6593 17.6768 14.8415 17.8263 14.9697 18.0182C15.0979 18.21 15.1663 18.4356 15.1663 18.6663C15.1663 18.9758 15.0434 19.2725 14.8246 19.4913C14.6058 19.7101 14.3091 19.833 13.9997 19.833ZM15.1663 15.1663C15.1663 15.4758 15.0434 15.7725 14.8246 15.9913C14.6058 16.2101 14.3091 16.333 13.9997 16.333C13.6903 16.333 13.3935 16.2101 13.1747 15.9913C12.9559 15.7725 12.833 15.4758 12.833 15.1663V9.33301C12.833 9.02359 12.9559 8.72684 13.1747 8.50805C13.3935 8.28926 13.6903 8.16634 13.9997 8.16634C14.3091 8.16634 14.6058 8.28926 14.8246 8.50805C15.0434 8.72684 15.1663 9.02359 15.1663 9.33301V15.1663Z" fill="white"/>
</svg>
