<svg width="12" height="7" viewBox="0 0 12 7" fill="none" xmlns="http://www.w3.org/2000/svg">
<path d="M5.99995 0.0251961C6.13329 0.0251961 6.26229 0.0501966 6.38695 0.100197C6.51229 0.150197 6.61662 0.216863 6.69995 0.300197L11.3 4.9002C11.4833 5.08353 11.575 5.31686 11.575 5.6002C11.575 5.88353 11.4833 6.11686 11.3 6.3002C11.1166 6.48353 10.8833 6.5752 10.6 6.5752C10.3166 6.5752 10.0833 6.48353 9.89995 6.3002L5.99995 2.4002L2.09995 6.3002C1.91662 6.48353 1.68328 6.5752 1.39995 6.5752C1.11662 6.5752 0.883286 6.48353 0.699953 6.3002C0.51662 6.11686 0.424952 5.88353 0.424952 5.6002C0.424952 5.31686 0.51662 5.08353 0.699953 4.9002L5.29995 0.300197C5.39995 0.200196 5.50829 0.12953 5.62495 0.0881968C5.74162 0.0461965 5.86662 0.0251961 5.99995 0.0251961Z" fill="#243141"/>
</svg>
