<svg width="28" height="28" viewBox="0 0 28 28" fill="none" xmlns="http://www.w3.org/2000/svg">
<path d="M23.6795 6.18001L19.7967 10.0628H21.8748C22.2229 10.0628 22.5567 10.2011 22.8029 10.4472C23.049 10.6934 23.1873 11.0272 23.1873 11.3753C23.1873 11.7234 23.049 12.0573 22.8029 12.3034C22.5567 12.5495 22.2229 12.6878 21.8748 12.6878H16.6248C16.2767 12.6878 15.9429 12.5495 15.6967 12.3034C15.4506 12.0573 15.3123 11.7234 15.3123 11.3753V6.12532C15.3123 5.77723 15.4506 5.44339 15.6967 5.19725C15.9429 4.9511 16.2767 4.81282 16.6248 4.81282C16.9729 4.81282 17.3067 4.9511 17.5529 5.19725C17.799 5.44339 17.9373 5.77723 17.9373 6.12532V8.20345L21.8201 4.32064C22.0667 4.07407 22.4011 3.93555 22.7498 3.93555C23.0985 3.93555 23.4329 4.07407 23.6795 4.32064C23.9261 4.5672 24.0646 4.90162 24.0646 5.25032C24.0646 5.59902 23.9261 5.93344 23.6795 6.18001ZM11.3748 15.3128H6.1248C5.77671 15.3128 5.44287 15.4511 5.19673 15.6972C4.95059 15.9434 4.8123 16.2772 4.8123 16.6253C4.8123 16.9734 4.95059 17.3073 5.19673 17.5534C5.44287 17.7995 5.77671 17.9378 6.1248 17.9378H8.20293L4.32012 21.8206C4.19776 21.9426 4.10067 22.0875 4.03443 22.247C3.96818 22.4065 3.93408 22.5776 3.93408 22.7503C3.93408 22.9231 3.96818 23.0941 4.03443 23.2536C4.10067 23.4132 4.19776 23.5581 4.32012 23.68C4.5678 23.9245 4.9018 24.0616 5.2498 24.0616C5.59781 24.0616 5.93181 23.9245 6.17949 23.68L10.0623 19.7972V21.8753C10.0623 22.2234 10.2006 22.5573 10.4467 22.8034C10.6929 23.0495 11.0267 23.1878 11.3748 23.1878C11.7229 23.1878 12.0567 23.0495 12.3029 22.8034C12.549 22.5573 12.6873 22.2234 12.6873 21.8753V16.6253C12.6873 16.2772 12.549 15.9434 12.3029 15.6972C12.0567 15.4511 11.7229 15.3128 11.3748 15.3128Z" fill="url(#paint0_linear_260_6809)"/>
<defs>
<linearGradient id="paint0_linear_260_6809" x1="3.93408" y1="26.5773" x2="25.7699" y2="0.106819" gradientUnits="userSpaceOnUse">
<stop stop-color="#00E092"/>
<stop offset="1" stop-color="#00D9F5"/>
<stop offset="1" stop-color="#01D0EB"/>
</linearGradient>
</defs>
</svg>
