<svg width="12" height="8" viewBox="0 0 12 8" fill="none" xmlns="http://www.w3.org/2000/svg">
<path d="M6.00005 7.33418C5.86671 7.33418 5.73771 7.30918 5.61305 7.25918C5.48771 7.20918 5.38338 7.14251 5.30005 7.05918L0.700048 2.45918C0.516715 2.27585 0.425049 2.04251 0.425049 1.75918C0.425049 1.47585 0.516715 1.24251 0.700048 1.05918C0.883382 0.875846 1.11672 0.78418 1.40005 0.78418C1.68338 0.78418 1.91672 0.875846 2.10005 1.05918L6.00005 4.95918L9.90005 1.05918C10.0834 0.875846 10.3167 0.78418 10.6 0.78418C10.8834 0.78418 11.1167 0.875846 11.3 1.05918C11.4834 1.24251 11.575 1.47585 11.575 1.75918C11.575 2.04251 11.4834 2.27585 11.3 2.45918L6.70005 7.05918C6.60005 7.15918 6.49171 7.22985 6.37505 7.27118C6.25838 7.31318 6.13338 7.33418 6.00005 7.33418Z" fill="#B5B5B5"/>
</svg>
