<svg width="28" height="28" viewBox="0 0 28 28" fill="none" xmlns="http://www.w3.org/2000/svg">
<g clip-path="url(#clip0_273_7892)">
<path d="M14.0001 11.2002C13.1568 11.2 12.3291 11.4282 11.6052 11.8608C10.8813 12.2933 10.2881 12.9139 9.88864 13.6566C9.48923 14.3993 9.29854 15.2364 9.33685 16.0789C9.37515 16.9213 9.64102 17.7376 10.1062 18.441L16.5761 11.973C15.8124 11.467 14.9161 11.1981 14.0001 11.2002ZM14.0001 20.5335C13.0481 20.5335 12.1651 20.2498 11.4259 19.7607L17.8939 13.2909C18.3596 13.9943 18.6259 14.8108 18.6644 15.6535C18.703 16.4962 18.5124 17.3337 18.1129 18.0767C17.7135 18.8197 17.1201 19.4406 16.3958 19.8732C15.6716 20.3058 14.8437 20.534 14.0001 20.5335Z" fill="white"/>
<path fill-rule="evenodd" clip-rule="evenodd" d="M25.2 3.73333H22.4V0H20.5333V3.73333H7.46667V0H5.6V3.73333H2.8C2.05739 3.73333 1.3452 4.02833 0.820101 4.55343C0.294999 5.07854 0 5.79073 0 6.53333L0 25.2C0 25.9426 0.294999 26.6548 0.820101 27.1799C1.3452 27.705 2.05739 28 2.8 28H25.2C25.9426 28 26.6548 27.705 27.1799 27.1799C27.705 26.6548 28 25.9426 28 25.2V6.53333C28 5.79073 27.705 5.07854 27.1799 4.55343C26.6548 4.02833 25.9426 3.73333 25.2 3.73333ZM7.46667 15.8667C7.46667 14.1339 8.155 12.4721 9.38024 11.2469C10.6055 10.0217 12.2673 9.33333 14 9.33333C15.7327 9.33333 17.3945 10.0217 18.6198 11.2469C19.845 12.4721 20.5333 14.1339 20.5333 15.8667C20.5333 17.5994 19.845 19.2612 18.6198 20.4864C17.3945 21.7117 15.7327 22.4 14 22.4C12.2673 22.4 10.6055 21.7117 9.38024 20.4864C8.155 19.2612 7.46667 17.5994 7.46667 15.8667Z" fill="white"/>
</g>
<defs>
<clipPath id="clip0_273_7892">
<rect width="28" height="28" fill="white"/>
</clipPath>
</defs>
</svg>
