<svg width="28" height="28" viewBox="0 0 28 28" fill="none" xmlns="http://www.w3.org/2000/svg">
<path d="M18.8125 8.75H9.1875C8.94588 8.75 8.75 8.94588 8.75 9.1875V18.8125C8.75 19.0541 8.94588 19.25 9.1875 19.25H18.8125C19.0541 19.25 19.25 19.0541 19.25 18.8125V9.1875C19.25 8.94588 19.0541 8.75 18.8125 8.75Z" fill="white"/>
<path d="M25.375 10.5C25.6071 10.5 25.8296 10.4078 25.9937 10.2437C26.1578 10.0796 26.25 9.85706 26.25 9.625C26.25 9.39294 26.1578 9.17038 25.9937 9.00628C25.8296 8.84219 25.6071 8.75 25.375 8.75H24.5V7C24.499 6.07205 24.1299 5.1824 23.4738 4.52625C22.8176 3.87009 21.9279 3.50101 21 3.5H19.25V2.625C19.25 2.39294 19.1578 2.17038 18.9937 2.00628C18.8296 1.84219 18.6071 1.75 18.375 1.75C18.1429 1.75 17.9204 1.84219 17.7563 2.00628C17.5922 2.17038 17.5 2.39294 17.5 2.625V3.5H14.875V2.625C14.875 2.39294 14.7828 2.17038 14.6187 2.00628C14.4546 1.84219 14.2321 1.75 14 1.75C13.7679 1.75 13.5454 1.84219 13.3813 2.00628C13.2172 2.17038 13.125 2.39294 13.125 2.625V3.5H10.5V2.625C10.5 2.39294 10.4078 2.17038 10.2437 2.00628C10.0796 1.84219 9.85706 1.75 9.625 1.75C9.39294 1.75 9.17038 1.84219 9.00628 2.00628C8.84219 2.17038 8.75 2.39294 8.75 2.625V3.5H7C6.07205 3.50101 5.1824 3.87009 4.52625 4.52625C3.87009 5.1824 3.50101 6.07205 3.5 7V8.75H2.625C2.39294 8.75 2.17038 8.84219 2.00628 9.00628C1.84219 9.17038 1.75 9.39294 1.75 9.625C1.75 9.85706 1.84219 10.0796 2.00628 10.2437C2.17038 10.4078 2.39294 10.5 2.625 10.5H3.5V13.125H2.625C2.39294 13.125 2.17038 13.2172 2.00628 13.3813C1.84219 13.5454 1.75 13.7679 1.75 14C1.75 14.2321 1.84219 14.4546 2.00628 14.6187C2.17038 14.7828 2.39294 14.875 2.625 14.875H3.5V17.5H2.625C2.39294 17.5 2.17038 17.5922 2.00628 17.7563C1.84219 17.9204 1.75 18.1429 1.75 18.375C1.75 18.6071 1.84219 18.8296 2.00628 18.9937C2.17038 19.1578 2.39294 19.25 2.625 19.25H3.5V21C3.50101 21.9279 3.87009 22.8176 4.52625 23.4738C5.1824 24.1299 6.07205 24.499 7 24.5H8.75V25.375C8.75 25.6071 8.84219 25.8296 9.00628 25.9937C9.17038 26.1578 9.39294 26.25 9.625 26.25C9.85706 26.25 10.0796 26.1578 10.2437 25.9937C10.4078 25.8296 10.5 25.6071 10.5 25.375V24.5H13.125V25.375C13.125 25.6071 13.2172 25.8296 13.3813 25.9937C13.5454 26.1578 13.7679 26.25 14 26.25C14.2321 26.25 14.4546 26.1578 14.6187 25.9937C14.7828 25.8296 14.875 25.6071 14.875 25.375V24.5H17.5V25.375C17.5 25.6071 17.5922 25.8296 17.7563 25.9937C17.9204 26.1578 18.1429 26.25 18.375 26.25C18.6071 26.25 18.8296 26.1578 18.9937 25.9937C19.1578 25.8296 19.25 25.6071 19.25 25.375V24.5H21C21.9279 24.499 22.8176 24.1299 23.4738 23.4738C24.1299 22.8176 24.499 21.9279 24.5 21V19.25H25.375C25.6071 19.25 25.8296 19.1578 25.9937 18.9937C26.1578 18.8296 26.25 18.6071 26.25 18.375C26.25 18.1429 26.1578 17.9204 25.9937 17.7563C25.8296 17.5922 25.6071 17.5 25.375 17.5H24.5V14.875H25.375C25.6071 14.875 25.8296 14.7828 25.9937 14.6187C26.1578 14.4546 26.25 14.2321 26.25 14C26.25 13.7679 26.1578 13.5454 25.9937 13.3813C25.8296 13.2172 25.6071 13.125 25.375 13.125H24.5V10.5H25.375ZM21 19.25C21 19.7141 20.8156 20.1592 20.4874 20.4874C20.1592 20.8156 19.7141 21 19.25 21H8.75C8.28587 21 7.84075 20.8156 7.51256 20.4874C7.18437 20.1592 7 19.7141 7 19.25V8.75C7 8.28587 7.18437 7.84075 7.51256 7.51256C7.84075 7.18437 8.28587 7 8.75 7H19.25C19.7141 7 20.1592 7.18437 20.4874 7.51256C20.8156 7.84075 21 8.28587 21 8.75V19.25Z" fill="white"/>
</svg>
