<svg width="18" height="18" viewBox="0 0 18 18" fill="none" xmlns="http://www.w3.org/2000/svg">
<path fill-rule="evenodd" clip-rule="evenodd" d="M0 9C0 6.61305 0.948212 4.32387 2.63604 2.63604C4.32387 0.948212 6.61305 0 9 0C11.3869 0 13.6761 0.948212 15.364 2.63604C17.0518 4.32387 18 6.61305 18 9C18 11.3869 17.0518 13.6761 15.364 15.364C13.6761 17.0518 11.3869 18 9 18C6.61305 18 4.32387 17.0518 2.63604 15.364C0.948212 13.6761 0 11.3869 0 9H0ZM8.4864 12.852L13.668 6.3744L12.732 5.6256L8.3136 11.1468L5.184 8.5392L4.416 9.4608L8.4864 12.8532V12.852Z" fill="url(#paint0_linear_221_7295)"/>
<defs>
<linearGradient id="paint0_linear_221_7295" x1="-2.79956e-07" y1="20.25" x2="19.53" y2="-3.42" gradientUnits="userSpaceOnUse">
<stop stop-color="#00BD7C"/>
<stop offset="1" stop-color="#00D9F5"/>
<stop offset="1" stop-color="#00C6DF"/>
</linearGradient>
</defs>
</svg>
