<svg width="33" height="32" viewBox="0 0 33 32" fill="none" xmlns="http://www.w3.org/2000/svg">
<path fill-rule="evenodd" clip-rule="evenodd" d="M16.5 5.33398C21.3533 5.33398 25.3933 8.78732 26.3 13.3873C29.7667 13.6273 32.5 16.4807 32.5 20.0007C32.5 23.6807 29.5133 26.6673 25.8333 26.6673H8.5C4.08667 26.6673 0.5 23.0807 0.5 18.6673C0.5 14.5473 3.62 11.1473 7.63333 10.7207C9.3 7.52065 12.6467 5.33398 16.5 5.33398ZM12.9009 21.7203C13.4209 22.2403 14.2609 22.2403 14.7809 21.7203L21.6876 14.8136C22.2076 14.2936 22.2076 13.4536 21.6876 12.9336C21.1676 12.4136 20.3276 12.4136 19.8076 12.9336L13.8343 18.907L11.9809 17.0536C11.4609 16.5336 10.6209 16.5336 10.1009 17.0536C9.85125 17.3027 9.71094 17.6409 9.71094 17.9936C9.71094 18.3463 9.85125 18.6845 10.1009 18.9336L12.9009 21.7203Z" fill="url(#paint0_linear_249_6033)"/>
<defs>
<linearGradient id="paint0_linear_249_6033" x1="0.5" y1="29.334" x2="20.4117" y2="-6.86487" gradientUnits="userSpaceOnUse">
<stop stop-color="#00E092"/>
<stop offset="1" stop-color="#00D9F5"/>
<stop offset="1" stop-color="#01D0EB"/>
</linearGradient>
</defs>
</svg>
