<svg width="28" height="20" viewBox="0 0 28 20" fill="none" xmlns="http://www.w3.org/2000/svg">
<path d="M14 0.5C11.6904 0.507242 9.45959 1.34024 7.7105 2.8485C6.37 4.0035 5.39875 5.5085 5.1485 7.01875C2.2155 7.66625 0 10.2212 0 13.3065C0 16.8905 2.989 19.75 6.61675 19.75H22.2023C25.3785 19.75 28 17.2475 28 14.1027C28 11.2397 25.8265 8.907 23.0405 8.51325C22.6153 3.99825 18.7075 0.5 14 0.5ZM18.1195 8.9945L12.8695 14.2445C12.7882 14.326 12.6917 14.3906 12.5854 14.4347C12.4791 14.4789 12.3651 14.5016 12.25 14.5016C12.1349 14.5016 12.0209 14.4789 11.9146 14.4347C11.8083 14.3906 11.7118 14.326 11.6305 14.2445L9.0055 11.6195C8.92415 11.5381 8.85961 11.4416 8.81558 11.3353C8.77156 11.229 8.74889 11.1151 8.74889 11C8.74889 10.8849 8.77156 10.771 8.81558 10.6647C8.85961 10.5584 8.92415 10.4619 9.0055 10.3805C9.08685 10.2991 9.18343 10.2346 9.28973 10.1906C9.39602 10.1466 9.50995 10.1239 9.625 10.1239C9.74005 10.1239 9.85398 10.1466 9.96027 10.1906C10.0666 10.2346 10.1631 10.2991 10.2445 10.3805L12.25 12.3878L16.8805 7.7555C17.0448 7.5912 17.2676 7.49889 17.5 7.49889C17.7324 7.49889 17.9552 7.5912 18.1195 7.7555C18.2838 7.9198 18.3761 8.14264 18.3761 8.375C18.3761 8.60736 18.2838 8.8302 18.1195 8.9945Z" fill="white"/>
</svg>
