<svg width="28" height="28" viewBox="0 0 28 28" fill="none" xmlns="http://www.w3.org/2000/svg">
<path d="M14.0004 24.5C12.7171 24.5 11.6184 24.0431 10.7046 23.1292C9.79067 22.2153 9.33372 21.1167 9.33372 19.8333C9.33372 18.55 9.79067 17.4514 10.7046 16.5375C11.6184 15.6236 12.7171 15.1667 14.0004 15.1667C15.2837 15.1667 16.3823 15.6236 17.2962 16.5375C18.2101 17.4514 18.6671 18.55 18.6671 19.8333C18.6671 21.1167 18.2101 22.2153 17.2962 23.1292C16.3823 24.0431 15.2837 24.5 14.0004 24.5ZM3.55872 10.0333L1.83789 8.42917C3.41289 6.89306 5.24067 5.6875 7.32122 4.8125C9.40178 3.9375 11.6282 3.5 14.0004 3.5C16.3726 3.5 18.599 3.9375 20.6796 4.8125C22.7601 5.6875 24.5879 6.89306 26.1629 8.42917L24.4421 10.0333C23.0615 8.73056 21.4865 7.70506 19.7171 6.95683C17.9476 6.20783 16.0421 5.83333 14.0004 5.83333C11.9587 5.83333 10.0532 6.20783 8.28372 6.95683C6.51428 7.70506 4.93928 8.73056 3.55872 10.0333ZM20.1837 14.0292C19.3671 13.2903 18.4337 12.7116 17.3837 12.2932C16.3337 11.8755 15.2059 11.6667 14.0004 11.6667C12.7948 11.6667 11.6721 11.8755 10.6322 12.2932C9.59156 12.7116 8.65317 13.2903 7.81706 14.0292L6.09622 12.425C7.14622 11.4528 8.34672 10.6944 9.69772 10.15C11.0495 9.60556 12.4837 9.33333 14.0004 9.33333C15.5171 9.33333 16.9462 9.60556 18.2879 10.15C19.6296 10.6944 20.8254 11.4528 21.8754 12.425L20.1837 14.0292Z" fill="white"/>
</svg>
