<svg width="32" height="28" viewBox="0 0 32 28" fill="none" xmlns="http://www.w3.org/2000/svg">
<g clip-path="url(#clip0_260_6920)">
<path d="M15.9031 2.6582L20.1906 4.28242L15.75 5.98867L11.3094 4.28242L15.5969 2.6582C15.6953 2.61992 15.8047 2.61992 15.9086 2.6582H15.9031ZM7.4375 5.05898V11.1949C7.36641 11.2168 7.29531 11.2387 7.22422 11.266L1.97422 13.2566C0.7875 13.7051 0 14.848 0 16.1168V22.6355C0 23.8496 0.716406 24.9488 1.83203 25.441L7.08203 27.7488C7.86953 28.0934 8.76094 28.0934 9.54844 27.7488L15.75 25.0199L21.957 27.7488C22.7445 28.0934 23.6359 28.0934 24.4234 27.7488L29.6734 25.441C30.7836 24.9543 31.5055 23.8496 31.5055 22.6355V16.1168C31.5055 14.8426 30.718 13.7051 29.5312 13.2512L24.2812 11.2605C24.2102 11.2332 24.1391 11.2113 24.068 11.1895V5.05898C24.068 3.78477 23.2805 2.64727 22.0938 2.19336L16.8438 0.202734C16.1437 -0.0597656 15.3727 -0.0597656 14.6727 0.202734L9.42266 2.19336C8.225 2.64727 7.4375 3.79023 7.4375 5.05898ZM21.4375 11.5176L16.9312 13.2238V8.3457L21.4375 6.61758V11.5176ZM8.46562 13.7215L12.7531 15.3457L8.3125 17.0465L3.87188 15.3457L8.15938 13.7215C8.25781 13.6832 8.36719 13.6832 8.47109 13.7215H8.46562ZM9.49375 24.8996V19.4035L14 17.6754V22.9199L9.49375 24.8996ZM23.0344 13.7215C23.1328 13.6832 23.2422 13.6832 23.3461 13.7215L27.6336 15.3457L23.1875 17.0465L18.7469 15.3457L23.0344 13.7215ZM28.6125 23.0348L24.3687 24.8996V19.4035L28.875 17.6754V22.6355C28.875 22.8105 28.7711 22.9637 28.6125 23.0348Z" fill="url(#paint0_linear_260_6920)"/>
</g>
<defs>
<linearGradient id="paint0_linear_260_6920" x1="-4.90007e-07" y1="31.5074" x2="29.5137" y2="-8.73887" gradientUnits="userSpaceOnUse">
<stop stop-color="#00E092"/>
<stop offset="1" stop-color="#00D9F5"/>
<stop offset="1" stop-color="#01D0EB"/>
</linearGradient>
<clipPath id="clip0_260_6920">
<rect width="31.5" height="28" fill="white"/>
</clipPath>
</defs>
</svg>
