<svg width="24" height="21" viewBox="0 0 24 21" fill="none" xmlns="http://www.w3.org/2000/svg">
<path d="M21.3335 5.33366C21.9222 5.33347 22.4892 5.5558 22.9208 5.95607C23.3524 6.35634 23.6168 6.90498 23.661 7.49199L23.6668 7.66699V18.167C23.667 18.7557 23.4447 19.3227 23.0444 19.7543C22.6441 20.1859 22.0955 20.4503 21.5085 20.4945L21.3335 20.5003H16.6668C16.0782 20.5005 15.5112 20.2782 15.0795 19.8779C14.6479 19.4776 14.3835 18.929 14.3393 18.342L14.3335 18.167V7.66699C14.3333 7.07832 14.5556 6.51133 14.9559 6.07969C15.3562 5.64804 15.9048 5.38364 16.4918 5.33949L16.6668 5.33366H21.3335ZM17.8335 0.666992C18.4523 0.666992 19.0458 0.912825 19.4834 1.35041C19.921 1.78799 20.1668 2.38149 20.1668 3.00033H15.5002C14.5719 3.00033 13.6817 3.36907 13.0253 4.02545C12.3689 4.68183 12.0002 5.57207 12.0002 6.50032V19.3337H2.66683C2.04799 19.3337 1.4545 19.0878 1.01691 18.6502C0.579329 18.2127 0.333496 17.6192 0.333496 17.0003V3.00033C0.333496 2.38149 0.579329 1.78799 1.01691 1.35041C1.4545 0.912825 2.04799 0.666992 2.66683 0.666992H17.8335Z" fill="url(#paint0_linear_227_6077)"/>
<defs>
<linearGradient id="paint0_linear_227_6077" x1="0.333496" y1="22.9795" x2="20.941" y2="-6.40399" gradientUnits="userSpaceOnUse">
<stop stop-color="#00E092"/>
<stop offset="1" stop-color="#00D9F5"/>
<stop offset="1" stop-color="#01D0EB"/>
</linearGradient>
</defs>
</svg>
