<svg width="28" height="28" viewBox="0 0 28 28" fill="none" xmlns="http://www.w3.org/2000/svg">
<path d="M3.70391 3.70436V6.97103L0.816406 4.08353L2.44974 2.4502L25.5497 25.5502L23.9164 27.1835L17.7331 21.0002H16.3331V23.3335H18.6664V25.6669H9.33307V23.3335H11.6664V21.0002H4.66641C4.02474 21.0002 3.47563 20.7719 3.01907 20.3154C2.56174 19.858 2.33307 19.3085 2.33307 18.6669V5.83353C2.33307 5.11408 2.56174 4.57936 3.01907 4.22936L3.70391 3.70436ZM24.1497 20.8252L6.82474 3.5002H23.3331C23.9747 3.5002 24.5242 3.72847 24.9816 4.18503C25.4381 4.64236 25.6664 5.19186 25.6664 5.83353V18.6669C25.6664 19.1724 25.5256 19.6196 25.2441 20.0085C24.9617 20.3974 24.597 20.6696 24.1497 20.8252Z" fill="white"/>
</svg>
