<svg width="28" height="28" viewBox="0 0 28 28" fill="none" xmlns="http://www.w3.org/2000/svg">
<path d="M23.334 9.33366C23.9227 9.33347 24.4896 9.5558 24.9213 9.95607C25.3529 10.3563 25.6173 10.905 25.6615 11.492L25.6673 11.667V22.167C25.6675 22.7557 25.4452 23.3227 25.0449 23.7543C24.6446 24.1859 24.096 24.4503 23.509 24.4945L23.334 24.5003H18.6673C18.0786 24.5005 17.5117 24.2782 17.08 23.8779C16.6484 23.4776 16.384 22.929 16.3398 22.342L16.334 22.167V11.667C16.3338 11.0783 16.5561 10.5113 16.9564 10.0797C17.3567 9.64804 17.9053 9.38364 18.4923 9.33949L18.6673 9.33366H23.334ZM19.834 4.66699C20.4528 4.66699 21.0463 4.91282 21.4839 5.35041C21.9215 5.78799 22.1673 6.38149 22.1673 7.00033H17.5007C16.5724 7.00033 15.6822 7.36907 15.0258 8.02545C14.3694 8.68183 14.0007 9.57207 14.0007 10.5003V23.3337H4.66732C4.04848 23.3337 3.45499 23.0878 3.0174 22.6502C2.57982 22.2127 2.33398 21.6192 2.33398 21.0003V7.00033C2.33398 6.38149 2.57982 5.78799 3.0174 5.35041C3.45499 4.91282 4.04848 4.66699 4.66732 4.66699H19.834Z" fill="white"/>
</svg>
