<svg width="28" height="28" viewBox="0 0 28 28" fill="none" xmlns="http://www.w3.org/2000/svg">
<path d="M14 28C21.7328 28 28 21.7328 28 14C28 6.26719 21.7328 0 14 0C6.26719 0 0 6.26719 0 14C0 21.7328 6.26719 28 14 28ZM11.4078 19.5398L9.275 18.8016C8.91953 18.6812 8.53125 18.6758 8.17578 18.7852L7.33906 19.0531C6.32734 19.3758 5.23359 18.9219 4.74141 17.9867L4.56094 17.6477C3.98125 16.5484 4.43516 15.1867 5.55625 14.6562L7.48672 13.7375C7.6125 13.6773 7.72734 13.5844 7.80938 13.475L8.09922 13.0922C8.49297 12.5672 9.11641 12.2555 9.77266 12.2555C10.4289 12.2555 11.0523 12.5672 11.4461 13.0922L11.6977 13.4258C11.807 13.568 11.9656 13.6719 12.1406 13.7047C12.5672 13.7922 12.9992 13.6227 13.2562 13.2727L13.825 12.4961C13.9344 12.343 14.1148 12.2555 14.3008 12.2555C14.5414 12.2555 14.7602 12.4031 14.8477 12.6273L15.4 14.0437C15.5531 14.4375 15.7664 14.8094 16.0289 15.1484L17.0078 16.3953C17.325 16.8 17.5 17.3031 17.5 17.8172C17.5 18.3312 17.325 18.8344 17.0078 19.2391L16.3516 20.0813C15.8977 20.6609 15.2031 21 14.4703 21C14.0109 21 13.5625 20.8687 13.1742 20.6172L11.7852 19.7203C11.6648 19.6438 11.5391 19.5836 11.4078 19.5344V19.5398ZM14.9734 7.79297L16.1875 9.00703C16.7398 9.55937 16.3461 10.5 15.5695 10.5H13.9344C13.6281 10.5 13.3273 10.4344 13.0484 10.3141L10.7078 9.275C9.92578 8.93047 10.057 7.78203 10.8938 7.61797L12.9992 7.19688C13.7156 7.05469 14.4594 7.27891 14.9734 7.79297ZM13.5625 23.625C13.5625 23.1437 13.9563 22.75 14.4375 22.75H15.3125C15.7937 22.75 16.1875 23.1437 16.1875 23.625C16.1875 24.1063 15.7937 24.5 15.3125 24.5H14.4375C13.9563 24.5 13.5625 24.1063 13.5625 23.625ZM23.5813 16.3461L24.0188 17.6586C24.1719 18.118 23.9258 18.6102 23.4664 18.7633C23.007 18.9164 22.5148 18.6703 22.3617 18.2109L21.9242 16.8984C21.7711 16.4391 22.0172 15.9469 22.4766 15.7937C22.9359 15.6406 23.4281 15.8867 23.5813 16.3461ZM22.493 20.743L20.743 22.493C20.4039 22.832 19.8461 22.832 19.507 22.493C19.168 22.1539 19.168 21.5961 19.507 21.257L21.257 19.507C21.5961 19.168 22.1539 19.168 22.493 19.507C22.832 19.8461 22.832 20.4039 22.493 20.743Z" fill="url(#paint0_linear_227_6085)"/>
<defs>
<linearGradient id="paint0_linear_227_6085" x1="-4.35486e-07" y1="31.5" x2="30.38" y2="-5.32" gradientUnits="userSpaceOnUse">
<stop stop-color="#00E092"/>
<stop offset="1" stop-color="#00D9F5"/>
<stop offset="1" stop-color="#01D0EB"/>
</linearGradient>
</defs>
</svg>
