<svg width="28" height="20" viewBox="0 0 28 20" fill="none" xmlns="http://www.w3.org/2000/svg">
<path d="M18.375 10C18.375 11.1603 17.9141 12.2731 17.0936 13.0936C16.2731 13.9141 15.1603 14.375 14 14.375C12.8397 14.375 11.7269 13.9141 10.9064 13.0936C10.0859 12.2731 9.625 11.1603 9.625 10C9.625 8.83968 10.0859 7.72688 10.9064 6.90641C11.7269 6.08594 12.8397 5.625 14 5.625C15.1603 5.625 16.2731 6.08594 17.0936 6.90641C17.9141 7.72688 18.375 8.83968 18.375 10Z" fill="white"/>
<path d="M0 10C0 10 5.25 0.375 14 0.375C22.75 0.375 28 10 28 10C28 10 22.75 19.625 14 19.625C5.25 19.625 0 10 0 10ZM14 16.125C15.6245 16.125 17.1824 15.4797 18.331 14.331C19.4797 13.1824 20.125 11.6245 20.125 10C20.125 8.37555 19.4797 6.81763 18.331 5.66897C17.1824 4.52031 15.6245 3.875 14 3.875C12.3755 3.875 10.8176 4.52031 9.66897 5.66897C8.52031 6.81763 7.875 8.37555 7.875 10C7.875 11.6245 8.52031 13.1824 9.66897 14.331C10.8176 15.4797 12.3755 16.125 14 16.125Z" fill="white"/>
</svg>
