<svg width="28" height="28" viewBox="0 0 28 28" fill="none" xmlns="http://www.w3.org/2000/svg">
<path fill-rule="evenodd" clip-rule="evenodd" d="M2.3335 14.0003C3.436 8.67566 8.24033 4.66699 14.0002 4.66699C19.76 4.66699 24.5643 8.67566 25.6668 14.0003C24.5643 19.325 19.76 23.3337 14.0002 23.3337C8.24033 23.3337 3.436 19.325 2.3335 14.0003ZM14.0002 19.8337C15.5473 19.8337 17.031 19.2191 18.125 18.1251C19.2189 17.0312 19.8335 15.5474 19.8335 14.0003C19.8335 12.4532 19.2189 10.9695 18.125 9.87554C17.031 8.78157 15.5473 8.16699 14.0002 8.16699C12.4531 8.16699 10.9693 8.78157 9.87537 9.87554C8.78141 10.9695 8.16683 12.4532 8.16683 14.0003C8.16683 15.5474 8.78141 17.0312 9.87537 18.1251C10.9693 19.2191 12.4531 19.8337 14.0002 19.8337ZM14.0002 17.5003C14.9284 17.5003 15.8187 17.1316 16.475 16.4752C17.1314 15.8188 17.5002 14.9286 17.5002 14.0003C17.5002 13.0721 17.1314 12.1818 16.475 11.5255C15.8187 10.8691 14.9284 10.5003 14.0002 10.5003C13.0719 10.5003 12.1817 10.8691 11.5253 11.5255C10.8689 12.1818 10.5002 13.0721 10.5002 14.0003C10.5002 14.9286 10.8689 15.8188 11.5253 16.4752C12.1817 17.1316 13.0719 17.5003 14.0002 17.5003Z" fill="url(#paint0_linear_260_6807)"/>
<defs>
<linearGradient id="paint0_linear_260_6807" x1="2.3335" y1="25.667" x2="21.302" y2="-3.06992" gradientUnits="userSpaceOnUse">
<stop stop-color="#00E092"/>
<stop offset="1" stop-color="#00D9F5"/>
<stop offset="1" stop-color="#01D0EB"/>
</linearGradient>
</defs>
</svg>
