<svg width="28" height="28" viewBox="0 0 28 28" fill="none" xmlns="http://www.w3.org/2000/svg">
<g clip-path="url(#clip0_260_6928)">
<path d="M27.9997 0C25.168 0.194688 5.27379 2.08906 3.88309 15.7287C3.7141 17.1866 3.6184 18.6512 3.55551 20.1168L13.3375 10.3447C13.6793 10.0029 14.2343 10.0029 14.5761 10.3447C14.9179 10.6865 14.9179 11.2405 14.5761 11.5823L0.384727 25.7595C-0.128242 26.2719 -0.128242 27.1031 0.384727 27.6155C0.897695 28.128 1.72949 28.128 2.24301 27.6155L5.3673 24.4945C7.6691 24.4869 9.96926 24.3562 12.2557 24.092C15.1804 23.7945 17.5615 22.6445 19.5062 21H13.9855L22.0131 18.3269C22.6283 17.5126 23.1818 16.6474 23.6783 15.75H19.241L25.0674 12.8401C27.3593 7.26578 27.9007 1.43609 27.9997 0Z" fill="url(#paint0_linear_260_6928)"/>
</g>
<defs>
<linearGradient id="paint0_linear_260_6928" x1="-4.35482e-07" y1="31.4998" x2="30.3799" y2="-5.31983" gradientUnits="userSpaceOnUse">
<stop stop-color="#00E092"/>
<stop offset="1" stop-color="#00D9F5"/>
<stop offset="1" stop-color="#01D0EB"/>
</linearGradient>
<clipPath id="clip0_260_6928">
<rect width="28" height="28" fill="white"/>
</clipPath>
</defs>
</svg>
