<svg width="28" height="28" viewBox="0 0 28 28" fill="none" xmlns="http://www.w3.org/2000/svg">
<path d="M25.8302 17.897L25.8068 17.9087C26.0752 18.2353 26.3085 18.597 26.4835 18.982L26.5885 19.2037C27.4168 21.1753 26.8335 23.4503 25.3052 24.8737C23.9168 26.1453 21.9802 26.4837 20.1835 26.2503C18.4802 26.0403 16.9168 24.967 16.0185 23.4853C15.7502 23.0303 15.5168 22.517 15.4002 21.992C15.2485 21.5837 15.2018 21.1403 15.1668 20.7087C15.0618 18.842 15.8085 16.8587 17.2202 15.692C16.5785 17.1037 16.7302 18.8653 17.6752 20.0903L17.8035 20.242C17.9668 20.382 18.1652 20.417 18.3518 20.347C18.5268 20.277 18.6668 20.102 18.6668 19.9153L18.5852 19.6353C17.5585 16.917 18.4218 13.767 20.6035 11.982C21.1985 11.492 21.9335 11.0487 22.7035 10.8503C21.9102 12.437 22.1668 14.5137 23.4385 15.7503C23.9752 16.3337 24.6285 16.672 25.1768 17.1853L25.8302 17.897ZM23.1702 23.3337L23.1585 23.2987C23.6835 22.8437 23.9752 22.062 23.9518 21.362L23.9168 21.0003C23.6835 19.8337 22.6685 19.437 22.0152 18.5853L21.5135 17.6753C21.2568 18.2587 21.2335 18.807 21.3385 19.437C21.4552 20.102 21.7118 20.6737 21.5835 21.362C21.3968 22.1203 20.8018 22.8787 19.7635 23.1237C20.3468 23.6953 21.2918 24.1503 22.2368 23.8237C22.5402 23.742 22.9252 23.5203 23.1702 23.3337ZM3.50016 18.667H12.9035L12.8335 19.8337C12.8335 21.4787 13.2535 23.0187 14.0002 24.3603V24.5003H3.50016V18.667ZM2.3335 11.667H9.3335V17.5003H2.3335V11.667ZM10.5002 11.667H17.5002V11.7487C16.4265 12.3701 15.4869 13.1985 14.7359 14.1858C13.9849 15.1731 13.4374 16.2998 13.1252 17.5003H10.5002V11.667ZM3.50016 4.66699H12.8335V10.5003H3.50016V4.66699ZM14.0002 4.66699H24.5002V10.5003H14.0002V4.66699Z" fill="white"/>
</svg>
