<svg width="28" height="28" viewBox="0 0 28 28" fill="none" xmlns="http://www.w3.org/2000/svg">
<g clip-path="url(#clip0_260_6640)">
<path d="M14.0001 11.2002C13.1568 11.2 12.3291 11.4282 11.6052 11.8608C10.8813 12.2933 10.2881 12.9139 9.88864 13.6566C9.48923 14.3993 9.29854 15.2364 9.33685 16.0789C9.37515 16.9213 9.64102 17.7376 10.1062 18.441L16.5761 11.973C15.8124 11.467 14.9161 11.1981 14.0001 11.2002ZM14.0001 20.5335C13.0481 20.5335 12.1651 20.2498 11.4259 19.7607L17.8939 13.2909C18.3596 13.9943 18.6259 14.8108 18.6644 15.6535C18.703 16.4962 18.5124 17.3337 18.1129 18.0767C17.7135 18.8197 17.1201 19.4406 16.3958 19.8732C15.6716 20.3058 14.8437 20.534 14.0001 20.5335Z" fill="white"/>
<path fill-rule="evenodd" clip-rule="evenodd" d="M0 4.66621C0 3.9236 0.294999 3.21141 0.820101 2.68631C1.3452 2.16121 2.05739 1.86621 2.8 1.86621H10.6531L14.3864 5.59954H25.2C25.9426 5.59954 26.6548 5.89454 27.1799 6.41965C27.705 6.94475 28 7.65694 28 8.39954V23.3329C28 24.0755 27.705 24.7877 27.1799 25.3128C26.6548 25.8379 25.9426 26.1329 25.2 26.1329H2.8C2.05739 26.1329 1.3452 25.8379 0.820101 25.3128C0.294999 24.7877 0 24.0755 0 23.3329L0 4.66621ZM7.46667 15.8662C7.46667 14.1335 8.155 12.4717 9.38024 11.2464C10.6055 10.0212 12.2673 9.33288 14 9.33288C15.7327 9.33288 17.3945 10.0212 18.6198 11.2464C19.845 12.4717 20.5333 14.1335 20.5333 15.8662C20.5333 17.599 19.845 19.2607 18.6198 20.486C17.3945 21.7112 15.7327 22.3995 14 22.3995C12.2673 22.3995 10.6055 21.7112 9.38024 20.486C8.155 19.2607 7.46667 17.599 7.46667 15.8662Z" fill="white"/>
</g>
<defs>
<clipPath id="clip0_260_6640">
<rect width="28" height="28" fill="white"/>
</clipPath>
</defs>
</svg>
