<svg width="28" height="28" viewBox="0 0 28 28" fill="none" xmlns="http://www.w3.org/2000/svg">
<g clip-path="url(#clip0_227_6249)">
<path d="M27.916 3.43705C19.5634 0.466737 10.484 0.221657 1.98336 2.73705C1.64576 2.81826 1.32795 2.96655 1.04884 3.1731C0.769727 3.37965 0.535019 3.64024 0.358682 3.93936C0.182345 4.23848 0.0679835 4.57002 0.0224025 4.91424C-0.0231784 5.25847 0.000952994 5.60834 0.0933607 5.94305C0.560027 7.80971 1.23669 9.95521 2.05336 11.9024C2.06503 11.949 2.08836 11.9257 2.08836 11.879C1.97169 10.969 2.67169 9.81405 4.04719 9.39405C10.6583 7.29258 17.7719 7.38671 24.325 9.66238C25.3284 10.0124 26.4484 9.46405 26.7739 8.42688C27.5905 5.80421 27.9172 4.01921 27.9989 3.57705C28.0105 3.49538 27.9405 3.46038 27.9172 3.43705H27.916ZM7.76769 9.20855C6.76436 9.41855 5.37603 9.74522 4.33769 10.0952C2.26336 10.8069 2.35669 13.3362 3.46386 14.1412C3.54553 13.6745 4.04719 13.0329 4.60719 12.8229C6.68269 12.0062 8.90986 11.5174 11.1604 11.319C10.017 10.8524 8.89703 10.1874 7.77819 9.20855M24.3017 14.2695C21.3173 12.8681 18.0824 12.0789 14.7879 11.9487C11.4934 11.8184 8.20622 12.3497 5.12053 13.5112C4.12886 13.8845 3.51053 15.0862 4.12886 16.2284C5.21083 18.1835 6.43852 20.0542 7.80153 21.8249C7.60319 21.1482 7.95319 19.8894 9.28319 19.481C12.9559 18.3505 16.8152 18.8277 19.3807 19.866C20.104 20.1577 21.1307 19.9827 21.7024 19.1194C22.685 17.6119 23.5763 16.047 24.3717 14.4329C24.4067 14.3629 24.3717 14.3045 24.3017 14.2695ZM18.3435 23.3299C17.2682 22.786 16.2845 22.0775 15.428 21.2299C15.0314 20.8332 14.448 20.2627 13.8297 19.5861C12.4309 19.5861 11.067 19.726 9.60986 20.1927C8.25653 20.6127 8.12819 22.1761 8.7232 22.9916C9.72653 24.2399 10.4265 24.9165 11.5454 26.0704C12.1388 26.6532 12.936 26.9817 13.7678 26.9861C14.5995 26.9904 15.4002 26.6703 15.9997 26.0937C16.8302 25.2625 17.6314 24.4025 18.4019 23.5154C18.4602 23.4571 18.4369 23.3521 18.3435 23.3287" fill="white"/>
</g>
<defs>
<clipPath id="clip0_227_6249">
<rect width="28" height="28" fill="white"/>
</clipPath>
</defs>
</svg>
