<svg width="28" height="28" viewBox="0 0 28 28" fill="none" xmlns="http://www.w3.org/2000/svg">
<path d="M2.3916 15.167H8.78144C8.98107 18.8616 10.1587 22.4369 12.1939 25.527C9.64469 25.1265 7.3 23.8926 5.52645 22.0182C3.75291 20.1438 2.65051 17.7344 2.3916 15.167ZM2.3916 12.8336C2.65051 10.2662 3.75291 7.85684 5.52645 5.9824C7.3 4.10796 9.64469 2.87406 12.1939 2.47363C10.1587 5.56368 8.98107 9.13897 8.78144 12.8336H2.3916ZM25.6083 12.8336H19.2184C19.0188 9.13897 17.8411 5.56368 15.8059 2.47363C18.3552 2.87406 20.6999 4.10796 22.4734 5.9824C24.247 7.85684 25.3494 10.2662 25.6083 12.8336ZM25.6083 15.167C25.3494 17.7344 24.247 20.1438 22.4734 22.0182C20.6999 23.8926 18.3552 25.1265 15.8059 25.527C17.8411 22.4369 19.0188 18.8616 19.2184 15.167H25.6094H25.6083ZM11.1183 15.167H16.8816C16.6896 18.3164 15.6978 21.3648 13.9999 24.0243C12.3021 21.3648 11.3103 18.3164 11.1183 15.167ZM11.1183 12.8336C11.3103 9.68423 12.3021 6.63579 13.9999 3.9763C15.6978 6.63579 16.6896 9.68423 16.8816 12.8336H11.1183Z" fill="white"/>
</svg>
