<svg width="28" height="28" viewBox="0 0 28 28" fill="none" xmlns="http://www.w3.org/2000/svg">
<path d="M7.87565 17.5003C8.12843 17.5003 8.33726 17.4175 8.50215 17.2518C8.66782 17.0869 8.75065 16.8781 8.75065 16.6253V15.167H11.084V16.6253C11.084 16.8781 11.1668 17.0869 11.3325 17.2518C11.4974 17.4175 11.7062 17.5003 11.959 17.5003C12.2118 17.5003 12.421 17.4175 12.5867 17.2518C12.7515 17.0869 12.834 16.8781 12.834 16.6253V11.3753C12.834 11.1225 12.7515 10.9133 12.5867 10.7477C12.421 10.5828 12.2118 10.5003 11.959 10.5003C11.7062 10.5003 11.4974 10.5828 11.3325 10.7477C11.1668 10.9133 11.084 11.1225 11.084 11.3753V13.417H8.75065V11.3753C8.75065 11.1225 8.66782 10.9133 8.50215 10.7477C8.33726 10.5828 8.12843 10.5003 7.87565 10.5003C7.62287 10.5003 7.41404 10.5828 7.24915 10.7477C7.08348 10.9133 7.00065 11.1225 7.00065 11.3753V16.6253C7.00065 16.8781 7.08348 17.0869 7.24915 17.2518C7.41404 17.4175 7.62287 17.5003 7.87565 17.5003ZM18.084 19.2503C18.3368 19.2503 18.546 19.1679 18.7117 19.003C18.8765 18.8373 18.959 18.6281 18.959 18.3753V17.5003H19.834C20.1645 17.5003 20.4414 17.3883 20.6646 17.1643C20.8887 16.9411 21.0007 16.6642 21.0007 16.3337V11.667C21.0007 11.3364 20.8887 11.0592 20.6646 10.8352C20.4414 10.6119 20.1645 10.5003 19.834 10.5003H16.334C16.0034 10.5003 15.7265 10.6119 15.5033 10.8352C15.2793 11.0592 15.1673 11.3364 15.1673 11.667V16.3337C15.1673 16.6642 15.2793 16.9411 15.5033 17.1643C15.7265 17.3883 16.0034 17.5003 16.334 17.5003H17.209V18.3753C17.209 18.6281 17.2918 18.8373 17.4575 19.003C17.6224 19.1679 17.8312 19.2503 18.084 19.2503ZM16.9173 15.7503V12.2503H19.2507V15.7503H16.9173ZM4.66732 23.3337C4.02565 23.3337 3.47654 23.1054 3.01998 22.6488C2.56265 22.1915 2.33398 21.642 2.33398 21.0003V7.00033C2.33398 6.35866 2.56265 5.80955 3.01998 5.35299C3.47654 4.89566 4.02565 4.66699 4.66732 4.66699H23.334C23.9757 4.66699 24.5252 4.89566 24.9825 5.35299C25.439 5.80955 25.6673 6.35866 25.6673 7.00033V21.0003C25.6673 21.642 25.439 22.1915 24.9825 22.6488C24.5252 23.1054 23.9757 23.3337 23.334 23.3337H4.66732Z" fill="white"/>
</svg>
