<svg width="28" height="28" viewBox="0 0 28 28" fill="none" xmlns="http://www.w3.org/2000/svg">
<path d="M12.0167 17.3253C12.2306 17.1114 12.3375 16.8392 12.3375 16.5087C12.3375 16.1781 12.2306 15.8962 12.0167 15.6628L10.325 14.0003L12.0458 12.2795C12.2597 12.0656 12.3667 11.7934 12.3667 11.4628C12.3667 11.1323 12.2597 10.8503 12.0458 10.617C11.8125 10.4031 11.5306 10.2962 11.2 10.2962C10.8694 10.2962 10.5972 10.4031 10.3833 10.617L7.81667 13.1837C7.60278 13.3975 7.49583 13.6698 7.49583 14.0003C7.49583 14.3309 7.60278 14.6031 7.81667 14.817L10.3542 17.3545C10.5681 17.5684 10.8403 17.6753 11.1708 17.6753C11.5014 17.6753 11.7833 17.5587 12.0167 17.3253ZM15.9833 17.3545C16.2167 17.5878 16.4986 17.7045 16.8292 17.7045C17.1597 17.7045 17.4319 17.5975 17.6458 17.3837L20.1833 14.8462C20.3972 14.6323 20.5042 14.36 20.5042 14.0295C20.5042 13.6989 20.3972 13.4267 20.1833 13.2128L17.6167 10.6462C17.4028 10.4323 17.1306 10.3253 16.8 10.3253C16.4694 10.3253 16.1875 10.4323 15.9542 10.6462C15.7403 10.8795 15.6333 11.1614 15.6333 11.492C15.6333 11.8225 15.7403 12.0948 15.9542 12.3087L17.675 14.0295L15.9833 15.692C15.7694 15.9253 15.6625 16.2073 15.6625 16.5378C15.6625 16.8684 15.7694 17.1406 15.9833 17.3545ZM5.83333 24.5003C5.19167 24.5003 4.64217 24.272 4.18483 23.8155C3.72828 23.3582 3.5 22.8087 3.5 22.167V5.83366C3.5 5.19199 3.72828 4.64249 4.18483 4.18516C4.64217 3.7286 5.19167 3.50033 5.83333 3.50033H10.7333C10.9861 2.80033 11.4092 2.23644 12.0027 1.80866C12.5953 1.38088 13.2611 1.16699 14 1.16699C14.7389 1.16699 15.4051 1.38088 15.9985 1.80866C16.5912 2.23644 17.0139 2.80033 17.2667 3.50033H22.1667C22.8083 3.50033 23.3578 3.7286 23.8152 4.18516C24.2717 4.64249 24.5 5.19199 24.5 5.83366V22.167C24.5 22.8087 24.2717 23.3582 23.8152 23.8155C23.3578 24.272 22.8083 24.5003 22.1667 24.5003H5.83333ZM14 4.95866C14.2528 4.95866 14.462 4.87583 14.6277 4.71016C14.7926 4.54527 14.875 4.33644 14.875 4.08366C14.875 3.83088 14.7926 3.62166 14.6277 3.45599C14.462 3.2911 14.2528 3.20866 14 3.20866C13.7472 3.20866 13.5384 3.2911 13.3735 3.45599C13.2078 3.62166 13.125 3.83088 13.125 4.08366C13.125 4.33644 13.2078 4.54527 13.3735 4.71016C13.5384 4.87583 13.7472 4.95866 14 4.95866Z" fill="white"/>
</svg>
