<svg width="24" height="24" viewBox="0 0 24 24" fill="none" xmlns="http://www.w3.org/2000/svg">
<path d="M2.09 16.7993H3.75V9.75928H2.09M2.92 8.83928C3.03986 8.84195 3.15905 8.82064 3.27056 8.7766C3.38207 8.73257 3.48366 8.6667 3.56936 8.58286C3.65507 8.49902 3.72315 8.3989 3.76963 8.28838C3.8161 8.17787 3.84003 8.05918 3.84 7.93928C3.84 7.43928 3.44 7.03928 2.92 7.03928C2.80014 7.03662 2.68095 7.05793 2.56944 7.10197C2.45793 7.146 2.35634 7.21187 2.27064 7.29571C2.18493 7.37955 2.11684 7.47967 2.07037 7.59019C2.0239 7.7007 1.99997 7.81939 2 7.93928C2 8.43928 2.4 8.83928 2.92 8.83928ZM9.25 7.05928C6.46 7.05928 4.7 8.95928 4.7 11.9993C4.7 15.0593 6.46 16.9593 9.25 16.9593C12.04 16.9593 13.8 15.0593 13.8 11.9993C13.8 8.95928 12.04 7.05928 9.25 7.05928ZM9.25 8.49928C10.96 8.49928 12.05 9.86928 12.05 11.9993C12.05 14.1493 10.96 15.4993 9.25 15.4993C7.54 15.4993 6.46 14.1493 6.46 11.9993C6.46 9.86928 7.54 8.49928 9.25 8.49928ZM14.5 14.1093C14.57 15.8693 16 16.9593 18.22 16.9593C20.54 16.9593 22 15.8193 22 13.9993C22 12.5693 21.18 11.7693 19.23 11.3193L18.13 11.0693C16.95 10.7893 16.47 10.4193 16.47 9.77928C16.47 8.99928 17.2 8.44928 18.28 8.44928C19.38 8.44928 20.13 8.99929 20.21 9.88929H21.84C21.8 8.19929 20.41 7.05928 18.29 7.05928C16.21 7.05928 14.73 8.20928 14.73 9.90928C14.73 11.2793 15.56 12.1293 17.33 12.5293L18.57 12.8193C19.78 13.1093 20.27 13.4993 20.27 14.1993C20.27 14.9993 19.47 15.5693 18.31 15.5693C17.15 15.5693 16.26 14.9993 16.16 14.1093H14.5Z" fill="white"/>
</svg>
