<svg width="28" height="28" viewBox="0 0 28 28" fill="none" xmlns="http://www.w3.org/2000/svg">
<path d="M14.7579 11.6667C14.195 10.0681 13.0711 8.72816 11.5949 7.89564C10.1187 7.06312 8.39049 6.79464 6.73127 7.14006C4.0596 7.67673 1.8896 9.81173 1.3296 12.4834C1.10383 13.5067 1.11045 14.5676 1.34896 15.588C1.58748 16.6084 2.05182 17.5623 2.7078 18.3794C3.36378 19.1966 4.19469 19.8562 5.13935 20.3098C6.08402 20.7633 7.11837 20.9992 8.16627 21.0001C9.61287 21.0001 11.0238 20.5512 12.2045 19.7154C13.3852 18.8795 14.2773 17.6978 14.7579 16.3334H19.8329V18.6667C19.8329 19.9501 20.8829 21.0001 22.1663 21.0001C23.4496 21.0001 24.4996 19.9501 24.4996 18.6667V16.3334C25.7829 16.3334 26.8329 15.2834 26.8329 14.0001C26.8329 12.7167 25.7829 11.6667 24.4996 11.6667H14.7579ZM8.16627 16.3334C6.88294 16.3334 5.83293 15.2834 5.83293 14.0001C5.83293 12.7167 6.88294 11.6667 8.16627 11.6667C9.4496 11.6667 10.4996 12.7167 10.4996 14.0001C10.4996 15.2834 9.4496 16.3334 8.16627 16.3334Z" fill="url(#paint0_linear_260_7417)"/>
<defs>
<linearGradient id="paint0_linear_260_7417" x1="1.16504" y1="22.7509" x2="12.7546" y2="-2.98928" gradientUnits="userSpaceOnUse">
<stop stop-color="#00E092"/>
<stop offset="1" stop-color="#00D9F5"/>
<stop offset="1" stop-color="#01D0EB"/>
</linearGradient>
</defs>
</svg>
