<svg width="28" height="28" viewBox="0 0 28 28" fill="none" xmlns="http://www.w3.org/2000/svg">
<path d="M14 14C13.2634 14 12.5267 13.8693 11.9525 13.6079L3.85875 9.91703C3.48852 9.74859 2.625 9.25586 2.625 8.32563C2.625 7.39539 3.48852 6.90375 3.85984 6.73313L12.0236 3.01055C13.1485 2.49648 14.846 2.49648 15.9715 3.01055L24.1402 6.73313C24.5115 6.90211 25.375 7.39484 25.375 8.32563C25.375 9.25641 24.5115 9.7475 24.1402 9.91758L16.0464 13.6079C15.4733 13.8693 14.7366 14 14 14Z" fill="white"/>
<path d="M24.1369 12.4037L23.3116 12.0312L21.1914 13.0014L16.0508 15.353C15.4766 15.6155 14.7383 15.7462 14.0033 15.7462C13.2683 15.7462 12.5305 15.6155 11.9569 15.353L6.81242 13.0014L4.69164 12.0312L3.8593 12.4053C3.48852 12.5743 2.625 13.0703 2.625 14C2.625 14.9297 3.48852 15.4263 3.85875 15.5952L11.9525 19.2937C12.5234 19.5562 13.2612 19.6875 14 19.6875C14.7388 19.6875 15.4733 19.5563 16.0475 19.2943L24.1341 15.5969C24.5066 15.4279 25.375 14.9346 25.375 14C25.375 13.0654 24.5126 12.5743 24.1369 12.4037Z" fill="white"/>
<path d="M24.1369 18.0906L23.3116 17.7188L21.1914 18.6884L16.0508 21.0372C15.4766 21.2986 14.7383 21.4298 14.0033 21.4298C13.2683 21.4298 12.5305 21.2991 11.9569 21.0372L6.81242 18.6856L4.69164 17.7188L3.8593 18.0928C3.48852 18.2618 2.625 18.7578 2.625 19.6875C2.625 20.6172 3.48852 21.1132 3.85875 21.2816L11.9525 24.978C12.5234 25.2394 13.2639 25.375 14 25.375C14.7361 25.375 15.47 25.2394 16.0442 24.9774L24.1336 21.2822C24.5066 21.1138 25.375 20.6205 25.375 19.6875C25.375 18.7545 24.5126 18.2618 24.1369 18.0906Z" fill="white"/>
</svg>
