<svg width="28" height="28" viewBox="0 0 28 28" fill="none" xmlns="http://www.w3.org/2000/svg">
<path d="M26.0954 8.59715C25.7725 8.9243 25.3875 9.18373 24.9631 9.36027C24.5386 9.53681 24.0832 9.6269 23.6235 9.62528C23.3435 9.62563 23.0645 9.59258 22.7923 9.52684L19.872 14.93L19.9704 15.0284C20.2958 15.3526 20.554 15.7378 20.7302 16.162C20.9064 16.5862 20.9971 17.041 20.9971 17.5003C20.9971 17.9596 20.9064 18.4144 20.7302 18.8386C20.554 19.2628 20.2958 19.648 19.9704 19.9722C19.6463 20.2976 19.261 20.5558 18.8368 20.7319C18.4127 20.9081 17.9579 20.9988 17.4985 20.9988C17.0392 20.9988 16.5844 20.9081 16.1602 20.7319C15.7361 20.5558 15.3508 20.2976 15.0267 19.9722C14.4764 19.4241 14.124 18.7087 14.025 17.9384C13.926 17.1681 14.086 16.3868 14.4798 15.7175L12.2814 13.519C11.7395 13.8327 11.1247 13.9987 10.4985 14.0003C10.2185 14.0006 9.93948 13.9676 9.66729 13.9018L6.74698 19.305L6.84542 19.4034C7.17083 19.7276 7.42903 20.1128 7.60521 20.537C7.78139 20.9612 7.87208 21.416 7.87208 21.8753C7.87208 22.3346 7.78139 22.7894 7.60521 23.2136C7.42903 23.6378 7.17083 24.023 6.84542 24.3472C6.52125 24.6726 6.13603 24.9308 5.71184 25.1069C5.28766 25.2831 4.83286 25.3738 4.37354 25.3738C3.91422 25.3738 3.45943 25.2831 3.03524 25.1069C2.61105 24.9308 2.22583 24.6726 1.90167 24.3472C1.57626 24.023 1.31805 23.6378 1.14187 23.2136C0.965692 22.7894 0.875 22.3346 0.875 21.8753C0.875 21.416 0.965692 20.9612 1.14187 20.537C1.31805 20.1128 1.57626 19.7276 1.90167 19.4034C2.32669 18.9788 2.85358 18.6703 3.43191 18.5075C4.01025 18.3448 4.62067 18.3331 5.20479 18.4737L8.1251 13.0706L8.02667 12.9722C7.70126 12.648 7.44305 12.2628 7.26687 11.8386C7.09069 11.4144 7 10.9596 7 10.5003C7 10.041 7.09069 9.58616 7.26687 9.16197C7.44305 8.73779 7.70126 8.35256 8.02667 8.0284C8.62875 7.42383 9.43094 7.06002 10.2824 7.00536C11.1339 6.95071 11.976 7.20896 12.6505 7.73159C13.3249 8.25421 13.7852 9.0052 13.9448 9.84337C14.1045 10.6815 13.9524 11.5491 13.5173 12.2831L15.7157 14.4815C16.5052 14.0217 17.4417 13.8846 18.3298 14.0987L21.2501 8.69559L21.1517 8.59715C20.8263 8.27299 20.5681 7.88776 20.3919 7.46358C20.2157 7.03939 20.125 6.58459 20.125 6.12528C20.125 5.66596 20.2157 5.21116 20.3919 4.78697C20.5681 4.36279 20.8263 3.97756 21.1517 3.6534C21.8175 3.05014 22.6897 2.72602 23.5879 2.74813C24.4861 2.77025 25.3413 3.13691 25.9766 3.7722C26.6119 4.40749 26.9786 5.26276 27.0007 6.16092C27.0228 7.05909 26.6987 7.93137 26.0954 8.59715Z" fill="white"/>
</svg>
