<svg width="24" height="24" viewBox="0 0 24 24" fill="none" xmlns="http://www.w3.org/2000/svg">
<g clip-path="url(#clip0_736_470)">
<path d="M0 1.69336V5.88636H1.828C3.104 5.88636 3.33 6.75136 3.33 7.94436L3.34 15.3564C3.34 19.1964 6.78 22.3074 11.02 22.3074H21.484C22.826 22.3074 24 21.4774 24 20.1994V8.70636C24 4.86636 20.56 1.75636 16.317 1.75636H11.912V1.74336L0 1.69336ZM5.723 4.25936H7.825V14.8204C7.825 16.2334 8.809 17.3304 9.964 17.3304L17.134 17.3604C18.63 17.3604 19.795 16.3504 19.795 15.1544L19.783 9.54736C19.787 9.37696 19.7546 9.20768 19.6881 9.05077C19.6215 8.89386 19.5223 8.75293 19.397 8.63736C19.2795 8.51277 19.1372 8.41421 18.9792 8.34807C18.8213 8.28192 18.6512 8.24966 18.48 8.25336C18.106 8.25336 17.83 8.37336 17.562 8.63736C17.4367 8.75293 17.3375 8.89386 17.2709 9.05077C17.2044 9.20768 17.172 9.37696 17.176 9.54736V14.3454H14.953V9.54836C14.953 9.18436 14.829 8.90036 14.564 8.63836C14.4471 8.51296 14.3049 8.41386 14.1468 8.34765C13.9887 8.28145 13.8183 8.24964 13.647 8.25436C13.281 8.25436 13 8.37436 12.733 8.63836C12.468 8.90036 12.343 9.18436 12.343 9.54836V14.3464H10.12V9.54836C10.12 8.59836 10.48 7.75636 11.162 7.08236C11.4866 6.75422 11.8739 6.49466 12.3008 6.3191C12.7276 6.14354 13.1854 6.05555 13.647 6.06036C14.5475 6.05441 15.4142 6.40281 16.06 7.03036C16.7086 6.40276 17.5775 6.0545 18.48 6.06036C19.434 6.06036 20.283 6.40836 20.965 7.08236C21.297 7.40104 21.5606 7.78409 21.7396 8.20809C21.9186 8.63209 22.0092 9.08814 22.006 9.54836L22.015 15.5394C21.91 16.5434 21.476 17.4334 20.735 18.1764H20.733C20.3203 18.5986 19.8262 18.9327 19.2806 19.1586C18.7351 19.3844 18.1494 19.4973 17.559 19.4904H9.574V19.4524C8.598 19.3494 7.728 18.9334 7.004 18.2354C6.159 17.4104 5.723 16.3894 5.723 15.2254V4.26036V4.25936Z" fill="white"/>
</g>
<defs>
<clipPath id="clip0_736_470">
<rect width="24" height="24" fill="white"/>
</clipPath>
</defs>
</svg>
