<svg width="28" height="28" viewBox="0 0 28 28" fill="none" xmlns="http://www.w3.org/2000/svg">
<path d="M23.3337 13.9997C23.3337 12.7128 22.2872 11.6663 21.0003 11.6663H19.8337V8.16634C19.8337 4.94984 17.2168 2.33301 14.0003 2.33301C10.7838 2.33301 8.16699 4.94984 8.16699 8.16634V11.6663H7.00033C5.71349 11.6663 4.66699 12.7128 4.66699 13.9997V23.333C4.66699 24.6198 5.71349 25.6663 7.00033 25.6663H21.0003C22.2872 25.6663 23.3337 24.6198 23.3337 23.333V13.9997ZM10.5003 8.16634C10.5003 6.23667 12.0707 4.66634 14.0003 4.66634C15.93 4.66634 17.5003 6.23667 17.5003 8.16634V11.6663H10.5003V8.16634Z" fill="url(#paint0_linear_260_6902)"/>
<defs>
<linearGradient id="paint0_linear_260_6902" x1="4.66699" y1="28.583" x2="30.4407" y2="3.59321" gradientUnits="userSpaceOnUse">
<stop stop-color="#00E092"/>
<stop offset="1" stop-color="#00D9F5"/>
<stop offset="1" stop-color="#01D0EB"/>
</linearGradient>
</defs>
</svg>
