<svg width="28" height="28" viewBox="0 0 28 28" fill="none" xmlns="http://www.w3.org/2000/svg">
<mask id="mask0_227_6281" style="mask-type:alpha" maskUnits="userSpaceOnUse" x="1" y="3" width="27" height="23">
<path d="M14.0002 23.3337H4.0835C3.61937 23.3337 3.17425 23.1493 2.84606 22.8211C2.51787 22.4929 2.3335 22.0478 2.3335 21.5837V6.41699C2.3335 5.95286 2.51787 5.50774 2.84606 5.17956C3.17425 4.85137 3.61937 4.66699 4.0835 4.66699H23.9168C24.381 4.66699 24.8261 4.85137 25.1543 5.17956C25.4825 5.50774 25.6668 5.95286 25.6668 6.41699V13.4514" stroke="white" stroke-width="2.66667" stroke-linecap="round" stroke-linejoin="round"/>
<path d="M2.3335 6.41699C2.3335 5.95286 2.51787 5.50774 2.84606 5.17956C3.17425 4.85137 3.61937 4.66699 4.0835 4.66699H23.9168C24.381 4.66699 24.8261 4.85137 25.1543 5.17956C25.4825 5.50774 25.6668 5.95286 25.6668 6.41699V11.667H2.3335V6.41699Z" fill="white" stroke="white" stroke-width="2.66667"/>
<path d="M23.917 19.25H20.417C19.4505 19.25 18.667 20.0335 18.667 21V22.1667C18.667 23.1332 19.4505 23.9167 20.417 23.9167H23.917C24.8835 23.9167 25.667 23.1332 25.667 22.1667V21C25.667 20.0335 24.8835 19.25 23.917 19.25Z" stroke="white" stroke-width="2.66667" stroke-linejoin="round"/>
<path d="M22.167 15.75C22.6311 15.75 23.0762 15.9344 23.4044 16.2626C23.7326 16.5908 23.917 17.0359 23.917 17.5V19.25H20.417V17.5C20.417 17.0359 20.6014 16.5908 20.9296 16.2626C21.2577 15.9344 21.7029 15.75 22.167 15.75Z" stroke="white" stroke-width="2.66667" stroke-linejoin="round"/>
<path d="M4.66667 8.16732C4.66667 7.52299 5.189 7.00065 5.83333 7.00065C6.47767 7.00065 7 7.52299 7 8.16732C7 8.81165 6.47767 9.33398 5.83333 9.33398C5.189 9.33398 4.66667 8.81165 4.66667 8.16732Z" fill="black"/>
<path d="M8.16667 8.16732C8.16667 7.52299 8.689 7.00065 9.33333 7.00065C9.97767 7.00065 10.5 7.52299 10.5 8.16732C10.5 8.81165 9.97767 9.33398 9.33333 9.33398C8.689 9.33398 8.16667 8.81165 8.16667 8.16732Z" fill="black"/>
</mask>
<g mask="url(#mask0_227_6281)">
<path d="M0 0H28V28H0V0Z" fill="white"/>
</g>
</svg>
