<svg width="165" height="49" viewBox="0 0 165 49" fill="none" xmlns="http://www.w3.org/2000/svg">
<rect width="49" height="49" rx="10.5946" fill="url(#paint0_linear_221_7330)"/>
<path d="M40.4824 14.5469H12.1543L11.1973 19.4277H25.2656L22.5859 34.4531H28.1367L29.0938 27.3711H37.0371L37.9941 22.3945H30.1465L30.625 19.4277H39.9082L40.4824 14.5469Z" fill="white"/>
<path d="M11.1973 20.0977H16.6523L15.9824 22.3945H23.9258L23.0645 27.3711H15.4014L15.1211 28.4238L14.0684 34.4531H8.42188L11.1973 20.0977Z" fill="white"/>
<path d="M57 32.5966L59.3732 17.6582H69.8618L69.3745 20.6459H62.8058L62.3185 23.6759H68.3998L67.9336 26.6636H61.8523L60.92 32.5966H57Z" fill="white"/>
<path d="M73.2834 32.8297C72.3087 32.8297 71.4753 32.5754 70.7831 32.0669C70.0909 31.5583 69.5965 30.852 69.2998 29.9479C69.0173 29.0439 68.9679 28.0056 69.1515 26.8331C69.434 25.0815 70.0768 23.7748 71.0797 22.9131C72.0968 22.0373 73.2975 21.5994 74.6819 21.5994C75.5153 21.5994 76.2358 21.7901 76.8432 22.1715C77.4506 22.5388 77.8108 23.0332 77.9238 23.6547L77.7331 23.7395L78.284 21.8325H81.9074C81.7803 22.3128 81.6602 22.8001 81.5472 23.2945C81.4483 23.7889 81.3565 24.2763 81.2717 24.7566L80.0216 32.5966H76.2923L76.5889 30.6684H76.9491C76.6383 31.3182 76.1651 31.8408 75.5294 32.2364C74.9079 32.6319 74.1592 32.8297 73.2834 32.8297ZM74.6607 30.0327C75.2822 30.0327 75.812 29.8208 76.2499 29.397C76.6878 28.9591 76.9774 28.2881 77.1186 27.384C77.2882 26.2963 77.2034 25.5265 76.8644 25.0744C76.5395 24.6224 76.0451 24.3964 75.3811 24.3964C74.7596 24.3964 74.2298 24.6083 73.7919 25.032C73.3682 25.4558 73.0786 26.1268 72.9232 27.045C72.7537 28.1186 72.8314 28.8885 73.1563 29.3546C73.4953 29.8067 73.9968 30.0327 74.6607 30.0327Z" fill="white"/>
<path d="M86.7291 32.8297C85.7685 32.8297 84.8927 32.7378 84.1016 32.5542C83.3247 32.3564 82.689 32.0951 82.1946 31.7702L83.1693 29.3123C83.692 29.5948 84.2782 29.8279 84.928 30.0115C85.5919 30.1951 86.2488 30.287 86.8986 30.287C87.4354 30.287 87.838 30.2093 88.1064 30.0539C88.3748 29.8985 88.5302 29.6866 88.5726 29.4182C88.6149 29.1922 88.5655 29.0085 88.4242 28.8673C88.283 28.726 88.064 28.6271 87.7674 28.5706L85.7968 28.274C84.7797 28.1186 84.0593 27.7584 83.6355 27.1933C83.2117 26.6142 83.0704 25.8796 83.2117 24.9897C83.3247 24.2551 83.6143 23.6336 84.0804 23.125C84.5466 22.6165 85.147 22.2351 85.8815 21.9808C86.6161 21.7265 87.4283 21.5994 88.3183 21.5994C89.1235 21.5994 89.8792 21.6841 90.5855 21.8537C91.2918 22.0091 91.8922 22.2704 92.3866 22.6377L91.3271 25.0109C90.9316 24.7566 90.4513 24.5447 89.8863 24.3752C89.3354 24.2057 88.8127 24.1209 88.3183 24.1209C87.7391 24.1209 87.3083 24.2057 87.0257 24.3752C86.7432 24.5447 86.5808 24.7636 86.5384 25.032C86.5101 25.2298 86.5525 25.4064 86.6655 25.5618C86.7785 25.7172 86.9834 25.816 87.28 25.8584L89.2718 26.1763C90.303 26.3316 91.0305 26.6848 91.4543 27.2357C91.8922 27.7725 92.0405 28.5 91.8993 29.4182C91.7721 30.181 91.4684 30.8167 90.9881 31.3252C90.522 31.8338 89.9216 32.2152 89.187 32.4694C88.4525 32.7096 87.6332 32.8297 86.7291 32.8297Z" fill="white"/>
<path d="M98.4886 32.8297C96.9347 32.8297 95.8329 32.4483 95.1831 31.6854C94.5474 30.9085 94.3355 29.8208 94.5474 28.4223L95.1619 24.6083H93.1489L93.5939 21.8325H95.6069L96.0095 19.2898L99.9295 18.3998L99.3785 21.8325H102.006L101.561 24.6083H98.9336L98.3615 28.274C98.2626 28.8673 98.3403 29.2769 98.5945 29.503C98.8629 29.7149 99.202 29.8208 99.6116 29.8208C99.8376 29.8208 100.028 29.8067 100.184 29.7784C100.353 29.736 100.551 29.6795 100.777 29.6089L100.311 32.5118C99.986 32.639 99.6681 32.7237 99.3574 32.7661C99.0607 32.8085 98.7711 32.8297 98.4886 32.8297Z" fill="white"/>
<path d="M101.965 32.5966L104.338 17.6582H114.827L114.339 20.6459H107.771L107.283 23.6759H113.365L112.899 26.6636H106.817L105.885 32.5966H101.965Z" fill="white"/>
<path d="M119.433 32.8297C118.162 32.8297 117.102 32.5895 116.255 32.1092C115.407 31.6148 114.807 30.9226 114.453 30.0327C114.1 29.1286 114.016 28.0621 114.199 26.8331C114.383 25.6748 114.771 24.7071 115.365 23.9302C115.958 23.1533 116.7 22.5741 117.589 22.1927C118.494 21.7972 119.497 21.5994 120.598 21.5994C121.884 21.5994 122.943 21.8466 123.777 22.341C124.61 22.8213 125.203 23.5064 125.557 24.3964C125.91 25.2863 125.987 26.3528 125.79 27.5959C125.606 28.7543 125.218 29.7219 124.624 30.4989C124.045 31.2758 123.311 31.862 122.421 32.2576C121.531 32.639 120.535 32.8297 119.433 32.8297ZM119.645 30.0327C120.238 30.0327 120.747 29.8208 121.17 29.397C121.594 28.9591 121.884 28.2881 122.039 27.384C122.209 26.2963 122.131 25.5265 121.806 25.0744C121.481 24.6224 121.001 24.3964 120.365 24.3964C119.758 24.3964 119.242 24.6083 118.818 25.032C118.409 25.4558 118.126 26.1268 117.971 27.045C117.801 28.1186 117.872 28.8885 118.183 29.3546C118.508 29.8067 118.995 30.0327 119.645 30.0327Z" fill="white"/>
<path d="M126.853 32.5966L128.103 24.7778C128.174 24.2834 128.23 23.7889 128.273 23.2945C128.329 22.8001 128.372 22.3128 128.4 21.8325H132.023L131.917 25.138H131.282C131.55 24.3328 131.882 23.6689 132.278 23.1462C132.687 22.6235 133.153 22.2351 133.676 21.9808C134.199 21.7265 134.771 21.5994 135.392 21.5994C135.618 21.5994 135.823 21.6135 136.007 21.6418C136.191 21.6559 136.36 21.6771 136.515 21.7053L135.964 25.032C135.682 24.9049 135.428 24.8201 135.202 24.7778C134.99 24.7354 134.714 24.7142 134.375 24.7142C133.895 24.7142 133.45 24.8201 133.04 25.032C132.645 25.2298 132.306 25.5406 132.023 25.9644C131.741 26.374 131.55 26.9179 131.451 27.5959L130.667 32.5966H126.853Z" fill="white"/>
<path d="M140.519 37.343C139.459 37.343 138.534 37.2441 137.743 37.0463C136.952 36.8627 136.245 36.5731 135.624 36.1776L136.577 33.4865C136.902 33.7125 137.277 33.9032 137.7 34.0586C138.138 34.214 138.583 34.3341 139.035 34.4189C139.501 34.5036 139.953 34.546 140.391 34.546C141.366 34.546 142.087 34.3341 142.553 33.9103C143.033 33.5007 143.337 32.9144 143.464 32.1516L143.76 30.2658H143.972C143.704 30.8591 143.252 31.3464 142.616 31.7278C141.995 32.1092 141.253 32.2999 140.391 32.2999C139.431 32.2999 138.597 32.081 137.891 31.6431C137.199 31.191 136.69 30.5412 136.365 29.6937C136.055 28.832 136.005 27.7937 136.217 26.5789C136.486 24.9402 137.114 23.7042 138.103 22.8707C139.092 22.0232 140.3 21.5994 141.726 21.5994C142.56 21.5994 143.28 21.783 143.888 22.1503C144.495 22.5176 144.855 23.0049 144.968 23.6124L144.82 23.57L145.328 21.8325H148.952C148.811 22.3128 148.683 22.8001 148.57 23.2945C148.472 23.7889 148.387 24.2763 148.316 24.7566L147.214 31.7278C146.918 33.536 146.211 34.9203 145.095 35.8809C143.979 36.8556 142.454 37.343 140.519 37.343ZM141.747 29.5241C142.411 29.5241 142.955 29.3123 143.379 28.8885C143.817 28.4506 144.099 27.829 144.227 27.0238C144.354 26.148 144.255 25.4911 143.93 25.0532C143.605 24.6153 143.118 24.3964 142.468 24.3964C141.804 24.3964 141.253 24.6153 140.815 25.0532C140.391 25.477 140.109 26.0986 139.968 26.9179C139.84 27.7654 139.939 28.4152 140.264 28.8673C140.589 29.3052 141.084 29.5241 141.747 29.5241Z" fill="white"/>
<path d="M155.405 32.8297C154.035 32.8297 152.905 32.5754 152.015 32.0669C151.125 31.5442 150.489 30.8308 150.108 29.9267C149.741 29.0085 149.649 27.9562 149.832 26.7696C150.002 25.7101 150.348 24.799 150.871 24.0361C151.407 23.2592 152.085 22.6589 152.905 22.2351C153.738 21.8113 154.685 21.5994 155.744 21.5994C156.846 21.5994 157.75 21.8395 158.456 22.3198C159.177 22.786 159.685 23.4358 159.982 24.2692C160.279 25.0885 160.335 26.035 160.151 27.1086L160.046 27.8502H152.82L153.095 26.0703H157.545L157.121 26.4517C157.249 25.6465 157.178 25.0532 156.91 24.6718C156.641 24.2763 156.217 24.0785 155.638 24.0785C155.214 24.0785 154.854 24.1774 154.558 24.3752C154.261 24.5729 154.021 24.8484 153.837 25.2016C153.653 25.5406 153.526 25.9291 153.456 26.367L153.307 27.2993C153.194 28.1751 153.336 28.8532 153.731 29.3334C154.141 29.7996 154.882 30.0327 155.956 30.0327C156.436 30.0327 156.895 29.9691 157.333 29.842C157.785 29.7149 158.251 29.51 158.732 29.2275L159.685 31.6854C159.078 32.081 158.414 32.3706 157.694 32.5542C156.973 32.7378 156.21 32.8297 155.405 32.8297Z" fill="white"/>
<defs>
<linearGradient id="paint0_linear_221_7330" x1="-7.62101e-07" y1="55.125" x2="53.165" y2="-9.31" gradientUnits="userSpaceOnUse">
<stop stop-color="#00E092"/>
<stop offset="1" stop-color="#00D9F5"/>
<stop offset="1" stop-color="#01D0EB"/>
</linearGradient>
</defs>
</svg>
