<svg width="123" height="38" viewBox="0 0 123 38" fill="none" xmlns="http://www.w3.org/2000/svg">
<rect y="0.5" width="37" height="37" rx="8" fill="url(#paint0_linear_725_4)"/>
<path d="M30.5684 11.4844H9.17773L8.45508 15.1699H19.0781L17.0547 26.5156H21.2461L21.9688 21.168H27.9668L28.6895 17.4102H22.7637L23.125 15.1699H30.1348L30.5684 11.4844Z" fill="white"/>
<path d="M12.5742 15.6758H8.45508L6.35938 26.5156H10.623L11.418 21.9629L11.5 21.5L11.5436 21.168H17.416L18.0664 17.4102H12.0684L12.5742 15.6758Z" fill="white"/>
<path d="M45 24.8484L46.792 13.5684H54.712L54.344 15.8244H49.384L49.016 18.1124H53.608L53.256 20.3684H48.664L47.96 24.8484H45Z" fill="#1D1D1B"/>
<path d="M57.2956 25.0244C56.5596 25.0244 55.9303 24.8324 55.4076 24.4484C54.885 24.0644 54.5116 23.531 54.2876 22.8484C54.0743 22.1657 54.037 21.3817 54.1756 20.4964C54.389 19.1737 54.8743 18.187 55.6316 17.5364C56.3996 16.875 57.3063 16.5444 58.3516 16.5444C58.981 16.5444 59.525 16.6884 59.9836 16.9764C60.4423 17.2537 60.7143 17.627 60.7996 18.0964L60.6556 18.1604L61.0716 16.7204H63.8076C63.7116 17.083 63.621 17.451 63.5356 17.8244C63.461 18.1977 63.3916 18.5657 63.3276 18.9284L62.3836 24.8484H59.5676L59.7916 23.3924H60.0636C59.829 23.883 59.4716 24.2777 58.9916 24.5764C58.5223 24.875 57.957 25.0244 57.2956 25.0244ZM58.3356 22.9124C58.805 22.9124 59.205 22.7524 59.5356 22.4324C59.8663 22.1017 60.085 21.595 60.1916 20.9124C60.3196 20.091 60.2556 19.5097 59.9996 19.1684C59.7543 18.827 59.381 18.6564 58.8796 18.6564C58.4103 18.6564 58.0103 18.8164 57.6796 19.1364C57.3596 19.4564 57.141 19.963 57.0236 20.6564C56.8956 21.467 56.9543 22.0484 57.1996 22.4004C57.4556 22.7417 57.8343 22.9124 58.3356 22.9124Z" fill="#1D1D1B"/>
<path d="M67.4485 25.0244C66.7232 25.0244 66.0618 24.955 65.4645 24.8164C64.8778 24.667 64.3978 24.4697 64.0245 24.2244L64.7605 22.3684C65.1552 22.5817 65.5978 22.7577 66.0885 22.8964C66.5898 23.035 67.0858 23.1044 67.5765 23.1044C67.9818 23.1044 68.2858 23.0457 68.4885 22.9284C68.6912 22.811 68.8085 22.651 68.8405 22.4484C68.8725 22.2777 68.8352 22.139 68.7285 22.0324C68.6218 21.9257 68.4565 21.851 68.2325 21.8084L66.7445 21.5844C65.9765 21.467 65.4325 21.195 65.1125 20.7684C64.7925 20.331 64.6858 19.7764 64.7925 19.1044C64.8778 18.5497 65.0965 18.0804 65.4485 17.6964C65.8005 17.3124 66.2538 17.0244 66.8085 16.8324C67.3632 16.6404 67.9765 16.5444 68.6485 16.5444C69.2565 16.5444 69.8272 16.6084 70.3605 16.7364C70.8938 16.8537 71.3472 17.051 71.7205 17.3284L70.9205 19.1204C70.6218 18.9284 70.2592 18.7684 69.8325 18.6404C69.4165 18.5124 69.0218 18.4484 68.6485 18.4484C68.2112 18.4484 67.8858 18.5124 67.6725 18.6404C67.4592 18.7684 67.3365 18.9337 67.3045 19.1364C67.2832 19.2857 67.3152 19.419 67.4005 19.5364C67.4858 19.6537 67.6405 19.7284 67.8645 19.7604L69.3685 20.0004C70.1472 20.1177 70.6965 20.3844 71.0165 20.8004C71.3472 21.2057 71.4592 21.755 71.3525 22.4484C71.2565 23.0244 71.0272 23.5044 70.6645 23.8884C70.3125 24.2724 69.8592 24.5604 69.3045 24.7524C68.7498 24.9337 68.1312 25.0244 67.4485 25.0244Z" fill="#1D1D1B"/>
<path d="M76.3281 25.0244C75.1548 25.0244 74.3228 24.7364 73.8321 24.1604C73.3521 23.5737 73.1921 22.7524 73.3521 21.6964L73.8161 18.8164H72.2961L72.6321 16.7204H74.1521L74.4561 14.8004L77.4161 14.1284L77.0001 16.7204H78.9841L78.6481 18.8164H76.6641L76.2321 21.5844C76.1575 22.0324 76.2161 22.3417 76.4081 22.5124C76.6108 22.6724 76.8668 22.7524 77.1761 22.7524C77.3468 22.7524 77.4908 22.7417 77.6081 22.7204C77.7361 22.6884 77.8855 22.6457 78.0561 22.5924L77.7041 24.7844C77.4588 24.8804 77.2188 24.9444 76.9841 24.9764C76.7601 25.0084 76.5415 25.0244 76.3281 25.0244Z" fill="#1D1D1B"/>
<path d="M78.9531 24.8484L80.7451 13.5684H88.6651L88.2971 15.8244H83.3371L82.9691 18.1124H87.5611L87.2091 20.3684H82.6171L81.9131 24.8484H78.9531Z" fill="#1D1D1B"/>
<path d="M92.1432 25.0244C91.1833 25.0244 90.3833 24.843 89.7433 24.4804C89.1033 24.107 88.6499 23.5844 88.3833 22.9124C88.1166 22.2297 88.0526 21.4244 88.1912 20.4964C88.3299 19.6217 88.6232 18.891 89.0713 18.3044C89.5192 17.7177 90.0793 17.2804 90.7513 16.9924C91.4339 16.6937 92.1912 16.5444 93.0233 16.5444C93.9939 16.5444 94.7939 16.731 95.4233 17.1044C96.0526 17.467 96.5006 17.9844 96.7673 18.6564C97.0339 19.3284 97.0926 20.1337 96.9432 21.0724C96.8046 21.947 96.5113 22.6777 96.0633 23.2644C95.6259 23.851 95.0713 24.2937 94.3993 24.5924C93.7272 24.8804 92.9753 25.0244 92.1432 25.0244ZM92.3032 22.9124C92.7513 22.9124 93.1353 22.7524 93.4552 22.4324C93.7752 22.1017 93.9939 21.595 94.1113 20.9124C94.2393 20.091 94.1806 19.5097 93.9352 19.1684C93.6899 18.827 93.3273 18.6564 92.8473 18.6564C92.3886 18.6564 91.9992 18.8164 91.6792 19.1364C91.3699 19.4564 91.1566 19.963 91.0392 20.6564C90.9113 21.467 90.9646 22.0484 91.1992 22.4004C91.4446 22.7417 91.8126 22.9124 92.3032 22.9124Z" fill="#1D1D1B"/>
<path d="M97.7463 24.8484L98.6903 18.9444C98.7436 18.571 98.7862 18.1977 98.8182 17.8244C98.8609 17.451 98.8929 17.083 98.9142 16.7204H101.65L101.57 19.2164H101.09C101.293 18.6084 101.544 18.107 101.842 17.7124C102.152 17.3177 102.504 17.0244 102.898 16.8324C103.293 16.6404 103.725 16.5444 104.194 16.5444C104.365 16.5444 104.52 16.555 104.658 16.5764C104.797 16.587 104.925 16.603 105.042 16.6244L104.626 19.1364C104.413 19.0404 104.221 18.9764 104.05 18.9444C103.89 18.9124 103.682 18.8964 103.426 18.8964C103.064 18.8964 102.728 18.9764 102.418 19.1364C102.12 19.2857 101.864 19.5204 101.65 19.8404C101.437 20.1497 101.293 20.5604 101.218 21.0724L100.626 24.8484H97.7463Z" fill="#1D1D1B"/>
<path d="M108.065 28.4324C107.265 28.4324 106.566 28.3577 105.969 28.2084C105.372 28.0697 104.838 27.851 104.369 27.5524L105.089 25.5204C105.334 25.691 105.617 25.835 105.937 25.9524C106.268 26.0697 106.604 26.1604 106.945 26.2244C107.297 26.2884 107.638 26.3204 107.969 26.3204C108.705 26.3204 109.249 26.1604 109.601 25.8404C109.964 25.531 110.193 25.0884 110.289 24.5124L110.513 23.0884H110.673C110.47 23.5364 110.129 23.9044 109.649 24.1924C109.18 24.4804 108.62 24.6244 107.969 24.6244C107.244 24.6244 106.614 24.459 106.081 24.1284C105.558 23.787 105.174 23.2964 104.929 22.6564C104.694 22.0057 104.657 21.2217 104.817 20.3044C105.02 19.067 105.494 18.1337 106.241 17.5044C106.988 16.8644 107.9 16.5444 108.977 16.5444C109.606 16.5444 110.15 16.683 110.609 16.9604C111.068 17.2377 111.34 17.6057 111.425 18.0644L111.313 18.0324L111.697 16.7204H114.433C114.326 17.083 114.23 17.451 114.145 17.8244C114.07 18.1977 114.006 18.5657 113.953 18.9284L113.121 24.1924C112.897 25.5577 112.364 26.603 111.521 27.3284C110.678 28.0644 109.526 28.4324 108.065 28.4324ZM108.993 22.5284C109.494 22.5284 109.905 22.3684 110.225 22.0484C110.556 21.7177 110.769 21.2484 110.865 20.6404C110.961 19.979 110.886 19.483 110.641 19.1524C110.396 18.8217 110.028 18.6564 109.537 18.6564C109.036 18.6564 108.62 18.8217 108.289 19.1524C107.969 19.4724 107.756 19.9417 107.649 20.5604C107.553 21.2004 107.628 21.691 107.873 22.0324C108.118 22.363 108.492 22.5284 108.993 22.5284Z" fill="#1D1D1B"/>
<path d="M119.306 25.0244C118.271 25.0244 117.418 24.8324 116.746 24.4484C116.074 24.0537 115.594 23.515 115.306 22.8324C115.029 22.139 114.959 21.3444 115.098 20.4484C115.226 19.6484 115.487 18.9604 115.882 18.3844C116.287 17.7977 116.799 17.3444 117.418 17.0244C118.047 16.7044 118.762 16.5444 119.562 16.5444C120.394 16.5444 121.077 16.7257 121.61 17.0884C122.154 17.4404 122.538 17.931 122.762 18.5604C122.986 19.179 123.029 19.8937 122.89 20.7044L122.81 21.2644H117.354L117.562 19.9204H120.922L120.602 20.2084C120.698 19.6004 120.645 19.1524 120.442 18.8644C120.239 18.5657 119.919 18.4164 119.482 18.4164C119.162 18.4164 118.89 18.491 118.666 18.6404C118.442 18.7897 118.261 18.9977 118.122 19.2644C117.983 19.5204 117.887 19.8137 117.834 20.1444L117.722 20.8484C117.637 21.5097 117.743 22.0217 118.042 22.3844C118.351 22.7364 118.911 22.9124 119.722 22.9124C120.085 22.9124 120.431 22.8644 120.762 22.7684C121.103 22.6724 121.455 22.5177 121.818 22.3044L122.538 24.1604C122.079 24.459 121.578 24.6777 121.034 24.8164C120.49 24.955 119.914 25.0244 119.306 25.0244Z" fill="#1D1D1B"/>
<defs>
<linearGradient id="paint0_linear_725_4" x1="-5.75464e-07" y1="42.125" x2="40.145" y2="-6.53" gradientUnits="userSpaceOnUse">
<stop stop-color="#00E092"/>
<stop offset="1" stop-color="#00D9F5"/>
<stop offset="1" stop-color="#01D0EB"/>
</linearGradient>
</defs>
</svg>
