<svg width="28" height="28" viewBox="0 0 28 28" fill="none" xmlns="http://www.w3.org/2000/svg">
<path d="M12.2354 15.0257C11.9503 15.0129 11.6652 15 11.3672 15C8.2311 15 5.30238 15.8614 2.8013 17.34C1.66091 18.0086 1 19.2686 1 20.5929V22.7143C1 23.4214 1.58315 24 2.2959 24H13C12.0847 22.7046 11.5317 21.1916 11.3974 19.6152C11.2631 18.0388 11.5523 16.4552 12.2354 15.0257Z" fill="white"/>
<path d="M11.5 14C14.5376 14 17 11.5376 17 8.5C17 5.46243 14.5376 3 11.5 3C8.46243 3 6 5.46243 6 8.5C6 11.5376 8.46243 14 11.5 14Z" fill="white"/>
<path d="M25.6849 18.5C25.6849 18.2134 25.6433 17.9529 25.6017 17.6794L26.7663 16.7285C27.0158 16.52 27.0713 16.1814 26.9049 15.9078L26.087 14.5792C26.0086 14.4483 25.8835 14.3478 25.7338 14.2953C25.5841 14.2429 25.4194 14.2419 25.269 14.2926L23.7995 14.7615C23.3559 14.4098 22.8568 14.1363 22.3022 13.9409L21.9973 12.521C21.9646 12.3743 21.8793 12.2425 21.7557 12.1476C21.632 12.0528 21.4775 12.0007 21.3179 12H19.6821C19.3493 12 19.0721 12.2214 19.0027 12.521L18.6978 13.9409C18.1432 14.1363 17.6441 14.4098 17.2005 14.7615L15.731 14.2926C15.5804 14.244 15.4166 14.246 15.2674 14.2983C15.1182 14.3505 14.993 14.4498 14.913 14.5792L14.0951 15.9078C13.9287 16.1814 13.9842 16.52 14.2337 16.7285L15.3983 17.6794C15.3567 17.9529 15.3151 18.2134 15.3151 18.5C15.3151 18.7866 15.3567 19.0471 15.3983 19.3206L14.2337 20.2715C13.9842 20.48 13.9287 20.8186 14.0951 21.0922L14.913 22.4208C15.0794 22.6944 15.426 22.8116 15.731 22.7074L17.2005 22.2385C17.6441 22.5902 18.1432 22.8637 18.6978 23.0591L19.0027 24.479C19.0721 24.7786 19.3493 25 19.6821 25H21.3179C21.6507 25 21.9279 24.7786 21.9973 24.479L22.3022 23.0591C22.8568 22.8637 23.3559 22.5902 23.7995 22.2385L25.269 22.7074C25.5879 22.8116 25.9206 22.6814 26.087 22.4208L26.9049 21.0922C27.0713 20.8186 27.0158 20.48 26.7663 20.2715L25.6017 19.3206C25.6433 19.0471 25.6849 18.7866 25.6849 18.5ZM20.4861 21.1052C18.9612 21.1052 17.7134 19.9329 17.7134 18.5C17.7134 17.0671 18.9612 15.8948 20.4861 15.8948C22.0111 15.8948 23.2588 17.0671 23.2588 18.5C23.2588 19.9329 22.0111 21.1052 20.4861 21.1052Z" fill="white"/>
</svg>
