<svg width="34" height="28" viewBox="0 0 34 28" fill="none" xmlns="http://www.w3.org/2000/svg">
<path d="M32.3 1.7002H1.7C0.761281 1.7002 0 2.46148 0 3.4002V23.8002C0 24.7389 0.761281 25.5002 1.7 25.5002H32.3C33.2387 25.5002 34 24.7389 34 23.8002V3.4002C34 2.46148 33.2387 1.7002 32.3 1.7002ZM9.35 17.4188V18.2752C9.35 18.51 9.15981 18.7002 8.925 18.7002H8.075C7.84019 18.7002 7.65 18.51 7.65 18.2752V17.4098C7.05022 17.379 6.46691 17.1697 5.98347 16.8068C5.77628 16.6512 5.76566 16.3409 5.95319 16.1619L6.57741 15.5664C6.72456 15.4261 6.94344 15.4197 7.11556 15.5276C7.32116 15.6561 7.55437 15.7252 7.79663 15.7252H9.28997C9.63528 15.7252 9.91684 15.4107 9.91684 15.0245C9.91684 14.7084 9.72506 14.43 9.45094 14.3482L7.06031 13.631C6.07272 13.3346 5.38263 12.3868 5.38263 11.3259C5.38263 10.0233 6.39466 8.96504 7.64947 8.93157V8.0752C7.64947 7.84038 7.83966 7.6502 8.07447 7.6502H8.92447C9.15928 7.6502 9.34947 7.84038 9.34947 8.0752V8.9406C9.94925 8.97141 10.5326 9.1802 11.016 9.54357C11.2232 9.69923 11.2338 10.0095 11.0463 10.1885L10.4221 10.784C10.2749 10.9243 10.056 10.9307 9.88391 10.8228C9.67831 10.6937 9.44509 10.6252 9.20284 10.6252H7.7095C7.36419 10.6252 7.08263 10.9397 7.08263 11.3259C7.08263 11.642 7.27441 11.9204 7.54853 12.0022L9.93916 12.7194C10.9268 13.0158 11.6168 13.9636 11.6168 15.0245C11.6168 16.3276 10.6048 17.3854 9.35 17.4188ZM22.1 16.5752C22.1 16.81 21.9098 17.0002 21.675 17.0002H15.725C15.4902 17.0002 15.3 16.81 15.3 16.5752V15.7252C15.3 15.4904 15.4902 15.3002 15.725 15.3002H21.675C21.9098 15.3002 22.1 15.4904 22.1 15.7252V16.5752ZM30.6 16.5752C30.6 16.81 30.4098 17.0002 30.175 17.0002H25.925C25.6902 17.0002 25.5 16.81 25.5 16.5752V15.7252C25.5 15.4904 25.6902 15.3002 25.925 15.3002H30.175C30.4098 15.3002 30.6 15.4904 30.6 15.7252V16.5752ZM30.6 11.4752C30.6 11.71 30.4098 11.9002 30.175 11.9002H15.725C15.4902 11.9002 15.3 11.71 15.3 11.4752V10.6252C15.3 10.3904 15.4902 10.2002 15.725 10.2002H30.175C30.4098 10.2002 30.6 10.3904 30.6 10.6252V11.4752Z" fill="url(#paint0_linear_233_5333)"/>
<defs>
<linearGradient id="paint0_linear_233_5333" x1="-5.28805e-07" y1="28.4752" x2="22.7822" y2="-10.97" gradientUnits="userSpaceOnUse">
<stop stop-color="#00E092"/>
<stop offset="1" stop-color="#00D9F5"/>
<stop offset="1" stop-color="#01D0EB"/>
</linearGradient>
</defs>
</svg>
