<svg width="35" height="28" viewBox="0 0 35 28" fill="none" xmlns="http://www.w3.org/2000/svg">
<path d="M33.25 1.75H1.75C0.783672 1.75 0 2.53367 0 3.5V24.5C0 25.4663 0.783672 26.25 1.75 26.25H33.25C34.2163 26.25 35 25.4663 35 24.5V3.5C35 2.53367 34.2163 1.75 33.25 1.75ZM9.625 17.9309V18.8125C9.625 19.0542 9.42922 19.25 9.1875 19.25H8.3125C8.07078 19.25 7.875 19.0542 7.875 18.8125V17.9216C7.25758 17.8899 6.65711 17.6745 6.15945 17.3009C5.94617 17.1407 5.93523 16.8213 6.12828 16.637L6.77086 16.024C6.92234 15.8796 7.14766 15.873 7.32484 15.9841C7.53648 16.1164 7.77656 16.1875 8.02594 16.1875H9.5632C9.91867 16.1875 10.2085 15.8637 10.2085 15.4662C10.2085 15.1408 10.0111 14.8542 9.72891 14.77L7.26797 14.0317C6.25133 13.7266 5.54094 12.7509 5.54094 11.6588C5.54094 10.3179 6.58273 9.22852 7.87445 9.19406V8.3125C7.87445 8.07078 8.07023 7.875 8.31195 7.875H9.18695C9.42867 7.875 9.62445 8.07078 9.62445 8.3125V9.20336C10.2419 9.23508 10.8423 9.45 11.34 9.82406C11.5533 9.9843 11.5642 10.3037 11.3712 10.488L10.7286 11.101C10.5771 11.2454 10.3518 11.252 10.1746 11.1409C9.96297 11.008 9.72289 10.9375 9.47352 10.9375H7.93625C7.58078 10.9375 7.29094 11.2613 7.29094 11.6588C7.29094 11.9842 7.48836 12.2708 7.77055 12.355L10.2315 13.0933C11.2481 13.3984 11.9585 14.3741 11.9585 15.4662C11.9585 16.8077 10.9167 17.8965 9.625 17.9309ZM22.75 17.0625C22.75 17.3042 22.5542 17.5 22.3125 17.5H16.1875C15.9458 17.5 15.75 17.3042 15.75 17.0625V16.1875C15.75 15.9458 15.9458 15.75 16.1875 15.75H22.3125C22.5542 15.75 22.75 15.9458 22.75 16.1875V17.0625ZM31.5 17.0625C31.5 17.3042 31.3042 17.5 31.0625 17.5H26.6875C26.4458 17.5 26.25 17.3042 26.25 17.0625V16.1875C26.25 15.9458 26.4458 15.75 26.6875 15.75H31.0625C31.3042 15.75 31.5 15.9458 31.5 16.1875V17.0625ZM31.5 11.8125C31.5 12.0542 31.3042 12.25 31.0625 12.25H16.1875C15.9458 12.25 15.75 12.0542 15.75 11.8125V10.9375C15.75 10.6958 15.9458 10.5 16.1875 10.5H31.0625C31.3042 10.5 31.5 10.6958 31.5 10.9375V11.8125Z" fill="white"/>
</svg>
