<svg width="28" height="28" viewBox="0 0 28 28" fill="none" xmlns="http://www.w3.org/2000/svg">
<path d="M17.628 14.5246L16.333 11.9463L12.7047 19.1913C12.518 19.588 12.1097 19.833 11.6663 19.833C11.223 19.833 10.8147 19.588 10.628 19.1913L8.60967 15.1663H2.33301V23.333H25.6663V15.1663H18.6663C18.223 15.1663 17.8147 14.9213 17.628 14.5246Z" fill="white"/>
<path d="M25.6663 4.66699H2.33301V12.8337H9.33301C9.77634 12.8337 10.1847 13.0787 10.3713 13.4753L11.6663 16.0537L15.2947 8.80866C15.3914 8.61452 15.5404 8.4512 15.7249 8.33704C15.9093 8.22288 16.1219 8.1624 16.3388 8.1624C16.5558 8.1624 16.7684 8.22288 16.9528 8.33704C17.1373 8.4512 17.2862 8.61452 17.383 8.80866L19.3897 12.8337H25.6663V4.66699Z" fill="white"/>
</svg>
