<svg width="28" height="28" viewBox="0 0 28 28" fill="none" xmlns="http://www.w3.org/2000/svg">
<g clip-path="url(#clip0_227_6302)">
<path d="M26.3746 14.3654L23.9401 6.541C23.8421 6.22351 23.645 5.94575 23.3777 5.74841C23.1103 5.55106 22.7868 5.4445 22.4546 5.44434H5.54566C5.21339 5.4445 4.88989 5.55106 4.62257 5.74841C4.35524 5.94575 4.15813 6.22351 4.06011 6.541L1.62566 14.3732C1.57951 14.5218 1.55591 14.6765 1.55566 14.8321V20.9999C1.55566 21.4124 1.71955 21.8081 2.01128 22.0998C2.303 22.3916 2.69866 22.5554 3.11122 22.5554H24.889C25.3016 22.5554 25.6972 22.3916 25.9889 22.0998C26.2807 21.8081 26.4446 21.4124 26.4446 20.9999V14.8243C26.4443 14.6687 26.4207 14.514 26.3746 14.3654ZM6.93789 19.4443H5.53789V17.111H6.93789V19.4443ZM10.8268 19.4443H9.42678V17.111H10.8268V19.4443ZM14.7157 19.4443H13.3157V17.111H14.7157V19.4443ZM18.6046 19.4443H17.189V17.111H18.589L18.6046 19.4443ZM22.4934 19.4443H21.0779V17.111H22.4779L22.4934 19.4443ZM24.1112 15.0888H3.889V13.9999H24.1112V15.0888Z" fill="white"/>
</g>
<defs>
<clipPath id="clip0_227_6302">
<rect width="28" height="28" fill="white"/>
</clipPath>
</defs>
</svg>
