<svg width="28" height="28" viewBox="0 0 28 28" fill="none" xmlns="http://www.w3.org/2000/svg">
<path d="M13.835 21.1125C14.2187 21.1125 14.5406 20.9824 14.8007 20.7224C15.0598 20.4633 15.1894 20.1418 15.1894 19.7581V14.3406C15.1894 13.9569 15.0598 13.635 14.8007 13.3749C14.5406 13.1158 14.2187 12.9862 13.835 12.9862C13.4513 12.9862 13.1298 13.1158 12.8707 13.3749C12.6106 13.635 12.4806 13.9569 12.4806 14.3406V19.7581C12.4806 20.1418 12.6106 20.4633 12.8707 20.7224C13.1298 20.9824 13.4513 21.1125 13.835 21.1125ZM13.835 10.2775C14.2187 10.2775 14.5406 10.1474 14.8007 9.88741C15.0598 9.62827 15.1894 9.30683 15.1894 8.92309C15.1894 8.53935 15.0598 8.21746 14.8007 7.95742C14.5406 7.69829 14.2187 7.56872 13.835 7.56872C13.4513 7.56872 13.1298 7.69829 12.8707 7.95742C12.6106 8.21746 12.4806 8.53935 12.4806 8.92309C12.4806 9.30683 12.6106 9.62827 12.8707 9.88741C13.1298 10.1474 13.4513 10.2775 13.835 10.2775ZM13.835 27.7828H13.4964C13.3835 27.7828 13.282 27.7602 13.1917 27.715C10.2346 26.7896 7.79674 24.9553 5.87805 22.2122C3.95935 19.4701 3 16.4399 3 13.1217V6.72223C3 6.15791 3.16388 5.65002 3.49164 5.19856C3.81849 4.7471 4.24151 4.4198 4.76069 4.21664L12.8869 1.1693C13.203 1.05643 13.519 1 13.835 1C14.151 1 14.467 1.05643 14.7831 1.1693L22.9093 4.21664C23.4285 4.4198 23.852 4.7471 24.1797 5.19856C24.5066 5.65002 24.67 6.15791 24.67 6.72223V13.1217C24.67 16.4399 23.7107 19.4701 21.792 22.2122C19.8733 24.9553 17.4354 26.7896 14.4783 27.715C14.3655 27.7602 14.151 27.7828 13.835 27.7828Z" fill="white"/>
</svg>
