<svg width="32" height="32" viewBox="0 0 32 32" fill="none" xmlns="http://www.w3.org/2000/svg">
<path d="M30.6281 3.574C30.6281 2.62612 30.2515 1.71706 29.5813 1.0468C28.911 0.376545 28.0019 0 27.0541 0C26.1062 0 25.1971 0.376545 24.5269 1.0468C23.8566 1.71706 23.4801 2.62612 23.4801 3.574V3.68333L7.90272 8.71267C7.55633 8.20328 7.08414 7.79209 6.53198 7.519C5.97982 7.24591 5.36643 7.1202 4.75136 7.15407C4.13629 7.18795 3.54041 7.38025 3.02158 7.71232C2.50274 8.04438 2.07856 8.50494 1.7902 9.04928C1.50184 9.59363 1.3591 10.2033 1.37583 10.8191C1.39256 11.4348 1.56819 12.0358 1.88569 12.5637C2.20318 13.0916 2.65174 13.5284 3.18784 13.8318C3.72395 14.1352 4.32938 14.2949 4.94539 14.2953C5.31739 14.29 5.68539 14.226 6.03739 14.106L16.2681 27.026C16.0094 27.6334 15.9241 28.3005 16.0216 28.9534C16.1191 29.6063 16.3955 30.2195 16.8202 30.7249C17.245 31.2302 17.8014 31.6081 18.4278 31.8165C19.0542 32.0248 19.726 32.0556 20.3689 31.9054C21.0117 31.7552 21.6004 31.4299 22.0695 30.9655C22.5387 30.5011 22.8701 29.9158 23.0269 29.2745C23.1837 28.6333 23.1597 27.9611 22.9578 27.3326C22.7558 26.7041 22.3837 26.1439 21.8827 25.714L27.3227 7.13133C28.2217 7.06717 29.0629 6.66429 29.6764 6.00402C30.2899 5.34375 30.63 4.47529 30.6281 3.574ZM19.5747 24.7807C19.0227 24.7873 18.4814 24.9233 17.9921 25.1753L7.99739 12.5247C8.27526 12.0732 8.44839 11.5652 8.50405 11.038L24.4134 5.96067C24.5787 6.14733 24.7641 6.31667 24.9667 6.466L19.5894 24.7793H19.5734L19.5747 24.7807Z" fill="url(#paint0_linear_244_5106)"/>
<defs>
<linearGradient id="paint0_linear_244_5106" x1="1.37451" y1="35.9991" x2="36.5521" y2="-2.97737" gradientUnits="userSpaceOnUse">
<stop stop-color="#00BD7C"/>
<stop offset="1" stop-color="#00D9F5"/>
<stop offset="1" stop-color="#00C6DF"/>
</linearGradient>
</defs>
</svg>
