<svg width="28" height="28" viewBox="0 0 28 28" fill="none" xmlns="http://www.w3.org/2000/svg">
<path d="M4.8125 1.75C4.00027 1.75 3.22132 2.07266 2.64699 2.64699C2.07266 3.22132 1.75 4.00027 1.75 4.8125V23.1875C1.75 23.9997 2.07266 24.7787 2.64699 25.353C3.22132 25.9273 4.00027 26.25 4.8125 26.25H23.1875C23.9997 26.25 24.7787 25.9273 25.353 25.353C25.9273 24.7787 26.25 23.9997 26.25 23.1875V4.8125C26.25 4.00027 25.9273 3.22132 25.353 2.64699C24.7787 2.07266 23.9997 1.75 23.1875 1.75H4.8125ZM5.83333 6.85417C5.83333 6.58343 5.94089 6.32377 6.13233 6.13233C6.32377 5.94089 6.58343 5.83333 6.85417 5.83333H10.2569C10.5277 5.83333 10.7873 5.94089 10.9788 6.13233C11.1702 6.32377 11.2778 6.58343 11.2778 6.85417C11.2778 7.12491 11.1702 7.38456 10.9788 7.576C10.7873 7.76745 10.5277 7.875 10.2569 7.875H9.31778L11.6589 10.2161C11.7592 10.3096 11.8396 10.4223 11.8954 10.5475C11.9512 10.6727 11.9812 10.8079 11.9836 10.945C11.9861 11.082 11.9608 11.2182 11.9095 11.3453C11.8582 11.4724 11.7817 11.5879 11.6848 11.6848C11.5879 11.7817 11.4724 11.8582 11.3453 11.9095C11.2182 11.9608 11.082 11.9861 10.945 11.9836C10.8079 11.9812 10.6727 11.9512 10.5475 11.8954C10.4223 11.8396 10.3096 11.7592 10.2161 11.6589L7.875 9.31778V10.2583C7.875 10.529 7.76745 10.7887 7.576 10.9801C7.38456 11.1716 7.12491 11.2791 6.85417 11.2791C6.58343 11.2791 6.32377 11.1716 6.13233 10.9801C5.94089 10.7887 5.83333 10.529 5.83333 10.2583V6.85417ZM21.8672 21.8686C21.676 22.0601 21.4165 22.1678 21.1458 22.168H17.7431C17.4723 22.168 17.2127 22.0605 17.0212 21.869C16.8298 21.6776 16.7222 21.4179 16.7222 21.1472C16.7222 20.8765 16.8298 20.6168 17.0212 20.4254C17.2127 20.2339 17.4723 20.1264 17.7431 20.1264H18.6822L16.3411 17.7853C16.1551 17.5928 16.052 17.335 16.0542 17.0673C16.0564 16.7997 16.1637 16.5436 16.3529 16.3542C16.542 16.1649 16.798 16.0574 17.0657 16.0549C17.3334 16.0525 17.5913 16.1552 17.7839 16.3411L20.125 18.6822V17.7431C20.125 17.4723 20.2326 17.2127 20.424 17.0212C20.6154 16.8298 20.8751 16.7222 21.1458 16.7222C21.4166 16.7222 21.6762 16.8298 21.8677 17.0212C22.0591 17.2127 22.1667 17.4723 22.1667 17.7431V21.1472C22.1664 21.4178 22.0587 21.6773 21.8672 21.8686ZM22.1667 6.85553V10.2583C22.1667 10.529 22.0591 10.7887 21.8677 10.9801C21.6762 11.1716 21.4166 11.2791 21.1458 11.2791C20.8751 11.2791 20.6154 11.1716 20.424 10.9801C20.2326 10.7887 20.125 10.529 20.125 10.2583V9.31914L17.7839 11.6603C17.6897 11.7577 17.577 11.8354 17.4524 11.8889C17.3279 11.9423 17.1939 11.9704 17.0583 11.9715C16.9228 11.9726 16.7884 11.9467 16.663 11.8953C16.5375 11.844 16.4236 11.7681 16.3278 11.6722C16.232 11.5763 16.1562 11.4623 16.105 11.3368C16.0537 11.2113 16.0279 11.0769 16.0292 10.9414C16.0304 10.8058 16.0586 10.6719 16.1122 10.5474C16.1657 10.4228 16.2436 10.3102 16.3411 10.2161L18.6822 7.875H17.7431C17.4723 7.875 17.2127 7.76745 17.0212 7.576C16.8298 7.38456 16.7222 7.12491 16.7222 6.85417C16.7222 6.58343 16.8298 6.32377 17.0212 6.13233C17.2127 5.94089 17.4723 5.83333 17.7431 5.83333H21.1458C21.4166 5.83333 21.6762 5.94089 21.8677 6.13233C22.0591 6.32377 22.1667 6.58343 22.1667 6.85417V6.85553ZM6.13278 21.8672C5.94128 21.676 5.83357 21.4165 5.83333 21.1458V17.7431C5.83333 17.4723 5.94089 17.2127 6.13233 17.0212C6.32377 16.8298 6.58343 16.7222 6.85417 16.7222C7.12491 16.7222 7.38456 16.8298 7.576 17.0212C7.76745 17.2127 7.875 17.4723 7.875 17.7431V18.6809L10.2161 16.3398C10.4096 16.1594 10.6656 16.0613 10.93 16.0659C11.1945 16.0706 11.4468 16.1777 11.6339 16.3648C11.8209 16.5518 11.928 16.8041 11.9327 17.0686C11.9374 17.3331 11.8392 17.589 11.6589 17.7825L9.31778 20.125H10.2583C10.529 20.125 10.7887 20.2326 10.9801 20.424C11.1716 20.6154 11.2791 20.8751 11.2791 21.1458C11.2791 21.4166 11.1716 21.6762 10.9801 21.8677C10.7887 22.0591 10.529 22.1667 10.2583 22.1667H6.85417C6.58352 22.1664 6.32404 22.0587 6.13278 21.8672Z" fill="url(#paint0_linear_260_6814)"/>
<defs>
<linearGradient id="paint0_linear_260_6814" x1="1.75" y1="29.3125" x2="28.3325" y2="-2.905" gradientUnits="userSpaceOnUse">
<stop stop-color="#00E092"/>
<stop offset="1" stop-color="#00D9F5"/>
<stop offset="1" stop-color="#01D0EB"/>
</linearGradient>
</defs>
</svg>
