<svg width="24" height="28" viewBox="0 0 24 28" fill="none" xmlns="http://www.w3.org/2000/svg">
<path d="M23.4508 5.41481C23.346 5.29508 23.2176 5.19827 23.0736 5.13045C22.9296 5.06263 22.7732 5.02525 22.6141 5.02066C20.1425 4.95605 17.0152 2.31328 14.9475 1.2762C13.6702 0.637583 12.827 0.216506 12.1938 0.105583C12.0652 0.0868473 11.9345 0.0872102 11.8061 0.10666C11.1728 0.217583 10.3296 0.63866 9.05346 1.27728C6.98577 2.31328 3.85838 4.95605 1.38684 5.02066C1.22764 5.02549 1.07113 5.06297 0.927008 5.13077C0.782885 5.19857 0.654224 5.29525 0.548999 5.41481C0.330893 5.66157 0.218361 5.98409 0.235614 6.31297C0.766537 17.107 4.63808 23.7871 11.4313 27.6694C11.6079 27.7696 11.8039 27.8213 11.9988 27.8213C12.1938 27.8213 12.3898 27.7696 12.5675 27.6694C19.3607 23.7871 23.2312 17.107 23.7632 6.31297C23.7814 5.98414 23.6692 5.66138 23.4508 5.41481V5.41481ZM18.049 9.66005L12.3165 18.1193C12.1108 18.423 11.7878 18.6244 11.4679 18.6244C11.147 18.6244 10.7905 18.4488 10.5655 18.2237L6.52484 14.182C6.39292 14.0496 6.31885 13.8703 6.31885 13.6834C6.31885 13.4965 6.39292 13.3172 6.52484 13.1848L7.52315 12.1844C7.65584 12.053 7.83503 11.9792 8.02177 11.9792C8.20851 11.9792 8.3877 12.053 8.52038 12.1844L11.1481 14.812L15.7132 8.07374C15.8188 7.91954 15.9811 7.8134 16.1647 7.77849C16.3483 7.74359 16.5383 7.78275 16.6932 7.88743L17.8616 8.68005C18.016 8.7855 18.1223 8.94777 18.1575 9.13139C18.1926 9.31502 18.1536 9.50508 18.049 9.66005V9.66005Z" fill="white"/>
</svg>
