<svg width="33" height="32" viewBox="0 0 33 32" fill="none" xmlns="http://www.w3.org/2000/svg">
<path d="M29.5869 6.18892C29.4671 6.05208 29.3203 5.94144 29.1557 5.86393C28.9912 5.78642 28.8124 5.7437 28.6306 5.73846C25.806 5.66461 22.2318 2.6443 19.8687 1.45907C18.409 0.729224 17.4454 0.247994 16.7217 0.121224C16.5747 0.0998121 16.4254 0.100227 16.2786 0.122455C15.5549 0.249224 14.5912 0.730455 13.1327 1.4603C10.7697 2.6443 7.19551 5.66461 4.37089 5.73846C4.18894 5.74397 4.01007 5.78681 3.84536 5.86429C3.68065 5.94178 3.53361 6.05227 3.41335 6.18892C3.16409 6.47093 3.03548 6.83951 3.0552 7.21538C3.66197 19.5514 8.08658 27.1858 15.8503 31.6228C16.0521 31.7372 16.2761 31.7963 16.4989 31.7963C16.7217 31.7963 16.9457 31.7372 17.1487 31.6228C24.9124 27.1858 29.3358 19.5514 29.9438 7.21538C29.9647 6.83957 29.8364 6.47071 29.5869 6.18892ZM23.4134 11.0406L16.862 20.7083C16.6269 21.0554 16.2577 21.2855 15.8921 21.2855C15.5254 21.2855 15.118 21.0849 14.8607 20.8277L10.2429 16.2086C10.0921 16.0573 10.0075 15.8524 10.0075 15.6388C10.0075 15.4251 10.0921 15.2202 10.2429 15.0689L11.3838 13.9255C11.5355 13.7754 11.7402 13.6911 11.9537 13.6911C12.1671 13.6911 12.3719 13.7754 12.5235 13.9255L15.5266 16.9286L20.7438 9.22769C20.8645 9.05146 21.0501 8.93016 21.2599 8.89026C21.4698 8.85037 21.6869 8.89513 21.8638 9.01476L23.1992 9.92061C23.3756 10.0411 23.4972 10.2266 23.5373 10.4364C23.5774 10.6463 23.5329 10.8635 23.4134 11.0406Z" fill="url(#paint0_linear_249_6035)"/>
<defs>
<linearGradient id="paint0_linear_249_6035" x1="3.05322" y1="35.7576" x2="38.0614" y2="-0.247754" gradientUnits="userSpaceOnUse">
<stop stop-color="#00E092"/>
<stop offset="1" stop-color="#00D9F5"/>
<stop offset="1" stop-color="#01D0EB"/>
</linearGradient>
</defs>
</svg>
