<svg width="28" height="28" viewBox="0 0 28 28" fill="none" xmlns="http://www.w3.org/2000/svg">
<path d="M0 12.5C0 11.5717 0.368749 10.6815 1.02513 10.0251C1.6815 9.36875 2.57174 9 3.5 9H24.5C25.4283 9 26.3185 9.36875 26.9749 10.0251C27.6313 10.6815 28 11.5717 28 12.5V16C28 16.9283 27.6313 17.8185 26.9749 18.4749C26.3185 19.1313 25.4283 19.5 24.5 19.5H3.5C2.57174 19.5 1.6815 19.1313 1.02513 18.4749C0.368749 17.8185 0 16.9283 0 16V12.5ZM10.5 17.75H17.5V10.75H10.5V17.75ZM26.25 16V12.5C26.25 12.0359 26.0656 11.5908 25.7374 11.2626C25.4092 10.9344 24.9641 10.75 24.5 10.75H19.25V17.75H24.5C24.9641 17.75 25.4092 17.5656 25.7374 17.2374C26.0656 16.9092 26.25 16.4641 26.25 16Z" fill="white"/>
</svg>
