<svg width="28" height="28" viewBox="0 0 28 28" fill="none" xmlns="http://www.w3.org/2000/svg">
<path d="M9.33301 14.0602C11.6605 14.0602 13.4163 12.3044 13.4163 9.97689C13.4163 7.64939 11.6605 5.89355 9.33301 5.89355C7.00551 5.89355 5.24967 7.64939 5.24967 9.97689C5.24967 12.3044 7.00551 14.0602 9.33301 14.0602ZM10.4997 15.1662H8.16634C4.94984 15.1662 2.33301 17.7831 2.33301 20.9996V22.1662H16.333V20.9996C16.333 17.7831 13.7162 15.1662 10.4997 15.1662ZM23.676 9.67355L18.6593 14.6809L17.152 13.1736L15.5023 14.8232L18.6593 17.9779L25.3233 11.3256L23.676 9.67355Z" fill="url(#paint0_linear_260_6912)"/>
<defs>
<linearGradient id="paint0_linear_260_6912" x1="2.33301" y1="24.2003" x2="17.9956" y2="-2.61894" gradientUnits="userSpaceOnUse">
<stop stop-color="#00E092"/>
<stop offset="1" stop-color="#00D9F5"/>
<stop offset="1" stop-color="#01D0EB"/>
</linearGradient>
</defs>
</svg>
