<svg width="28" height="28" viewBox="0 0 28 28" fill="none" xmlns="http://www.w3.org/2000/svg">
<path d="M5.25 26.25H22.75V21.875C22.7481 20.2511 22.1022 18.6943 20.954 17.546C19.8057 16.3978 18.2489 15.7519 16.625 15.75H11.375C9.75112 15.7519 8.19428 16.3978 7.04602 17.546C5.89776 18.6943 5.25185 20.2511 5.25 21.875V26.25ZM7.875 7.875C7.875 9.08641 8.23422 10.2706 8.90725 11.2779C9.58027 12.2851 10.5369 13.0702 11.6561 13.5338C12.7753 13.9973 14.0068 14.1186 15.1949 13.8823C16.3831 13.646 17.4744 13.0626 18.331 12.206C19.1876 11.3494 19.771 10.2581 20.0073 9.06993C20.2436 7.88179 20.1223 6.65026 19.6588 5.53106C19.1952 4.41187 18.4101 3.45527 17.4029 2.78225C16.3956 2.10923 15.2114 1.75 14 1.75C12.3755 1.75 10.8176 2.39531 9.66897 3.54397C8.52031 4.69263 7.875 6.25055 7.875 7.875Z" fill="white"/>
</svg>
