<svg width="20" height="26" viewBox="0 0 20 26" fill="none" xmlns="http://www.w3.org/2000/svg">
<path d="M10 0.75C7.44823 0.75301 5.00182 1.76804 3.19743 3.57242C1.39305 5.37681 0.378021 7.82322 0.37501 10.375C0.371954 12.4603 1.05312 14.4891 2.31401 16.15C2.31401 16.15 2.57651 16.4956 2.61939 16.5455L10 25.25L17.3841 16.5411C17.4226 16.4948 17.686 16.15 17.686 16.15L17.6869 16.1474C18.9472 14.4872 19.628 12.4594 19.625 10.375C19.622 7.82322 18.607 5.37681 16.8026 3.57242C14.9982 1.76804 12.5518 0.75301 10 0.75ZM10 6C10.5192 6 11.0267 6.15395 11.4584 6.44239C11.8901 6.73083 12.2265 7.1408 12.4252 7.62046C12.6239 8.10011 12.6759 8.62791 12.5746 9.13711C12.4733 9.64631 12.2233 10.114 11.8562 10.4812C11.4891 10.8483 11.0213 11.0983 10.5121 11.1996C10.0029 11.3008 9.47512 11.2489 8.99547 11.0502C8.51581 10.8515 8.10584 10.5151 7.8174 10.0834C7.52896 9.65169 7.37501 9.14418 7.37501 8.625C7.37571 7.92902 7.65249 7.26174 8.14462 6.76961C8.63675 6.27748 9.30403 6.00069 10 6ZM13.5 15.625H11.75V13.875H8.25001V15.625H6.50001V13.875C6.50047 13.411 6.685 12.9662 7.01309 12.6381C7.34117 12.31 7.78602 12.1255 8.25001 12.125H11.75C12.214 12.1255 12.6588 12.31 12.9869 12.6381C13.315 12.9662 13.4995 13.411 13.5 13.875V15.625Z" fill="url(#paint0_linear_227_6083)"/>
<defs>
<linearGradient id="paint0_linear_227_6083" x1="0.375" y1="28.3125" x2="27.418" y2="2.56025" gradientUnits="userSpaceOnUse">
<stop stop-color="#00E092"/>
<stop offset="1" stop-color="#00D9F5"/>
<stop offset="1" stop-color="#01D0EB"/>
</linearGradient>
</defs>
</svg>
