<svg width="33" height="32" viewBox="0 0 33 32" fill="none" xmlns="http://www.w3.org/2000/svg">
<path d="M25.7263 16.0007C25.7797 16.4407 25.833 16.8807 25.833 17.334C25.833 20.1073 24.7663 22.6273 23.033 24.5207C22.6863 23.4407 21.6997 22.6673 20.4997 22.6673H19.1663V18.6673C19.1663 17.934 18.5663 17.334 17.833 17.334H9.83301V14.6673H12.4997C13.233 14.6673 13.833 14.0673 13.833 13.334V10.6673H16.4997C17.9663 10.6673 19.1663 9.46732 19.1663 8.00065V4.61398C17.8997 4.21398 16.5663 4.00065 15.1663 4.00065C7.80634 4.00065 1.83301 9.97398 1.83301 17.334C1.83301 24.694 7.80634 30.6673 15.1663 30.6673C22.5263 30.6673 28.4997 24.694 28.4997 17.334C28.4997 16.8807 28.473 16.4407 28.433 16.0007H25.7263V16.0007ZM13.833 27.9073C8.56634 27.254 4.49967 22.774 4.49967 17.334C4.49967 16.5073 4.60634 15.7207 4.77967 14.9473L11.1663 21.334V22.6673C11.1663 24.134 12.3663 25.334 13.833 25.334V27.9073ZM29.833 5.33398V4.66732C29.833 3.78326 29.4818 2.93542 28.8567 2.3103C28.2316 1.68517 27.3837 1.33398 26.4997 1.33398C25.6156 1.33398 24.7678 1.68517 24.1427 2.3103C23.5175 2.93542 23.1663 3.78326 23.1663 4.66732V5.33398C22.433 5.33398 21.833 5.93398 21.833 6.66732V12.0007C21.833 12.734 22.433 13.334 23.1663 13.334H29.833C30.5663 13.334 31.1663 12.734 31.1663 12.0007V6.66732C31.1663 5.93398 30.5663 5.33398 29.833 5.33398ZM28.4997 5.33398H24.4997V4.66732C24.4997 3.56065 25.393 2.66732 26.4997 2.66732C27.6063 2.66732 28.4997 3.56065 28.4997 4.66732V5.33398Z" fill="url(#paint0_linear_249_6027)"/>
<defs>
<linearGradient id="paint0_linear_249_6027" x1="1.83301" y1="34.334" x2="33.6597" y2="-4.23935" gradientUnits="userSpaceOnUse">
<stop stop-color="#00E092"/>
<stop offset="1" stop-color="#00D9F5"/>
<stop offset="1" stop-color="#01D0EB"/>
</linearGradient>
</defs>
</svg>
