<svg width="635" height="424" viewBox="0 0 635 424" fill="none" xmlns="http://www.w3.org/2000/svg">
<rect width="635" height="424" rx="16" fill="#F2F2F2"/>
<g filter="url(#filter0_d_221_7161)">
<rect x="47" y="50" width="304.19" height="162.486" rx="18.3662" fill="white"/>
<path d="M77.6318 83.3662L74.8477 73.1844H76.1006L78.2284 81.477H78.3278L80.4955 73.1844H81.8875L84.0551 81.477H84.1546L86.2824 73.1844H87.5352L84.7511 83.3662H83.4784L81.2313 75.2526H81.1517L78.9046 83.3662H77.6318ZM91.4031 83.5253C90.6673 83.5253 90.0326 83.3629 89.499 83.0381C88.9687 82.71 88.5594 82.2526 88.271 81.6659C87.986 81.076 87.8435 80.3899 87.8435 79.6077C87.8435 78.8255 87.986 78.1361 88.271 77.5395C88.5594 76.9396 88.9604 76.4723 89.4742 76.1375C89.9912 75.7994 90.5944 75.6304 91.2838 75.6304C91.6815 75.6304 92.0743 75.6967 92.4621 75.8293C92.8499 75.9619 93.2028 76.1773 93.521 76.4756C93.8392 76.7706 94.0928 77.1617 94.2817 77.6489C94.4706 78.1361 94.5651 78.736 94.5651 79.4486V79.9458H88.6787V78.9316H93.3719C93.3719 78.5007 93.2857 78.1162 93.1134 77.7781C92.9443 77.4401 92.7024 77.1733 92.3875 76.9777C92.076 76.7822 91.7081 76.6844 91.2838 76.6844C90.8165 76.6844 90.4121 76.8004 90.0707 77.0324C89.7327 77.2611 89.4725 77.5594 89.2902 77.9273C89.1079 78.2952 89.0168 78.6896 89.0168 79.1105V79.7867C89.0168 80.3634 89.1162 80.8522 89.3151 81.2533C89.5172 81.651 89.7973 81.9543 90.1553 82.1631C90.5132 82.3686 90.9292 82.4713 91.4031 82.4713C91.7114 82.4713 91.9898 82.4282 92.2384 82.3421C92.4903 82.2526 92.7073 82.12 92.8896 81.9443C93.0719 81.7654 93.2128 81.5433 93.3122 81.2781L94.4457 81.5963C94.3264 81.9808 94.1259 82.3189 93.8442 82.6105C93.5625 82.8989 93.2144 83.1243 92.8001 83.2867C92.3858 83.4458 91.9202 83.5253 91.4031 83.5253ZM96.509 83.3662V73.1844H97.6823V76.9429H97.7817C97.8679 76.8103 97.9872 76.6413 98.1396 76.4358C98.2954 76.227 98.5175 76.0414 98.8058 75.879C99.0975 75.7133 99.4919 75.6304 99.9891 75.6304C100.632 75.6304 101.199 75.7912 101.689 76.1127C102.18 76.4342 102.563 76.8899 102.838 77.4798C103.113 78.0698 103.25 78.7658 103.25 79.5679C103.25 80.3766 103.113 81.0776 102.838 81.6709C102.563 82.2609 102.182 82.7182 101.694 83.0431C101.207 83.3646 100.645 83.5253 100.009 83.5253C99.5184 83.5253 99.1257 83.4441 98.8307 83.2817C98.5357 83.116 98.3087 82.9287 98.1496 82.7199C97.9905 82.5078 97.8679 82.3321 97.7817 82.1929H97.6425V83.3662H96.509ZM97.6624 79.548C97.6624 80.1247 97.7469 80.6335 97.9159 81.0743C98.0849 81.5118 98.3319 81.8548 98.6567 82.1034C98.9815 82.3487 99.3792 82.4713 99.8499 82.4713C100.34 82.4713 100.75 82.3421 101.078 82.0835C101.409 81.8217 101.658 81.4704 101.824 81.0296C101.993 80.5854 102.077 80.0916 102.077 79.548C102.077 79.0111 101.994 78.5272 101.829 78.0963C101.666 77.6621 101.419 77.3191 101.088 77.0672C100.76 76.812 100.347 76.6844 99.8499 76.6844C99.3726 76.6844 98.9716 76.8054 98.6467 77.0473C98.3219 77.286 98.0767 77.6207 97.9109 78.0516C97.7452 78.4791 97.6624 78.978 97.6624 79.548ZM114.392 77.4401L113.338 77.7384C113.272 77.5627 113.174 77.392 113.044 77.2263C112.919 77.0573 112.746 76.9181 112.527 76.8087C112.309 76.6993 112.029 76.6446 111.687 76.6446C111.22 76.6446 110.83 76.7523 110.519 76.9678C110.211 77.1799 110.057 77.45 110.057 77.7781C110.057 78.0698 110.163 78.3002 110.375 78.4692C110.587 78.6382 110.918 78.7791 111.369 78.8918L112.503 79.1702C113.185 79.3359 113.694 79.5895 114.029 79.9308C114.364 80.2689 114.531 80.7048 114.531 81.2384C114.531 81.6759 114.405 82.067 114.153 82.4117C113.905 82.7564 113.557 83.0281 113.109 83.227C112.662 83.4259 112.141 83.5253 111.548 83.5253C110.769 83.5253 110.124 83.3563 109.614 83.0182C109.104 82.6801 108.78 82.1863 108.645 81.5367L109.758 81.2583C109.864 81.6692 110.065 81.9775 110.36 82.183C110.658 82.3885 111.048 82.4912 111.528 82.4912C112.075 82.4912 112.509 82.3752 112.831 82.1432C113.155 81.9079 113.318 81.6262 113.318 81.298C113.318 81.0329 113.225 80.8108 113.039 80.6318C112.854 80.4495 112.569 80.3137 112.184 80.2242L110.912 79.9259C110.212 79.7602 109.699 79.5033 109.37 79.1553C109.046 78.8039 108.883 78.3648 108.883 77.8378C108.883 77.4069 109.004 77.0258 109.246 76.6943C109.491 76.3629 109.825 76.1027 110.245 75.9138C110.67 75.7249 111.15 75.6304 111.687 75.6304C112.443 75.6304 113.036 75.7961 113.467 76.1276C113.901 76.459 114.209 76.8965 114.392 77.4401ZM119.499 83.5253C118.763 83.5253 118.128 83.3629 117.595 83.0381C117.064 82.71 116.655 82.2526 116.367 81.6659C116.082 81.076 115.939 80.3899 115.939 79.6077C115.939 78.8255 116.082 78.1361 116.367 77.5395C116.655 76.9396 117.056 76.4723 117.57 76.1375C118.087 75.7994 118.69 75.6304 119.38 75.6304C119.777 75.6304 120.17 75.6967 120.558 75.8293C120.946 75.9619 121.299 76.1773 121.617 76.4756C121.935 76.7706 122.188 77.1617 122.377 77.6489C122.566 78.1361 122.661 78.736 122.661 79.4486V79.9458H116.774V78.9316H121.468C121.468 78.5007 121.381 78.1162 121.209 77.7781C121.04 77.4401 120.798 77.1733 120.483 76.9777C120.172 76.7822 119.804 76.6844 119.38 76.6844C118.912 76.6844 118.508 76.8004 118.166 77.0324C117.828 77.2611 117.568 77.5594 117.386 77.9273C117.204 78.2952 117.112 78.6896 117.112 79.1105V79.7867C117.112 80.3634 117.212 80.8522 117.411 81.2533C117.613 81.651 117.893 81.9543 118.251 82.1631C118.609 82.3686 119.025 82.4713 119.499 82.4713C119.807 82.4713 120.085 82.4282 120.334 82.3421C120.586 82.2526 120.803 82.12 120.985 81.9443C121.168 81.7654 121.308 81.5433 121.408 81.2781L122.541 81.5963C122.422 81.9808 122.222 82.3189 121.94 82.6105C121.658 82.8989 121.31 83.1243 120.896 83.2867C120.482 83.4458 120.016 83.5253 119.499 83.5253ZM124.446 83.3662V75.7298H125.579V76.8833H125.659C125.798 76.5054 126.05 76.1988 126.414 75.9635C126.779 75.7282 127.19 75.6105 127.647 75.6105C127.733 75.6105 127.841 75.6122 127.97 75.6155C128.1 75.6188 128.197 75.6238 128.264 75.6304V76.8236C128.224 76.8137 128.133 76.7987 127.99 76.7789C127.851 76.7557 127.704 76.7441 127.548 76.7441C127.177 76.7441 126.845 76.8219 126.554 76.9777C126.265 77.1302 126.036 77.3423 125.867 77.6141C125.702 77.8825 125.619 78.1891 125.619 78.5338V83.3662H124.446ZM136.131 75.7298L133.307 83.3662H132.114L129.29 75.7298H130.563L132.671 81.8151H132.751L134.859 75.7298H136.131ZM140.608 83.5253C139.872 83.5253 139.238 83.3629 138.704 83.0381C138.174 82.71 137.764 82.2526 137.476 81.6659C137.191 81.076 137.049 80.3899 137.049 79.6077C137.049 78.8255 137.191 78.1361 137.476 77.5395C137.764 76.9396 138.166 76.4723 138.679 76.1375C139.196 75.7994 139.799 75.6304 140.489 75.6304C140.887 75.6304 141.279 75.6967 141.667 75.8293C142.055 75.9619 142.408 76.1773 142.726 76.4756C143.044 76.7706 143.298 77.1617 143.487 77.6489C143.676 78.1361 143.77 78.736 143.77 79.4486V79.9458H137.884V78.9316H142.577C142.577 78.5007 142.491 78.1162 142.318 77.7781C142.149 77.4401 141.907 77.1733 141.593 76.9777C141.281 76.7822 140.913 76.6844 140.489 76.6844C140.022 76.6844 139.617 76.8004 139.276 77.0324C138.938 77.2611 138.678 77.5594 138.495 77.9273C138.313 78.2952 138.222 78.6896 138.222 79.1105V79.7867C138.222 80.3634 138.321 80.8522 138.52 81.2533C138.722 81.651 139.002 81.9543 139.36 82.1631C139.718 82.3686 140.134 82.4713 140.608 82.4713C140.916 82.4713 141.195 82.4282 141.443 82.3421C141.695 82.2526 141.912 82.12 142.095 81.9443C142.277 81.7654 142.418 81.5433 142.517 81.2781L143.651 81.5963C143.532 81.9808 143.331 82.3189 143.049 82.6105C142.768 82.8989 142.42 83.1243 142.005 83.2867C141.591 83.4458 141.125 83.5253 140.608 83.5253ZM145.555 83.3662V75.7298H146.688V76.8833H146.768C146.907 76.5054 147.159 76.1988 147.524 75.9635C147.888 75.7282 148.299 75.6105 148.757 75.6105C148.843 75.6105 148.951 75.6122 149.08 75.6155C149.209 75.6188 149.307 75.6238 149.373 75.6304V76.8236C149.333 76.8137 149.242 76.7987 149.1 76.7789C148.96 76.7557 148.813 76.7441 148.657 76.7441C148.286 76.7441 147.955 76.8219 147.663 76.9777C147.375 77.1302 147.146 77.3423 146.977 77.6141C146.811 77.8825 146.728 78.1891 146.728 78.5338V83.3662H145.555ZM159.076 77.7284V78.8222H154.622V77.7284H159.076ZM165.237 83.3662V73.1844H166.47V82.2725H171.203V83.3662H165.237ZM175.201 83.5452C174.717 83.5452 174.277 83.454 173.883 83.2718C173.489 83.0861 173.175 82.8193 172.943 82.4713C172.711 82.12 172.595 81.6958 172.595 81.1986C172.595 80.7611 172.682 80.4065 172.854 80.1347C173.026 79.8596 173.257 79.6441 173.545 79.4884C173.833 79.3326 174.152 79.2166 174.5 79.1404C174.851 79.0608 175.204 78.9978 175.558 78.9514C176.023 78.8918 176.399 78.847 176.687 78.8172C176.979 78.7841 177.191 78.7294 177.323 78.6531C177.459 78.5769 177.527 78.4443 177.527 78.2554V78.2156C177.527 77.7251 177.393 77.344 177.125 77.0722C176.859 76.8004 176.457 76.6645 175.916 76.6645C175.356 76.6645 174.917 76.7871 174.599 77.0324C174.281 77.2777 174.057 77.5395 173.928 77.8179L172.814 77.4202C173.013 76.9562 173.278 76.5949 173.61 76.3364C173.944 76.0745 174.309 75.8923 174.703 75.7895C175.101 75.6834 175.492 75.6304 175.877 75.6304C176.122 75.6304 176.404 75.6602 176.722 75.7199C177.043 75.7762 177.353 75.8939 177.652 76.0729C177.953 76.2519 178.203 76.522 178.402 76.8833C178.601 77.2445 178.701 77.7284 178.701 78.335V83.3662H177.527V82.3321H177.468C177.388 82.4978 177.255 82.6752 177.07 82.8641C176.884 83.053 176.637 83.2137 176.329 83.3463C176.021 83.4789 175.645 83.5452 175.201 83.5452ZM175.38 82.4912C175.844 82.4912 176.235 82.4001 176.553 82.2178C176.874 82.0355 177.116 81.8002 177.279 81.5118C177.444 81.2235 177.527 80.9202 177.527 80.602V79.5281C177.478 79.5878 177.368 79.6425 177.199 79.6922C177.033 79.7386 176.841 79.78 176.622 79.8165C176.407 79.8496 176.197 79.8795 175.991 79.906C175.789 79.9292 175.625 79.9491 175.499 79.9656C175.194 80.0054 174.909 80.07 174.644 80.1595C174.382 80.2457 174.17 80.3766 174.007 80.5523C173.848 80.7246 173.769 80.96 173.769 81.2583C173.769 81.6659 173.92 81.9742 174.221 82.183C174.526 82.3885 174.912 82.4912 175.38 82.4912ZM184.163 75.7298V76.7242H180.206V75.7298H184.163ZM181.359 73.9003H182.532V81.1787C182.532 81.5102 182.58 81.7587 182.677 81.9244C182.776 82.0869 182.902 82.1962 183.054 82.2526C183.21 82.3056 183.374 82.3321 183.547 82.3321C183.676 82.3321 183.782 82.3255 183.865 82.3122C183.948 82.2957 184.014 82.2824 184.064 82.2725L184.302 83.3264C184.223 83.3563 184.112 83.3861 183.969 83.4159C183.827 83.4491 183.646 83.4656 183.427 83.4656C183.096 83.4656 182.771 83.3944 182.453 83.2519C182.138 83.1093 181.876 82.8923 181.667 82.6006C181.462 82.3089 181.359 81.941 181.359 81.4969V73.9003ZM189.048 83.5253C188.312 83.5253 187.677 83.3629 187.144 83.0381C186.613 82.71 186.204 82.2526 185.916 81.6659C185.631 81.076 185.488 80.3899 185.488 79.6077C185.488 78.8255 185.631 78.1361 185.916 77.5395C186.204 76.9396 186.605 76.4723 187.119 76.1375C187.636 75.7994 188.239 75.6304 188.928 75.6304C189.326 75.6304 189.719 75.6967 190.107 75.8293C190.494 75.9619 190.847 76.1773 191.166 76.4756C191.484 76.7706 191.737 77.1617 191.926 77.6489C192.115 78.1361 192.21 78.736 192.21 79.4486V79.9458H186.323V78.9316H191.016C191.016 78.5007 190.93 78.1162 190.758 77.7781C190.589 77.4401 190.347 77.1733 190.032 76.9777C189.72 76.7822 189.353 76.6844 188.928 76.6844C188.461 76.6844 188.057 76.8004 187.715 77.0324C187.377 77.2611 187.117 77.5594 186.935 77.9273C186.752 78.2952 186.661 78.6896 186.661 79.1105V79.7867C186.661 80.3634 186.761 80.8522 186.96 81.2533C187.162 81.651 187.442 81.9543 187.8 82.1631C188.158 82.3686 188.574 82.4713 189.048 82.4713C189.356 82.4713 189.634 82.4282 189.883 82.3421C190.135 82.2526 190.352 82.12 190.534 81.9443C190.716 81.7654 190.857 81.5433 190.957 81.2781L192.09 81.5963C191.971 81.9808 191.77 82.3189 191.489 82.6105C191.207 82.8989 190.859 83.1243 190.445 83.2867C190.03 83.4458 189.565 83.5253 189.048 83.5253ZM195.168 78.7725V83.3662H193.994V75.7298H195.128V76.923H195.227C195.406 76.5352 195.678 76.2237 196.043 75.9884C196.407 75.7497 196.878 75.6304 197.455 75.6304C197.972 75.6304 198.424 75.7365 198.812 75.9486C199.2 76.1574 199.501 76.4756 199.717 76.9031C199.932 77.3274 200.04 77.8643 200.04 78.5139V83.3662H198.867V78.5935C198.867 77.9936 198.711 77.5262 198.399 77.1915C198.088 76.8534 197.66 76.6844 197.117 76.6844C196.742 76.6844 196.407 76.7656 196.112 76.928C195.821 77.0904 195.59 77.3274 195.421 77.6389C195.252 77.9505 195.168 78.3283 195.168 78.7725ZM205.286 83.5253C204.57 83.5253 203.954 83.3563 203.437 83.0182C202.92 82.6801 202.522 82.2145 202.244 81.6212C201.965 81.0279 201.826 80.3501 201.826 79.5878C201.826 78.8122 201.968 78.1278 202.253 77.5345C202.542 76.9379 202.943 76.4723 203.457 76.1375C203.974 75.7994 204.577 75.6304 205.266 75.6304C205.803 75.6304 206.287 75.7298 206.718 75.9287C207.149 76.1276 207.502 76.406 207.777 76.7639C208.052 77.1219 208.223 77.5395 208.289 78.0168H207.116C207.026 77.6688 206.827 77.3605 206.519 77.0921C206.214 76.8203 205.803 76.6844 205.286 76.6844C204.829 76.6844 204.428 76.8037 204.083 77.0423C203.742 77.2777 203.475 77.6108 203.283 78.0416C203.094 78.4692 202.999 78.9713 202.999 79.548C202.999 80.138 203.092 80.6517 203.278 81.0892C203.467 81.5267 203.732 81.8664 204.073 82.1084C204.418 82.3503 204.822 82.4713 205.286 82.4713C205.591 82.4713 205.868 82.4183 206.116 82.3122C206.365 82.2062 206.575 82.0537 206.748 81.8548C206.92 81.656 207.043 81.4173 207.116 81.1389H208.289C208.223 81.5897 208.059 81.9957 207.797 82.357C207.538 82.7149 207.195 83 206.768 83.2121C206.343 83.4209 205.85 83.5253 205.286 83.5253ZM210.76 86.2298C210.561 86.2298 210.384 86.2133 210.228 86.1801C210.072 86.1503 209.964 86.1205 209.905 86.0906L210.203 85.0566C210.488 85.1295 210.74 85.156 210.959 85.1361C211.177 85.1162 211.371 85.0184 211.54 84.8428C211.713 84.6704 211.87 84.3904 212.013 84.0026L212.231 83.406L209.408 75.7298L210.68 75.7298L212.788 81.8151H212.868L214.976 75.7298H216.248L213.007 84.4798C212.861 84.8743 212.681 85.2007 212.465 85.4593C212.25 85.7211 211.999 85.915 211.714 86.0409C211.433 86.1669 211.114 86.2298 210.76 86.2298Z" fill="#424242"/>
<path d="M274.68 83.3662V81.8368L278.737 77.8591C279.125 77.4673 279.449 77.1191 279.707 76.8148C279.966 76.5104 280.16 76.2156 280.289 75.9302C280.419 75.6449 280.483 75.3405 280.483 75.0171C280.483 74.6481 280.4 74.3323 280.232 74.0698C280.065 73.8035 279.835 73.598 279.542 73.4535C279.249 73.3089 278.916 73.2366 278.543 73.2366C278.159 73.2366 277.822 73.3165 277.533 73.4763C277.244 73.6323 277.019 73.8548 276.86 74.144C276.704 74.4331 276.626 74.7774 276.626 75.1769H274.611C274.611 74.435 274.78 73.7902 275.119 73.2423C275.458 72.6944 275.924 72.2702 276.517 71.9697C277.115 71.6691 277.799 71.5188 278.572 71.5188C279.355 71.5188 280.044 71.6653 280.638 71.9583C281.231 72.2512 281.691 72.6526 282.019 73.1624C282.35 73.6722 282.515 74.2543 282.515 74.9087C282.515 75.3462 282.431 75.7761 282.264 76.1984C282.097 76.6207 281.802 77.0887 281.379 77.6023C280.961 78.1159 280.373 78.738 279.616 79.4684L277.602 81.5172V81.5971H282.692V83.3662H274.68ZM284.199 81.1976V79.5141L289.158 71.6786H290.562V74.0755H289.706L286.367 79.3657V79.457H293.29V81.1976H284.199ZM289.774 83.3662V80.684L289.797 79.9307V71.6786H291.794V83.3662H289.774ZM296.079 83.4918C295.733 83.4918 295.436 83.37 295.189 83.1265C294.941 82.883 294.819 82.5863 294.823 82.2363C294.819 81.8938 294.941 81.6009 295.189 81.3574C295.436 81.1139 295.733 80.9922 296.079 80.9922C296.414 80.9922 296.705 81.1139 296.952 81.3574C297.203 81.6009 297.331 81.8938 297.334 82.2363C297.331 82.4683 297.27 82.6795 297.152 82.8697C297.038 83.0599 296.885 83.2121 296.695 83.3263C296.509 83.4366 296.303 83.4918 296.079 83.4918ZM299.444 83.3662V81.8368L303.502 77.8591C303.89 77.4673 304.213 77.1191 304.472 76.8148C304.731 76.5104 304.925 76.2156 305.054 75.9302C305.184 75.6449 305.248 75.3405 305.248 75.0171C305.248 74.6481 305.165 74.3323 304.997 74.0698C304.83 73.8035 304.6 73.598 304.307 73.4535C304.014 73.3089 303.681 73.2366 303.308 73.2366C302.924 73.2366 302.587 73.3165 302.298 73.4763C302.009 73.6323 301.784 73.8548 301.624 74.144C301.468 74.4331 301.39 74.7774 301.39 75.1769H299.376C299.376 74.435 299.545 73.7902 299.884 73.2423C300.222 72.6944 300.688 72.2702 301.282 71.9697C301.879 71.6691 302.564 71.5188 303.336 71.5188C304.12 71.5188 304.809 71.6653 305.402 71.9583C305.996 72.2512 306.456 72.6526 306.783 73.1624C307.114 73.6722 307.28 74.2543 307.28 74.9087C307.28 75.3462 307.196 75.7761 307.029 76.1984C306.861 76.6207 306.567 77.0887 306.144 77.6023C305.726 78.1159 305.138 78.738 304.381 79.4684L302.366 81.5172V81.5971H307.457V83.3662H299.444ZM312.05 83.3662V78.9834H313.037V79.7281H313.088C313.18 79.477 313.331 79.2811 313.542 79.1403C313.753 78.9976 314.005 78.9263 314.298 78.9263C314.595 78.9263 314.845 78.9986 315.049 79.1432C315.254 79.2858 315.399 79.4808 315.482 79.7281H315.528C315.625 79.4846 315.789 79.2906 316.019 79.146C316.251 78.9995 316.526 78.9263 316.844 78.9263C317.247 78.9263 317.576 79.0538 317.831 79.3087C318.086 79.5636 318.213 79.9355 318.213 80.4243V83.3662H317.177V80.5841C317.177 80.3121 317.105 80.1133 316.96 79.9878C316.816 79.8603 316.639 79.7966 316.43 79.7966C316.181 79.7966 315.986 79.8746 315.845 80.0306C315.706 80.1847 315.637 80.3853 315.637 80.6326V83.3662H314.624V80.5413C314.624 80.315 314.555 80.1342 314.418 79.9992C314.283 79.8641 314.106 79.7966 313.887 79.7966C313.739 79.7966 313.604 79.8346 313.482 79.9107C313.36 79.9849 313.263 80.0905 313.191 80.2275C313.119 80.3625 313.083 80.5204 313.083 80.7011V83.3662H312.05ZM322.725 80.1419L321.783 80.2446C321.757 80.1495 321.71 80.0601 321.644 79.9764C321.579 79.8927 321.491 79.8251 321.381 79.7738C321.271 79.7224 321.136 79.6967 320.976 79.6967C320.761 79.6967 320.58 79.7433 320.434 79.8365C320.289 79.9298 320.218 80.0505 320.22 80.1989C320.218 80.3264 320.265 80.43 320.36 80.5099C320.457 80.5898 320.616 80.6555 320.839 80.7068L321.587 80.8666C322.001 80.956 322.309 81.0977 322.511 81.2918C322.715 81.4858 322.817 81.7398 322.819 82.0536C322.817 82.3295 322.737 82.573 322.577 82.7841C322.419 82.9934 322.199 83.157 321.918 83.2749C321.636 83.3928 321.313 83.4518 320.947 83.4518C320.411 83.4518 319.979 83.3396 319.652 83.1151C319.325 82.8887 319.13 82.5739 319.067 82.1706L320.074 82.0736C320.12 82.2715 320.217 82.4208 320.365 82.5216C320.514 82.6224 320.707 82.6728 320.945 82.6728C321.19 82.6728 321.387 82.6224 321.535 82.5216C321.686 82.4208 321.761 82.2962 321.761 82.1478C321.761 82.0223 321.712 81.9186 321.615 81.8368C321.52 81.755 321.372 81.6922 321.17 81.6485L320.422 81.4915C320.002 81.404 319.691 81.2566 319.489 81.0492C319.288 80.84 319.188 80.5756 319.19 80.256C319.188 79.9859 319.261 79.7519 319.409 79.5541C319.56 79.3543 319.768 79.2002 320.034 79.0918C320.303 78.9815 320.612 78.9263 320.962 78.9263C321.475 78.9263 321.88 79.0357 322.174 79.2544C322.471 79.4732 322.655 79.769 322.725 80.1419Z" fill="black"/>
<line x1="74.5493" y1="100.567" x2="323.641" y2="100.567" stroke="#F7F7F7" stroke-width="1.14789"/>
<line x1="74.5494" y1="146.803" x2="323.641" y2="146.803" stroke="#F7F7F7" stroke-width="1.14789"/>
<line x1="74.5494" y1="193.039" x2="323.641" y2="193.039" stroke="#F7F7F7" stroke-width="1.14789"/>
<path d="M90.0459 120.655C90.0459 118.753 88.5041 117.211 86.6022 117.211C84.7004 117.211 83.1586 118.753 83.1586 120.655V194.119H90.0459V120.655Z" fill="url(#paint0_linear_221_7161)"/>
<path d="M106.116 155.091C106.116 153.189 104.575 151.647 102.673 151.647C100.771 151.647 99.2291 153.189 99.2291 155.091V194.119H106.116V155.091Z" fill="url(#paint1_linear_221_7161)"/>
<path d="M122.187 129.838C122.187 127.936 120.645 126.395 118.743 126.395C116.841 126.395 115.3 127.936 115.3 129.838V194.12H122.187V129.838Z" fill="url(#paint2_linear_221_7161)"/>
<path d="M138.258 117.211C138.258 115.309 136.716 113.768 134.814 113.768C132.912 113.768 131.37 115.309 131.37 117.211V194.12H138.258V117.211Z" fill="url(#paint3_linear_221_7161)"/>
<path d="M154.328 164.275C154.328 162.373 152.786 160.831 150.884 160.831C148.982 160.831 147.44 162.373 147.44 164.275V194.12H154.328V164.275Z" fill="url(#paint4_linear_221_7161)"/>
<path d="M170.398 135.577C170.398 133.676 168.856 132.134 166.955 132.134C165.053 132.134 163.511 133.676 163.511 135.577V194.12H170.398V135.577Z" fill="url(#paint5_linear_221_7161)"/>
<path d="M186.469 126.395C186.469 124.493 184.927 122.951 183.025 122.951C181.123 122.951 179.581 124.493 179.581 126.395V194.12H186.469V126.395Z" fill="url(#paint6_linear_221_7161)"/>
<path d="M202.539 145.909C202.539 144.007 200.997 142.465 199.095 142.465C197.194 142.465 195.652 144.007 195.652 145.909V194.12H202.539V145.909Z" fill="url(#paint7_linear_221_7161)"/>
<path d="M218.609 132.134C218.609 130.232 217.067 128.69 215.165 128.69C213.264 128.69 211.722 130.232 211.722 132.134V194.12H218.609V132.134Z" fill="url(#paint8_linear_221_7161)"/>
<path d="M234.68 118.359C234.68 116.457 233.138 114.915 231.236 114.915C229.334 114.915 227.792 116.457 227.792 118.359V194.119H234.68V118.359Z" fill="url(#paint9_linear_221_7161)"/>
<path d="M250.75 126.395C250.75 124.493 249.208 122.951 247.307 122.951C245.405 122.951 243.863 124.493 243.863 126.395V194.12H250.75V126.395Z" fill="url(#paint10_linear_221_7161)"/>
<path d="M266.821 145.909C266.821 144.007 265.279 142.465 263.377 142.465C261.475 142.465 259.933 144.007 259.933 145.909V194.12H266.821V145.909Z" fill="url(#paint11_linear_221_7161)"/>
<path d="M282.891 180.345C282.891 178.443 281.349 176.901 279.447 176.901C277.545 176.901 276.004 178.443 276.004 180.345V194.12H282.891V180.345Z" fill="url(#paint12_linear_221_7161)"/>
<path d="M298.961 126.395C298.961 124.493 297.42 122.951 295.518 122.951C293.616 122.951 292.074 124.493 292.074 126.395V194.12H298.961V126.395Z" fill="url(#paint13_linear_221_7161)"/>
<path d="M315.032 145.909C315.032 144.007 313.49 142.465 311.588 142.465C309.686 142.465 308.145 144.007 308.145 145.909V194.12H315.032V145.909Z" fill="url(#paint14_linear_221_7161)"/>
</g>
<g filter="url(#filter1_d_221_7161)">
<rect x="125" y="199" width="307.159" height="175.185" rx="17.9363" fill="white"/>
<path d="M158.706 223.3C158.646 222.796 158.404 222.405 157.98 222.127C157.555 221.848 157.035 221.709 156.419 221.709C155.968 221.709 155.573 221.782 155.235 221.928C154.901 222.074 154.639 222.274 154.45 222.53C154.264 222.785 154.171 223.075 154.171 223.4C154.171 223.671 154.236 223.905 154.365 224.101C154.498 224.293 154.667 224.454 154.872 224.583C155.078 224.709 155.293 224.813 155.519 224.896C155.744 224.976 155.951 225.04 156.14 225.09L157.174 225.368C157.439 225.438 157.734 225.534 158.059 225.657C158.387 225.779 158.701 225.947 158.999 226.159C159.3 226.368 159.549 226.636 159.745 226.964C159.94 227.292 160.038 227.695 160.038 228.172C160.038 228.723 159.894 229.22 159.605 229.664C159.32 230.108 158.903 230.461 158.353 230.723C157.806 230.985 157.141 231.116 156.359 231.116C155.63 231.116 154.998 230.998 154.465 230.763C153.934 230.527 153.517 230.199 153.212 229.778C152.91 229.357 152.74 228.868 152.7 228.312H153.973C154.006 228.696 154.135 229.014 154.36 229.266C154.589 229.515 154.877 229.7 155.225 229.823C155.577 229.942 155.955 230.002 156.359 230.002C156.83 230.002 157.252 229.926 157.627 229.773C158.001 229.617 158.298 229.402 158.517 229.127C158.735 228.848 158.845 228.524 158.845 228.152C158.845 227.814 158.75 227.539 158.561 227.327C158.372 227.115 158.124 226.943 157.816 226.81C157.507 226.678 157.174 226.562 156.816 226.462L155.564 226.104C154.768 225.875 154.138 225.549 153.674 225.125C153.21 224.7 152.978 224.145 152.978 223.459C152.978 222.889 153.132 222.392 153.441 221.968C153.752 221.54 154.17 221.209 154.693 220.973C155.22 220.735 155.809 220.616 156.458 220.616C157.115 220.616 157.698 220.733 158.208 220.968C158.719 221.2 159.123 221.519 159.421 221.923C159.723 222.327 159.882 222.786 159.899 223.3H158.706ZM165.108 231.096C164.372 231.096 163.737 230.933 163.204 230.608C162.673 230.28 162.264 229.823 161.976 229.236C161.691 228.646 161.548 227.96 161.548 227.178C161.548 226.396 161.691 225.706 161.976 225.11C162.264 224.51 162.665 224.043 163.179 223.708C163.696 223.37 164.299 223.201 164.988 223.201C165.386 223.201 165.779 223.267 166.167 223.4C166.554 223.532 166.907 223.748 167.226 224.046C167.544 224.341 167.797 224.732 167.986 225.219C168.175 225.706 168.27 226.306 168.27 227.019V227.516H162.383V226.502H167.076C167.076 226.071 166.99 225.687 166.818 225.348C166.649 225.01 166.407 224.744 166.092 224.548C165.781 224.352 165.413 224.255 164.988 224.255C164.521 224.255 164.117 224.371 163.775 224.603C163.437 224.831 163.177 225.13 162.995 225.498C162.813 225.866 162.721 226.26 162.721 226.681V227.357C162.721 227.934 162.821 228.423 163.02 228.824C163.222 229.221 163.502 229.525 163.86 229.733C164.218 229.939 164.634 230.042 165.108 230.042C165.416 230.042 165.694 229.999 165.943 229.912C166.195 229.823 166.412 229.69 166.594 229.515C166.777 229.336 166.917 229.114 167.017 228.848L168.15 229.167C168.031 229.551 167.83 229.889 167.549 230.181C167.267 230.469 166.919 230.695 166.505 230.857C166.09 231.016 165.625 231.096 165.108 231.096ZM170.054 230.937V223.3H171.188V224.454H171.268C171.407 224.076 171.659 223.769 172.023 223.534C172.388 223.299 172.799 223.181 173.256 223.181C173.342 223.181 173.45 223.182 173.579 223.186C173.709 223.189 173.806 223.194 173.873 223.201V224.394C173.833 224.384 173.742 224.369 173.599 224.349C173.46 224.326 173.313 224.314 173.157 224.314C172.786 224.314 172.454 224.392 172.162 224.548C171.874 224.7 171.645 224.913 171.476 225.184C171.311 225.453 171.228 225.759 171.228 226.104V230.937H170.054ZM181.74 223.3L178.916 230.937H177.723L174.899 223.3H176.172L178.28 229.385H178.359L180.467 223.3H181.74ZM186.217 231.096C185.481 231.096 184.847 230.933 184.313 230.608C183.783 230.28 183.373 229.823 183.085 229.236C182.8 228.646 182.657 227.96 182.657 227.178C182.657 226.396 182.8 225.706 183.085 225.11C183.373 224.51 183.774 224.043 184.288 223.708C184.805 223.37 185.408 223.201 186.098 223.201C186.496 223.201 186.888 223.267 187.276 223.4C187.664 223.532 188.017 223.748 188.335 224.046C188.653 224.341 188.907 224.732 189.096 225.219C189.285 225.706 189.379 226.306 189.379 227.019V227.516H183.493V226.502H188.186C188.186 226.071 188.1 225.687 187.927 225.348C187.758 225.01 187.516 224.744 187.201 224.548C186.89 224.352 186.522 224.255 186.098 224.255C185.63 224.255 185.226 224.371 184.885 224.603C184.547 224.831 184.286 225.13 184.104 225.498C183.922 225.866 183.831 226.26 183.831 226.681V227.357C183.831 227.934 183.93 228.423 184.129 228.824C184.331 229.221 184.611 229.525 184.969 229.733C185.327 229.939 185.743 230.042 186.217 230.042C186.525 230.042 186.804 229.999 187.052 229.912C187.304 229.823 187.521 229.69 187.704 229.515C187.886 229.336 188.027 229.114 188.126 228.848L189.26 229.167C189.14 229.551 188.94 229.889 188.658 230.181C188.376 230.469 188.028 230.695 187.614 230.857C187.2 231.016 186.734 231.096 186.217 231.096ZM191.164 230.937V223.3H192.297V224.454H192.377C192.516 224.076 192.768 223.769 193.133 223.534C193.497 223.299 193.908 223.181 194.366 223.181C194.452 223.181 194.559 223.182 194.689 223.186C194.818 223.189 194.916 223.194 194.982 223.201V224.394C194.942 224.384 194.851 224.369 194.709 224.349C194.569 224.326 194.422 224.314 194.266 224.314C193.895 224.314 193.563 224.392 193.272 224.548C192.983 224.7 192.755 224.913 192.586 225.184C192.42 225.453 192.337 225.759 192.337 226.104V230.937H191.164ZM208.543 220.755V230.937H207.35L201.802 222.942H201.702V230.937H200.469V220.755H201.663L207.231 228.769H207.33V220.755H208.543ZM213.954 231.096C213.264 231.096 212.659 230.932 212.139 230.603C211.622 230.275 211.218 229.816 210.926 229.226C210.638 228.636 210.493 227.947 210.493 227.158C210.493 226.363 210.638 225.668 210.926 225.075C211.218 224.482 211.622 224.021 212.139 223.693C212.659 223.365 213.264 223.201 213.954 223.201C214.643 223.201 215.246 223.365 215.763 223.693C216.284 224.021 216.688 224.482 216.976 225.075C217.268 225.668 217.414 226.363 217.414 227.158C217.414 227.947 217.268 228.636 216.976 229.226C216.688 229.816 216.284 230.275 215.763 230.603C215.246 230.932 214.643 231.096 213.954 231.096ZM213.954 230.042C214.477 230.042 214.908 229.907 215.246 229.639C215.584 229.37 215.835 229.017 215.997 228.58C216.159 228.142 216.241 227.669 216.241 227.158C216.241 226.648 216.159 226.172 215.997 225.731C215.835 225.29 215.584 224.934 215.246 224.662C214.908 224.391 214.477 224.255 213.954 224.255C213.43 224.255 212.999 224.391 212.661 224.662C212.323 224.934 212.073 225.29 211.91 225.731C211.748 226.172 211.667 226.648 211.667 227.158C211.667 227.669 211.748 228.142 211.91 228.58C212.073 229.017 212.323 229.37 212.661 229.639C212.999 229.907 213.43 230.042 213.954 230.042ZM222.526 223.3V224.294H218.568V223.3H222.526ZM219.722 221.471H220.895V228.749C220.895 229.08 220.943 229.329 221.039 229.495C221.139 229.657 221.265 229.767 221.417 229.823C221.573 229.876 221.737 229.902 221.909 229.902C222.039 229.902 222.145 229.896 222.228 229.883C222.31 229.866 222.377 229.853 222.426 229.843L222.665 230.897C222.586 230.927 222.474 230.956 222.332 230.986C222.189 231.019 222.009 231.036 221.79 231.036C221.459 231.036 221.134 230.965 220.816 230.822C220.501 230.68 220.239 230.463 220.03 230.171C219.825 229.879 219.722 229.511 219.722 229.067V221.471ZM224.291 230.937V223.3H225.464V230.937H224.291ZM224.887 222.027C224.659 222.027 224.461 221.95 224.296 221.794C224.133 221.638 224.052 221.451 224.052 221.232C224.052 221.013 224.133 220.826 224.296 220.67C224.461 220.514 224.659 220.437 224.887 220.437C225.116 220.437 225.312 220.514 225.474 220.67C225.64 220.826 225.723 221.013 225.723 221.232C225.723 221.451 225.64 221.638 225.474 221.794C225.312 221.95 225.116 222.027 224.887 222.027ZM231.014 223.3V224.294H226.897V223.3H231.014ZM228.13 230.937V222.246C228.13 221.809 228.233 221.444 228.438 221.152C228.644 220.861 228.911 220.642 229.239 220.496C229.567 220.35 229.913 220.277 230.278 220.277C230.566 220.277 230.801 220.301 230.984 220.347C231.166 220.393 231.302 220.437 231.391 220.476L231.053 221.491C230.994 221.471 230.911 221.446 230.805 221.416C230.702 221.386 230.566 221.371 230.397 221.371C230.009 221.371 229.729 221.469 229.557 221.665C229.388 221.86 229.303 222.147 229.303 222.525V230.937H228.13ZM232.658 230.937V223.3H233.831V230.937H232.658ZM233.255 222.027C233.026 222.027 232.829 221.95 232.663 221.794C232.501 221.638 232.419 221.451 232.419 221.232C232.419 221.013 232.501 220.826 232.663 220.67C232.829 220.514 233.026 220.437 233.255 220.437C233.483 220.437 233.679 220.514 233.841 220.67C234.007 220.826 234.09 221.013 234.09 221.232C234.09 221.451 234.007 221.638 233.841 221.794C233.679 221.95 233.483 222.027 233.255 222.027ZM239.083 231.096C238.367 231.096 237.75 230.927 237.233 230.589C236.716 230.25 236.318 229.785 236.04 229.191C235.761 228.598 235.622 227.92 235.622 227.158C235.622 226.383 235.765 225.698 236.05 225.105C236.338 224.508 236.739 224.043 237.253 223.708C237.77 223.37 238.373 223.201 239.063 223.201C239.6 223.201 240.083 223.3 240.514 223.499C240.945 223.698 241.298 223.976 241.573 224.334C241.848 224.692 242.019 225.11 242.085 225.587H240.912C240.823 225.239 240.624 224.931 240.315 224.662C240.011 224.391 239.6 224.255 239.083 224.255C238.625 224.255 238.224 224.374 237.879 224.613C237.538 224.848 237.271 225.181 237.079 225.612C236.89 226.04 236.796 226.542 236.796 227.118C236.796 227.708 236.888 228.222 237.074 228.66C237.263 229.097 237.528 229.437 237.869 229.679C238.214 229.921 238.618 230.042 239.083 230.042C239.387 230.042 239.664 229.989 239.913 229.883C240.161 229.776 240.372 229.624 240.544 229.425C240.717 229.226 240.839 228.988 240.912 228.709H242.085C242.019 229.16 241.855 229.566 241.593 229.927C241.335 230.285 240.992 230.57 240.564 230.782C240.14 230.991 239.646 231.096 239.083 231.096ZM246.048 231.116C245.564 231.116 245.125 231.024 244.73 230.842C244.336 230.656 244.023 230.39 243.791 230.042C243.559 229.69 243.443 229.266 243.443 228.769C243.443 228.331 243.529 227.977 243.701 227.705C243.873 227.43 244.104 227.214 244.392 227.059C244.681 226.903 244.999 226.787 245.347 226.711C245.698 226.631 246.051 226.568 246.406 226.522C246.87 226.462 247.246 226.417 247.534 226.388C247.826 226.354 248.038 226.3 248.171 226.223C248.306 226.147 248.374 226.015 248.374 225.826V225.786C248.374 225.295 248.24 224.914 247.972 224.642C247.707 224.371 247.304 224.235 246.764 224.235C246.203 224.235 245.764 224.357 245.446 224.603C245.128 224.848 244.904 225.11 244.775 225.388L243.661 224.991C243.86 224.526 244.125 224.165 244.457 223.907C244.792 223.645 245.156 223.463 245.551 223.36C245.948 223.254 246.339 223.201 246.724 223.201C246.969 223.201 247.251 223.231 247.569 223.29C247.891 223.347 248.2 223.464 248.499 223.643C248.8 223.822 249.051 224.092 249.249 224.454C249.448 224.815 249.548 225.299 249.548 225.905V230.937H248.374V229.902H248.315C248.235 230.068 248.103 230.245 247.917 230.434C247.731 230.623 247.484 230.784 247.176 230.917C246.868 231.049 246.492 231.116 246.048 231.116ZM246.227 230.062C246.691 230.062 247.082 229.97 247.4 229.788C247.721 229.606 247.963 229.37 248.126 229.082C248.292 228.794 248.374 228.491 248.374 228.172V227.098C248.325 227.158 248.215 227.213 248.046 227.263C247.881 227.309 247.688 227.35 247.47 227.387C247.254 227.42 247.044 227.45 246.838 227.476C246.636 227.499 246.472 227.519 246.346 227.536C246.041 227.576 245.756 227.64 245.491 227.73C245.229 227.816 245.017 227.947 244.855 228.123C244.695 228.295 244.616 228.53 244.616 228.829C244.616 229.236 244.767 229.544 245.068 229.753C245.373 229.959 245.759 230.062 246.227 230.062ZM255.01 223.3V224.294H251.053V223.3H255.01ZM252.206 221.471H253.38V228.749C253.38 229.08 253.428 229.329 253.524 229.495C253.623 229.657 253.749 229.767 253.902 229.823C254.057 229.876 254.221 229.902 254.394 229.902C254.523 229.902 254.629 229.896 254.712 229.883C254.795 229.866 254.861 229.853 254.911 229.843L255.149 230.897C255.07 230.927 254.959 230.956 254.816 230.986C254.674 231.019 254.493 231.036 254.274 231.036C253.943 231.036 253.618 230.965 253.3 230.822C252.985 230.68 252.723 230.463 252.515 230.171C252.309 229.879 252.206 229.511 252.206 229.067V221.471ZM256.775 230.937V223.3H257.948V230.937H256.775ZM257.372 222.027C257.143 222.027 256.946 221.95 256.78 221.794C256.618 221.638 256.537 221.451 256.537 221.232C256.537 221.013 256.618 220.826 256.78 220.67C256.946 220.514 257.143 220.437 257.372 220.437C257.6 220.437 257.796 220.514 257.958 220.67C258.124 220.826 258.207 221.013 258.207 221.232C258.207 221.451 258.124 221.638 257.958 221.794C257.796 221.95 257.6 222.027 257.372 222.027ZM263.2 231.096C262.51 231.096 261.905 230.932 261.385 230.603C260.868 230.275 260.464 229.816 260.172 229.226C259.884 228.636 259.739 227.947 259.739 227.158C259.739 226.363 259.884 225.668 260.172 225.075C260.464 224.482 260.868 224.021 261.385 223.693C261.905 223.365 262.51 223.201 263.2 223.201C263.889 223.201 264.492 223.365 265.009 223.693C265.53 224.021 265.934 224.482 266.222 225.075C266.514 225.668 266.66 226.363 266.66 227.158C266.66 227.947 266.514 228.636 266.222 229.226C265.934 229.816 265.53 230.275 265.009 230.603C264.492 230.932 263.889 231.096 263.2 231.096ZM263.2 230.042C263.723 230.042 264.154 229.907 264.492 229.639C264.83 229.37 265.081 229.017 265.243 228.58C265.405 228.142 265.487 227.669 265.487 227.158C265.487 226.648 265.405 226.172 265.243 225.731C265.081 225.29 264.83 224.934 264.492 224.662C264.154 224.391 263.723 224.255 263.2 224.255C262.676 224.255 262.245 224.391 261.907 224.662C261.569 224.934 261.319 225.29 261.156 225.731C260.994 226.172 260.913 226.648 260.913 227.158C260.913 227.669 260.994 228.142 261.156 228.58C261.319 229.017 261.569 229.37 261.907 229.639C262.245 229.907 262.676 230.042 263.2 230.042ZM269.624 226.343V230.937H268.451V223.3H269.584V224.493H269.684C269.863 224.106 270.135 223.794 270.499 223.559C270.864 223.32 271.334 223.201 271.911 223.201C272.428 223.201 272.881 223.307 273.268 223.519C273.656 223.728 273.958 224.046 274.173 224.473C274.389 224.898 274.496 225.435 274.496 226.084V230.937H273.323V226.164C273.323 225.564 273.167 225.097 272.856 224.762C272.544 224.424 272.117 224.255 271.573 224.255C271.199 224.255 270.864 224.336 270.569 224.498C270.277 224.661 270.047 224.898 269.878 225.209C269.709 225.521 269.624 225.899 269.624 226.343Z" fill="#424242"/>
<circle cx="335.802" cy="224.936" r="4.48408" fill="#7244AE"/>
<path d="M353.707 220.153V229.937H352.522V221.395H352.465L350.076 222.981V221.777L352.522 220.153H353.707ZM362.718 229.937V220.153H363.903V224.51H369.119V220.153H370.304V229.937H369.119V225.561H363.903V229.937H362.718ZM376.625 230.089C375.962 230.089 375.381 229.932 374.881 229.616C374.384 229.301 373.996 228.86 373.716 228.293C373.438 227.726 373.3 227.064 373.3 226.306C373.3 225.542 373.438 224.874 373.716 224.304C373.996 223.734 374.384 223.292 374.881 222.976C375.381 222.661 375.962 222.503 376.625 222.503C377.287 222.503 377.867 222.661 378.364 222.976C378.864 223.292 379.252 223.734 379.529 224.304C379.81 224.874 379.95 225.542 379.95 226.306C379.95 227.064 379.81 227.726 379.529 228.293C379.252 228.86 378.864 229.301 378.364 229.616C377.867 229.932 377.287 230.089 376.625 230.089ZM376.625 229.077C377.128 229.077 377.542 228.948 377.867 228.69C378.192 228.432 378.432 228.093 378.588 227.672C378.744 227.252 378.822 226.796 378.822 226.306C378.822 225.816 378.744 225.358 378.588 224.935C378.432 224.511 378.192 224.169 377.867 223.908C377.542 223.647 377.128 223.516 376.625 223.516C376.122 223.516 375.708 223.647 375.383 223.908C375.058 224.169 374.817 224.511 374.661 224.935C374.505 225.358 374.427 225.816 374.427 226.306C374.427 226.796 374.505 227.252 374.661 227.672C374.817 228.093 375.058 228.432 375.383 228.69C375.708 228.948 376.122 229.077 376.625 229.077ZM387.416 226.937V222.599H388.543V229.937H387.416V228.694H387.339C387.167 229.067 386.9 229.384 386.537 229.645C386.174 229.903 385.715 230.032 385.161 230.032C384.702 230.032 384.295 229.932 383.938 229.731C383.581 229.527 383.301 229.222 383.097 228.814C382.894 228.403 382.792 227.886 382.792 227.261V222.599H383.919V227.185C383.919 227.72 384.069 228.147 384.368 228.465C384.671 228.784 385.056 228.943 385.524 228.943C385.804 228.943 386.089 228.871 386.379 228.728C386.672 228.585 386.917 228.365 387.115 228.069C387.315 227.773 387.416 227.395 387.416 226.937ZM391.729 229.937V222.599H392.818V223.707H392.895C393.028 223.344 393.271 223.05 393.621 222.823C393.971 222.597 394.366 222.484 394.806 222.484C394.888 222.484 394.992 222.486 395.116 222.489C395.24 222.492 395.334 222.497 395.398 222.503V223.65C395.36 223.64 395.272 223.626 395.135 223.607C395.001 223.585 394.86 223.573 394.71 223.573C394.353 223.573 394.035 223.648 393.755 223.798C393.478 223.944 393.258 224.148 393.095 224.409C392.936 224.667 392.856 224.962 392.856 225.293V229.937H391.729Z" fill="#C9C9C9"/>
<circle cx="335.802" cy="243.994" r="4.48408" fill="#3386FF"/>
<path d="M353.707 239.211V248.994H352.522V240.453H352.465L350.076 242.039V240.835L352.522 239.211H353.707ZM357.641 248.994V248.134L360.871 244.599C361.25 244.185 361.562 243.825 361.807 243.52C362.052 243.211 362.234 242.921 362.352 242.65C362.473 242.376 362.533 242.09 362.533 241.79C362.533 241.446 362.45 241.149 362.285 240.897C362.122 240.645 361.899 240.451 361.616 240.314C361.332 240.177 361.014 240.109 360.661 240.109C360.285 240.109 359.957 240.187 359.676 240.343C359.399 240.496 359.184 240.711 359.032 240.988C358.882 241.265 358.807 241.59 358.807 241.962H357.68C357.68 241.389 357.812 240.886 358.076 240.453C358.34 240.02 358.7 239.682 359.156 239.44C359.614 239.198 360.129 239.077 360.699 239.077C361.272 239.077 361.78 239.198 362.223 239.44C362.665 239.682 363.012 240.008 363.264 240.419C363.516 240.83 363.641 241.287 363.641 241.79C363.641 242.15 363.576 242.502 363.446 242.846C363.318 243.187 363.095 243.567 362.777 243.988C362.461 244.405 362.024 244.915 361.463 245.516L359.266 247.867V247.943H363.813V248.994H357.641ZM371.984 248.994V239.211H373.168V243.567H378.385V239.211H379.57V248.994H378.385V244.618H373.168V248.994H371.984ZM385.891 249.147C385.228 249.147 384.647 248.989 384.147 248.674C383.65 248.359 383.262 247.918 382.981 247.351C382.704 246.784 382.566 246.122 382.566 245.364C382.566 244.599 382.704 243.932 382.981 243.362C383.262 242.792 383.65 242.349 384.147 242.034C384.647 241.719 385.228 241.561 385.891 241.561C386.553 241.561 387.133 241.719 387.629 242.034C388.129 242.349 388.518 242.792 388.795 243.362C389.075 243.932 389.215 244.599 389.215 245.364C389.215 246.122 389.075 246.784 388.795 247.351C388.518 247.918 388.129 248.359 387.629 248.674C387.133 248.989 386.553 249.147 385.891 249.147ZM385.891 248.134C386.394 248.134 386.808 248.005 387.133 247.747C387.457 247.489 387.698 247.15 387.854 246.73C388.01 246.309 388.088 245.854 388.088 245.364C388.088 244.873 388.01 244.416 387.854 243.993C387.698 243.569 387.457 243.227 387.133 242.965C386.808 242.704 386.394 242.574 385.891 242.574C385.387 242.574 384.973 242.704 384.649 242.965C384.324 243.227 384.083 243.569 383.927 243.993C383.771 244.416 383.693 244.873 383.693 245.364C383.693 245.854 383.771 246.309 383.927 246.73C384.083 247.15 384.324 247.489 384.649 247.747C384.973 248.005 385.387 248.134 385.891 248.134ZM396.682 245.994V241.657H397.809V248.994H396.682V247.752H396.605C396.433 248.125 396.166 248.442 395.803 248.703C395.44 248.961 394.981 249.09 394.427 249.09C393.968 249.09 393.561 248.989 393.204 248.789C392.847 248.585 392.567 248.279 392.363 247.872C392.159 247.461 392.057 246.943 392.057 246.319V241.657H393.185V246.243C393.185 246.778 393.334 247.204 393.634 247.523C393.936 247.841 394.322 248.001 394.79 248.001C395.07 248.001 395.355 247.929 395.645 247.786C395.938 247.642 396.183 247.422 396.381 247.126C396.581 246.83 396.682 246.453 396.682 245.994ZM400.995 248.994V241.657H402.084V242.765H402.161C402.294 242.402 402.536 242.107 402.887 241.881C403.237 241.655 403.632 241.542 404.071 241.542C404.154 241.542 404.258 241.544 404.382 241.547C404.506 241.55 404.6 241.555 404.664 241.561V242.708C404.625 242.698 404.538 242.684 404.401 242.665C404.267 242.642 404.125 242.631 403.976 242.631C403.619 242.631 403.301 242.706 403.02 242.856C402.743 243.002 402.524 243.206 402.361 243.467C402.202 243.725 402.122 244.02 402.122 244.351V248.994H400.995Z" fill="#C9C9C9"/>
<path d="M158.631 275.535C158.631 273.678 157.125 272.172 155.268 272.172C153.41 272.172 151.905 273.678 151.905 275.535V356.248H158.631V275.535Z" fill="#EEEEEE"/>
<path d="M158.631 284.503C158.631 282.645 157.125 281.14 155.268 281.14C153.41 281.14 151.905 282.645 151.905 284.503V356.248H158.631V284.503Z" fill="#7244AE"/>
<path d="M181.051 275.535C181.051 273.678 179.545 272.172 177.688 272.172C175.831 272.172 174.325 273.678 174.325 275.535V356.248H181.051V275.535Z" fill="#EEEEEE"/>
<path d="M181.051 318.134C181.051 316.276 179.545 314.771 177.688 314.771C175.831 314.771 174.325 316.276 174.325 318.134V356.248H181.051V318.134Z" fill="#3386FF"/>
<path d="M203.472 275.535C203.472 273.678 201.966 272.172 200.109 272.172C198.251 272.172 196.745 273.678 196.745 275.535V356.248H203.472V275.535Z" fill="#EEEEEE"/>
<path d="M203.472 293.471C203.472 291.614 201.966 290.108 200.109 290.108C198.251 290.108 196.745 291.614 196.745 293.471V356.249H203.472V293.471Z" fill="#7244AE"/>
<path d="M225.892 275.535C225.892 273.678 224.386 272.172 222.529 272.172C220.671 272.172 219.166 273.678 219.166 275.535V356.248H225.892V275.535Z" fill="#EEEEEE"/>
<path d="M225.892 281.14C225.892 279.283 224.386 277.777 222.529 277.777C220.671 277.777 219.166 279.283 219.166 281.14V356.249H225.892V281.14Z" fill="#3386FF"/>
<path d="M248.312 275.535C248.312 273.678 246.807 272.172 244.949 272.172C243.092 272.172 241.586 273.678 241.586 275.535V356.248H248.312V275.535Z" fill="#EEEEEE"/>
<path d="M248.312 327.101C248.312 325.244 246.807 323.738 244.949 323.738C243.092 323.738 241.586 325.244 241.586 327.101V356.248H248.312V327.101Z" fill="#7244AE"/>
<path d="M270.733 275.535C270.733 273.678 269.227 272.172 267.369 272.172C265.512 272.172 264.006 273.678 264.006 275.535V356.248H270.733V275.535Z" fill="#EEEEEE"/>
<path d="M270.733 299.076C270.733 297.219 269.227 295.713 267.369 295.713C265.512 295.713 264.006 297.219 264.006 299.076V356.248H270.733V299.076Z" fill="#3386FF"/>
<path d="M293.153 275.535C293.153 273.678 291.647 272.172 289.79 272.172C287.933 272.172 286.427 273.678 286.427 275.535V356.248H293.153V275.535Z" fill="#EEEEEE"/>
<path d="M293.153 290.108C293.153 288.251 291.647 286.745 289.79 286.745C287.933 286.745 286.427 288.251 286.427 290.108V356.248H293.153V290.108Z" fill="#7244AE"/>
<path d="M315.573 275.535C315.573 273.678 314.068 272.172 312.21 272.172C310.353 272.172 308.847 273.678 308.847 275.535V356.248H315.573V275.535Z" fill="#EEEEEE"/>
<path d="M315.573 309.166C315.573 307.308 314.068 305.803 312.21 305.803C310.353 305.803 308.847 307.308 308.847 309.166V356.249H315.573V309.166Z" fill="#3386FF"/>
<path d="M337.994 275.535C337.994 273.678 336.488 272.172 334.631 272.172C332.773 272.172 331.268 273.678 331.268 275.535V356.248H337.994V275.535Z" fill="#EEEEEE"/>
<path d="M337.994 295.714C337.994 293.856 336.488 292.351 334.631 292.351C332.773 292.351 331.268 293.856 331.268 295.714V356.249H337.994V295.714Z" fill="#7244AE"/>
<path d="M360.414 275.535C360.414 273.678 358.908 272.172 357.051 272.172C355.194 272.172 353.688 273.678 353.688 275.535V356.248H360.414V275.535Z" fill="#EEEEEE"/>
<path d="M360.414 282.261C360.414 280.403 358.908 278.897 357.051 278.897C355.194 278.897 353.688 280.403 353.688 282.261V356.248H360.414V282.261Z" fill="#3386FF"/>
<path d="M382.834 275.535C382.834 273.678 381.329 272.172 379.471 272.172C377.614 272.172 376.108 273.678 376.108 275.535V356.248H382.834V275.535Z" fill="#EEEEEE"/>
<path d="M382.834 285.624C382.834 283.766 381.329 282.261 379.471 282.261C377.614 282.261 376.108 283.766 376.108 285.624V356.248H382.834V285.624Z" fill="#7244AE"/>
<path d="M405.255 275.535C405.255 273.678 403.749 272.172 401.892 272.172C400.034 272.172 398.529 273.678 398.529 275.535V356.248H405.255V275.535Z" fill="#EEEEEE"/>
<path d="M405.255 282.261C405.255 280.403 403.749 278.897 401.892 278.897C400.034 278.897 398.529 280.403 398.529 282.261V356.248H405.255V282.261Z" fill="#3386FF"/>
</g>
<g filter="url(#filter2_d_221_7161)">
<rect x="370" y="101" width="200.468" height="179.395" rx="18.8228" fill="white"/>
<path d="M401.317 133.823L398.532 123.641H399.785L401.913 131.934H402.013L404.18 123.641H405.572L407.74 131.934H407.839L409.967 123.641H411.22L408.436 133.823H407.163L404.916 125.71H404.836L402.589 133.823H401.317ZM415.088 133.982C414.352 133.982 413.717 133.82 413.184 133.495C412.653 133.167 412.244 132.71 411.956 132.123C411.671 131.533 411.528 130.847 411.528 130.065C411.528 129.283 411.671 128.593 411.956 127.997C412.244 127.397 412.645 126.929 413.159 126.595C413.676 126.256 414.279 126.087 414.969 126.087C415.366 126.087 415.759 126.154 416.147 126.286C416.535 126.419 416.888 126.634 417.206 126.933C417.524 127.228 417.778 127.619 417.966 128.106C418.155 128.593 418.25 129.193 418.25 129.906V130.403H412.363V129.389H417.057C417.057 128.958 416.97 128.573 416.798 128.235C416.629 127.897 416.387 127.63 416.072 127.435C415.761 127.239 415.393 127.141 414.969 127.141C414.501 127.141 414.097 127.257 413.755 127.489C413.417 127.718 413.157 128.016 412.975 128.384C412.793 128.752 412.702 129.147 412.702 129.568V130.244C412.702 130.82 412.801 131.309 413 131.71C413.202 132.108 413.482 132.411 413.84 132.62C414.198 132.826 414.614 132.928 415.088 132.928C415.396 132.928 415.675 132.885 415.923 132.799C416.175 132.71 416.392 132.577 416.574 132.401C416.757 132.222 416.898 132 416.997 131.735L418.13 132.053C418.011 132.438 417.811 132.776 417.529 133.068C417.247 133.356 416.899 133.581 416.485 133.744C416.071 133.903 415.605 133.982 415.088 133.982ZM420.194 133.823V123.641H421.367V127.4H421.466C421.553 127.267 421.672 127.098 421.824 126.893C421.98 126.684 422.202 126.498 422.491 126.336C422.782 126.17 423.177 126.087 423.674 126.087C424.317 126.087 424.884 126.248 425.374 126.57C425.865 126.891 426.247 127.347 426.523 127.937C426.798 128.527 426.935 129.223 426.935 130.025C426.935 130.834 426.798 131.535 426.523 132.128C426.247 132.718 425.866 133.175 425.379 133.5C424.892 133.822 424.33 133.982 423.694 133.982C423.203 133.982 422.81 133.901 422.515 133.739C422.22 133.573 421.993 133.386 421.834 133.177C421.675 132.965 421.553 132.789 421.466 132.65H421.327V133.823H420.194ZM421.347 130.005C421.347 130.582 421.432 131.091 421.601 131.531C421.77 131.969 422.017 132.312 422.341 132.56C422.666 132.806 423.064 132.928 423.535 132.928C424.025 132.928 424.434 132.799 424.763 132.541C425.094 132.279 425.343 131.927 425.508 131.487C425.677 131.042 425.762 130.549 425.762 130.005C425.762 129.468 425.679 128.984 425.513 128.553C425.351 128.119 425.104 127.776 424.773 127.524C424.444 127.269 424.032 127.141 423.535 127.141C423.057 127.141 422.656 127.262 422.331 127.504C422.007 127.743 421.761 128.078 421.596 128.509C421.43 128.936 421.347 129.435 421.347 130.005ZM438.077 127.897L437.023 128.195C436.956 128.02 436.858 127.849 436.729 127.683C436.603 127.514 436.431 127.375 436.212 127.266C435.993 127.156 435.713 127.102 435.372 127.102C434.905 127.102 434.515 127.209 434.204 127.425C433.895 127.637 433.741 127.907 433.741 128.235C433.741 128.527 433.847 128.757 434.059 128.926C434.272 129.095 434.603 129.236 435.054 129.349L436.187 129.627C436.87 129.793 437.379 130.046 437.714 130.388C438.048 130.726 438.216 131.162 438.216 131.695C438.216 132.133 438.09 132.524 437.838 132.869C437.589 133.213 437.241 133.485 436.794 133.684C436.346 133.883 435.826 133.982 435.233 133.982C434.454 133.982 433.809 133.813 433.299 133.475C432.788 133.137 432.465 132.643 432.329 131.994L433.443 131.715C433.549 132.126 433.75 132.435 434.045 132.64C434.343 132.845 434.732 132.948 435.213 132.948C435.76 132.948 436.194 132.832 436.515 132.6C436.84 132.365 437.003 132.083 437.003 131.755C437.003 131.49 436.91 131.268 436.724 131.089C436.539 130.907 436.254 130.771 435.869 130.681L434.596 130.383C433.897 130.217 433.383 129.96 433.055 129.612C432.73 129.261 432.568 128.822 432.568 128.295C432.568 127.864 432.689 127.483 432.931 127.151C433.176 126.82 433.509 126.56 433.93 126.371C434.354 126.182 434.835 126.087 435.372 126.087C436.128 126.087 436.721 126.253 437.152 126.585C437.586 126.916 437.894 127.354 438.077 127.897ZM443.184 133.982C442.448 133.982 441.813 133.82 441.279 133.495C440.749 133.167 440.34 132.71 440.051 132.123C439.766 131.533 439.624 130.847 439.624 130.065C439.624 129.283 439.766 128.593 440.051 127.997C440.34 127.397 440.741 126.929 441.255 126.595C441.772 126.256 442.375 126.087 443.064 126.087C443.462 126.087 443.855 126.154 444.243 126.286C444.63 126.419 444.983 126.634 445.301 126.933C445.62 127.228 445.873 127.619 446.062 128.106C446.251 128.593 446.346 129.193 446.346 129.906V130.403H440.459V129.389H445.152C445.152 128.958 445.066 128.573 444.894 128.235C444.725 127.897 444.483 127.63 444.168 127.435C443.856 127.239 443.489 127.141 443.064 127.141C442.597 127.141 442.193 127.257 441.851 127.489C441.513 127.718 441.253 128.016 441.071 128.384C440.888 128.752 440.797 129.147 440.797 129.568V130.244C440.797 130.82 440.897 131.309 441.096 131.71C441.298 132.108 441.578 132.411 441.936 132.62C442.294 132.826 442.71 132.928 443.184 132.928C443.492 132.928 443.77 132.885 444.019 132.799C444.271 132.71 444.488 132.577 444.67 132.401C444.852 132.222 444.993 132 445.093 131.735L446.226 132.053C446.107 132.438 445.906 132.776 445.625 133.068C445.343 133.356 444.995 133.581 444.581 133.744C444.166 133.903 443.701 133.982 443.184 133.982ZM448.13 133.823V126.187H449.264V127.34H449.343C449.483 126.962 449.734 126.656 450.099 126.421C450.464 126.185 450.875 126.068 451.332 126.068C451.418 126.068 451.526 126.069 451.655 126.073C451.784 126.076 451.882 126.081 451.949 126.087V127.281C451.909 127.271 451.818 127.256 451.675 127.236C451.536 127.213 451.388 127.201 451.233 127.201C450.861 127.201 450.53 127.279 450.238 127.435C449.95 127.587 449.721 127.799 449.552 128.071C449.386 128.34 449.304 128.646 449.304 128.991V133.823H448.13ZM459.816 126.187L456.992 133.823H455.799L452.975 126.187H454.248L456.356 132.272H456.435L458.543 126.187H459.816ZM464.293 133.982C463.557 133.982 462.922 133.82 462.389 133.495C461.859 133.167 461.449 132.71 461.161 132.123C460.876 131.533 460.733 130.847 460.733 130.065C460.733 129.283 460.876 128.593 461.161 127.997C461.449 127.397 461.85 126.929 462.364 126.595C462.881 126.256 463.484 126.087 464.174 126.087C464.571 126.087 464.964 126.154 465.352 126.286C465.74 126.419 466.093 126.634 466.411 126.933C466.729 127.228 466.983 127.619 467.172 128.106C467.36 128.593 467.455 129.193 467.455 129.906V130.403H461.569V129.389H466.262C466.262 128.958 466.176 128.573 466.003 128.235C465.834 127.897 465.592 127.63 465.277 127.435C464.966 127.239 464.598 127.141 464.174 127.141C463.706 127.141 463.302 127.257 462.961 127.489C462.623 127.718 462.362 128.016 462.18 128.384C461.998 128.752 461.907 129.147 461.907 129.568V130.244C461.907 130.82 462.006 131.309 462.205 131.71C462.407 132.108 462.687 132.411 463.045 132.62C463.403 132.826 463.819 132.928 464.293 132.928C464.601 132.928 464.88 132.885 465.128 132.799C465.38 132.71 465.597 132.577 465.779 132.401C465.962 132.222 466.103 132 466.202 131.735L467.336 132.053C467.216 132.438 467.016 132.776 466.734 133.068C466.452 133.356 466.104 133.581 465.69 133.744C465.276 133.903 464.81 133.982 464.293 133.982ZM469.24 133.823V126.187H470.373V127.34H470.453C470.592 126.962 470.844 126.656 471.208 126.421C471.573 126.185 471.984 126.068 472.441 126.068C472.528 126.068 472.635 126.069 472.765 126.073C472.894 126.076 472.992 126.081 473.058 126.087V127.281C473.018 127.271 472.927 127.256 472.784 127.236C472.645 127.213 472.498 127.201 472.342 127.201C471.971 127.201 471.639 127.279 471.348 127.435C471.059 127.587 470.831 127.799 470.662 128.071C470.496 128.34 470.413 128.646 470.413 128.991V133.823H469.24ZM482.761 128.185V129.279H478.307V128.185H482.761ZM488.922 123.641H490.394L493.854 132.093H493.973L497.434 123.641H498.905V133.823H497.752V126.087H497.652L494.471 133.823H493.357L490.175 126.087H490.076V133.823H488.922V123.641ZM504.42 133.982C503.684 133.982 503.049 133.82 502.516 133.495C501.985 133.167 501.576 132.71 501.288 132.123C501.003 131.533 500.86 130.847 500.86 130.065C500.86 129.283 501.003 128.593 501.288 127.997C501.576 127.397 501.977 126.929 502.491 126.595C503.008 126.256 503.611 126.087 504.301 126.087C504.698 126.087 505.091 126.154 505.479 126.286C505.867 126.419 506.22 126.634 506.538 126.933C506.856 127.228 507.11 127.619 507.298 128.106C507.487 128.593 507.582 129.193 507.582 129.906V130.403H501.695V129.389H506.389C506.389 128.958 506.302 128.573 506.13 128.235C505.961 127.897 505.719 127.63 505.404 127.435C505.093 127.239 504.725 127.141 504.301 127.141C503.833 127.141 503.429 127.257 503.088 127.489C502.749 127.718 502.489 128.016 502.307 128.384C502.125 128.752 502.034 129.147 502.034 129.568V130.244C502.034 130.82 502.133 131.309 502.332 131.71C502.534 132.108 502.814 132.411 503.172 132.62C503.53 132.826 503.946 132.928 504.42 132.928C504.728 132.928 505.007 132.885 505.255 132.799C505.507 132.71 505.724 132.577 505.906 132.401C506.089 132.222 506.23 132 506.329 131.735L507.463 132.053C507.343 132.438 507.143 132.776 506.861 133.068C506.579 133.356 506.231 133.581 505.817 133.744C505.403 133.903 504.937 133.982 504.42 133.982ZM509.367 133.823V126.187H510.5V127.38H510.6C510.759 126.972 511.016 126.656 511.37 126.43C511.725 126.202 512.151 126.087 512.648 126.087C513.152 126.087 513.571 126.202 513.906 126.43C514.244 126.656 514.507 126.972 514.696 127.38H514.776C514.971 126.986 515.265 126.672 515.656 126.44C516.047 126.205 516.516 126.087 517.063 126.087C517.745 126.087 518.304 126.301 518.738 126.729C519.172 127.153 519.389 127.814 519.389 128.712V133.823H518.216V128.712C518.216 128.149 518.062 127.746 517.754 127.504C517.445 127.262 517.083 127.141 516.665 127.141C516.128 127.141 515.712 127.304 515.417 127.629C515.122 127.95 514.975 128.358 514.975 128.852V133.823H513.781V128.593C513.781 128.159 513.641 127.809 513.359 127.544C513.077 127.276 512.714 127.141 512.27 127.141C511.965 127.141 511.68 127.223 511.415 127.385C511.153 127.547 510.941 127.773 510.779 128.061C510.619 128.346 510.54 128.676 510.54 129.051V133.823H509.367ZM524.637 133.982C523.947 133.982 523.343 133.818 522.822 133.49C522.305 133.162 521.901 132.703 521.609 132.113C521.321 131.523 521.177 130.834 521.177 130.045C521.177 129.249 521.321 128.555 521.609 127.962C521.901 127.368 522.305 126.908 522.822 126.58C523.343 126.252 523.947 126.087 524.637 126.087C525.326 126.087 525.93 126.252 526.447 126.58C526.967 126.908 527.371 127.368 527.66 127.962C527.951 128.555 528.097 129.249 528.097 130.045C528.097 130.834 527.951 131.523 527.66 132.113C527.371 132.703 526.967 133.162 526.447 133.49C525.93 133.818 525.326 133.982 524.637 133.982ZM524.637 132.928C525.161 132.928 525.591 132.794 525.93 132.526C526.268 132.257 526.518 131.904 526.68 131.467C526.843 131.029 526.924 130.555 526.924 130.045C526.924 129.534 526.843 129.059 526.68 128.618C526.518 128.177 526.268 127.821 525.93 127.549C525.591 127.277 525.161 127.141 524.637 127.141C524.113 127.141 523.682 127.277 523.344 127.549C523.006 127.821 522.756 128.177 522.594 128.618C522.431 129.059 522.35 129.534 522.35 130.045C522.35 130.555 522.431 131.029 522.594 131.467C522.756 131.904 523.006 132.257 523.344 132.526C523.682 132.794 524.113 132.928 524.637 132.928ZM529.888 133.823V126.187H531.022V127.34H531.101C531.24 126.962 531.492 126.656 531.857 126.421C532.221 126.185 532.632 126.068 533.09 126.068C533.176 126.068 533.284 126.069 533.413 126.073C533.542 126.076 533.64 126.081 533.706 126.087V127.281C533.667 127.271 533.575 127.256 533.433 127.236C533.294 127.213 533.146 127.201 532.99 127.201C532.619 127.201 532.288 127.279 531.996 127.435C531.708 127.587 531.479 127.799 531.31 128.071C531.144 128.34 531.061 128.646 531.061 128.991V133.823H529.888ZM536.085 136.687C535.886 136.687 535.709 136.67 535.553 136.637C535.397 136.607 535.29 136.578 535.23 136.548L535.528 135.514C535.813 135.586 536.065 135.613 536.284 135.593C536.503 135.573 536.697 135.475 536.866 135.3C537.038 135.127 537.196 134.847 537.338 134.46L537.557 133.863L534.733 126.187H536.006L538.114 132.272H538.193L540.301 126.187H541.574L538.332 134.937C538.187 135.331 538.006 135.658 537.79 135.916C537.575 136.178 537.325 136.372 537.04 136.498C536.758 136.624 536.44 136.687 536.085 136.687Z" fill="#424242"/>
<path d="M410.771 261.572C403.007 250.241 398.472 236.573 398.472 221.858C398.472 182.691 430.601 150.939 470.234 150.939C509.867 150.939 541.996 182.691 541.996 221.858C541.996 236.573 537.461 250.241 529.697 261.572" stroke="#EEEEEE" stroke-width="9.41138" stroke-linecap="round" stroke-linejoin="round"/>
<path d="M410.771 261.572C403.007 250.241 398.472 236.573 398.472 221.858C398.472 203.079 405.859 186.004 417.917 173.316" stroke="url(#paint15_linear_221_7161)" stroke-width="9.41138" stroke-linecap="round" stroke-linejoin="round"/>
<path d="M445.706 205.639V226.173H441.987V209.258H441.866L437.064 212.326V208.918L442.167 205.639H445.706ZM452.066 226.393C451.457 226.393 450.936 226.18 450.501 225.752C450.067 225.324 449.853 224.803 449.86 224.188C449.853 223.586 450.067 223.071 450.501 222.644C450.936 222.216 451.457 222.002 452.066 222.002C452.654 222.002 453.165 222.216 453.6 222.644C454.041 223.071 454.265 223.586 454.271 224.188C454.265 224.595 454.158 224.966 453.95 225.301C453.75 225.635 453.483 225.902 453.148 226.103C452.821 226.297 452.46 226.393 452.066 226.393ZM464.869 226.454C463.532 226.454 462.336 226.203 461.28 225.702C460.224 225.194 459.385 224.498 458.763 223.616C458.148 222.734 457.821 221.725 457.781 220.588H461.39C461.457 221.43 461.821 222.119 462.483 222.654C463.145 223.182 463.94 223.446 464.869 223.446C465.598 223.446 466.246 223.279 466.814 222.944C467.382 222.61 467.83 222.146 468.158 221.551C468.485 220.956 468.646 220.277 468.639 219.515C468.646 218.74 468.482 218.052 468.148 217.45C467.814 216.848 467.356 216.377 466.774 216.036C466.193 215.689 465.524 215.515 464.769 215.515C464.154 215.508 463.549 215.622 462.954 215.856C462.359 216.09 461.888 216.397 461.54 216.778L458.182 216.227L459.254 205.639H471.166V208.747H462.332L461.741 214.191H461.861C462.242 213.744 462.78 213.373 463.475 213.078C464.171 212.778 464.933 212.627 465.761 212.627C467.005 212.627 468.114 212.921 469.09 213.51C470.066 214.091 470.835 214.893 471.396 215.916C471.958 216.939 472.238 218.108 472.238 219.425C472.238 220.782 471.924 221.992 471.296 223.055C470.674 224.111 469.809 224.943 468.699 225.551C467.596 226.153 466.32 226.454 464.869 226.454ZM482.726 205.358C483.709 205.365 484.664 205.539 485.594 205.88C486.529 206.214 487.372 206.762 488.12 207.524C488.869 208.279 489.464 209.292 489.905 210.562C490.346 211.832 490.567 213.403 490.567 215.274C490.573 217.039 490.386 218.616 490.005 220.007C489.631 221.39 489.093 222.56 488.391 223.516C487.689 224.472 486.844 225.2 485.854 225.702C484.865 226.203 483.752 226.454 482.515 226.454C481.219 226.454 480.069 226.2 479.066 225.692C478.07 225.184 477.265 224.488 476.65 223.606C476.035 222.724 475.657 221.714 475.517 220.578H479.177C479.364 221.394 479.745 222.042 480.32 222.523C480.901 222.998 481.633 223.235 482.515 223.235C483.939 223.235 485.035 222.617 485.804 221.38C486.573 220.144 486.957 218.426 486.957 216.227H486.817C486.489 216.815 486.065 217.323 485.543 217.751C485.022 218.172 484.431 218.496 483.769 218.723C483.114 218.951 482.419 219.064 481.683 219.064C480.48 219.064 479.397 218.777 478.435 218.202C477.479 217.627 476.72 216.838 476.159 215.836C475.604 214.833 475.323 213.687 475.317 212.397C475.317 211.06 475.624 209.86 476.239 208.797C476.861 207.728 477.726 206.886 478.836 206.271C479.945 205.649 481.242 205.345 482.726 205.358ZM482.736 208.366C482.014 208.366 481.362 208.543 480.781 208.897C480.206 209.245 479.752 209.72 479.417 210.321C479.09 210.916 478.926 211.581 478.926 212.316C478.933 213.045 479.097 213.707 479.417 214.302C479.745 214.897 480.189 215.368 480.751 215.715C481.319 216.063 481.967 216.237 482.696 216.237C483.237 216.237 483.742 216.133 484.21 215.926C484.678 215.719 485.086 215.431 485.433 215.064C485.787 214.689 486.061 214.265 486.255 213.79C486.456 213.316 486.553 212.814 486.546 212.286C486.546 211.585 486.379 210.936 486.045 210.341C485.717 209.746 485.266 209.268 484.691 208.908C484.123 208.547 483.471 208.366 482.736 208.366ZM499.236 222.679C499.194 222.543 499.136 222.422 499.063 222.315C498.991 222.207 498.904 222.114 498.802 222.037C498.702 221.96 498.587 221.902 498.456 221.864C498.326 221.824 498.184 221.804 498.03 221.804C497.754 221.804 497.509 221.873 497.293 222.012C497.078 222.151 496.908 222.354 496.784 222.624C496.662 222.891 496.601 223.217 496.601 223.601C496.601 223.989 496.662 224.317 496.784 224.586C496.906 224.855 497.076 225.06 497.293 225.2C497.51 225.339 497.763 225.408 498.05 225.408C498.311 225.408 498.537 225.358 498.727 225.258C498.919 225.158 499.067 225.016 499.171 224.832C499.274 224.646 499.326 224.429 499.326 224.18L499.537 224.213H498.143V223.486H500.226V224.102C500.226 224.542 500.132 224.922 499.945 225.243C499.758 225.564 499.501 225.811 499.173 225.985C498.846 226.157 498.47 226.243 498.045 226.243C497.572 226.243 497.157 226.137 496.799 225.925C496.444 225.711 496.165 225.408 495.965 225.015C495.766 224.62 495.666 224.153 495.666 223.611C495.666 223.197 495.725 222.827 495.842 222.501C495.961 222.175 496.126 221.898 496.338 221.671C496.55 221.442 496.799 221.268 497.085 221.15C497.371 221.029 497.682 220.969 498.018 220.969C498.302 220.969 498.567 221.011 498.812 221.095C499.058 221.176 499.276 221.293 499.466 221.445C499.659 221.598 499.817 221.778 499.94 221.987C500.064 222.196 500.145 222.426 500.183 222.679H499.236ZM501.125 226.173V221.039H503.09C503.461 221.039 503.77 221.098 504.015 221.215C504.263 221.33 504.447 221.488 504.569 221.689C504.693 221.889 504.755 222.116 504.755 222.37C504.755 222.579 504.715 222.758 504.634 222.907C504.554 223.054 504.446 223.173 504.311 223.265C504.176 223.357 504.024 223.423 503.857 223.463V223.513C504.04 223.523 504.214 223.579 504.381 223.681C504.55 223.782 504.688 223.924 504.795 224.107C504.902 224.291 504.955 224.513 504.955 224.774C504.955 225.04 504.891 225.279 504.762 225.491C504.634 225.702 504.44 225.868 504.181 225.99C503.922 226.112 503.596 226.173 503.203 226.173H501.125ZM502.055 225.396H503.055C503.393 225.396 503.636 225.331 503.785 225.203C503.935 225.072 504.01 224.905 504.01 224.701C504.01 224.549 503.973 224.412 503.897 224.29C503.822 224.167 503.715 224.07 503.577 224C503.438 223.928 503.272 223.892 503.08 223.892H502.055V225.396ZM502.055 223.223H502.975C503.135 223.223 503.28 223.193 503.409 223.135C503.537 223.075 503.638 222.99 503.712 222.882C503.787 222.771 503.825 222.641 503.825 222.491C503.825 222.292 503.755 222.128 503.614 221.999C503.476 221.871 503.269 221.806 502.995 221.806H502.055V223.223Z" fill="black"/>
</g>
<defs>
<filter id="filter0_d_221_7161" x="20.5986" y="23.5986" width="356.993" height="215.289" filterUnits="userSpaceOnUse" color-interpolation-filters="sRGB">
<feFlood flood-opacity="0" result="BackgroundImageFix"/>
<feColorMatrix in="SourceAlpha" type="matrix" values="0 0 0 0 0 0 0 0 0 0 0 0 0 0 0 0 0 0 127 0" result="hardAlpha"/>
<feOffset/>
<feGaussianBlur stdDeviation="13.2007"/>
<feComposite in2="hardAlpha" operator="out"/>
<feColorMatrix type="matrix" values="0 0 0 0 0.404167 0 0 0 0 0.404167 0 0 0 0 0.404167 0 0 0 0.05 0"/>
<feBlend mode="normal" in2="BackgroundImageFix" result="effect1_dropShadow_221_7161"/>
<feBlend mode="normal" in="SourceGraphic" in2="effect1_dropShadow_221_7161" result="shape"/>
</filter>
<filter id="filter1_d_221_7161" x="99.2166" y="173.217" width="358.726" height="226.751" filterUnits="userSpaceOnUse" color-interpolation-filters="sRGB">
<feFlood flood-opacity="0" result="BackgroundImageFix"/>
<feColorMatrix in="SourceAlpha" type="matrix" values="0 0 0 0 0 0 0 0 0 0 0 0 0 0 0 0 0 0 127 0" result="hardAlpha"/>
<feOffset/>
<feGaussianBlur stdDeviation="12.8917"/>
<feComposite in2="hardAlpha" operator="out"/>
<feColorMatrix type="matrix" values="0 0 0 0 0.404167 0 0 0 0 0.404167 0 0 0 0 0.404167 0 0 0 0.05 0"/>
<feBlend mode="normal" in2="BackgroundImageFix" result="effect1_dropShadow_221_7161"/>
<feBlend mode="normal" in="SourceGraphic" in2="effect1_dropShadow_221_7161" result="shape"/>
</filter>
<filter id="filter2_d_221_7161" x="342.942" y="73.9423" width="254.584" height="233.511" filterUnits="userSpaceOnUse" color-interpolation-filters="sRGB">
<feFlood flood-opacity="0" result="BackgroundImageFix"/>
<feColorMatrix in="SourceAlpha" type="matrix" values="0 0 0 0 0 0 0 0 0 0 0 0 0 0 0 0 0 0 127 0" result="hardAlpha"/>
<feOffset/>
<feGaussianBlur stdDeviation="13.5289"/>
<feComposite in2="hardAlpha" operator="out"/>
<feColorMatrix type="matrix" values="0 0 0 0 0.404167 0 0 0 0 0.404167 0 0 0 0 0.404167 0 0 0 0.05 0"/>
<feBlend mode="normal" in2="BackgroundImageFix" result="effect1_dropShadow_221_7161"/>
<feBlend mode="normal" in="SourceGraphic" in2="effect1_dropShadow_221_7161" result="shape"/>
</filter>
<linearGradient id="paint0_linear_221_7161" x1="90.0459" y1="203.733" x2="71.8112" y2="201.754" gradientUnits="userSpaceOnUse">
<stop stop-color="#00BD7C"/>
<stop offset="1" stop-color="#00D9F5"/>
<stop offset="1" stop-color="#00C6DF"/>
</linearGradient>
<linearGradient id="paint1_linear_221_7161" x1="106.116" y1="199.428" x2="88.3531" y2="195.937" gradientUnits="userSpaceOnUse">
<stop stop-color="#00BD7C"/>
<stop offset="1" stop-color="#00D9F5"/>
<stop offset="1" stop-color="#00C6DF"/>
</linearGradient>
<linearGradient id="paint2_linear_221_7161" x1="122.187" y1="202.586" x2="104.014" y2="200.346" gradientUnits="userSpaceOnUse">
<stop stop-color="#00BD7C"/>
<stop offset="1" stop-color="#00D9F5"/>
<stop offset="1" stop-color="#00C6DF"/>
</linearGradient>
<linearGradient id="paint3_linear_221_7161" x1="138.258" y1="204.164" x2="120.005" y2="202.268" gradientUnits="userSpaceOnUse">
<stop stop-color="#00BD7C"/>
<stop offset="1" stop-color="#00D9F5"/>
<stop offset="1" stop-color="#00C6DF"/>
</linearGradient>
<linearGradient id="paint4_linear_221_7161" x1="154.328" y1="198.281" x2="136.97" y2="193.928" gradientUnits="userSpaceOnUse">
<stop stop-color="#00BD7C"/>
<stop offset="1" stop-color="#00D9F5"/>
<stop offset="1" stop-color="#00C6DF"/>
</linearGradient>
<linearGradient id="paint5_linear_221_7161" x1="170.398" y1="201.868" x2="152.277" y2="199.428" gradientUnits="userSpaceOnUse">
<stop stop-color="#00BD7C"/>
<stop offset="1" stop-color="#00D9F5"/>
<stop offset="1" stop-color="#00C6DF"/>
</linearGradient>
<linearGradient id="paint6_linear_221_7161" x1="186.469" y1="203.016" x2="168.27" y2="200.882" gradientUnits="userSpaceOnUse">
<stop stop-color="#00BD7C"/>
<stop offset="1" stop-color="#00D9F5"/>
<stop offset="1" stop-color="#00C6DF"/>
</linearGradient>
<linearGradient id="paint7_linear_221_7161" x1="202.539" y1="200.577" x2="184.559" y2="197.671" gradientUnits="userSpaceOnUse">
<stop stop-color="#00BD7C"/>
<stop offset="1" stop-color="#00D9F5"/>
<stop offset="1" stop-color="#00C6DF"/>
</linearGradient>
<linearGradient id="paint8_linear_221_7161" x1="218.609" y1="202.299" x2="200.455" y2="199.983" gradientUnits="userSpaceOnUse">
<stop stop-color="#00BD7C"/>
<stop offset="1" stop-color="#00D9F5"/>
<stop offset="1" stop-color="#00C6DF"/>
</linearGradient>
<linearGradient id="paint9_linear_221_7161" x1="234.68" y1="204.02" x2="216.433" y2="202.097" gradientUnits="userSpaceOnUse">
<stop stop-color="#00BD7C"/>
<stop offset="1" stop-color="#00D9F5"/>
<stop offset="1" stop-color="#00C6DF"/>
</linearGradient>
<linearGradient id="paint10_linear_221_7161" x1="250.75" y1="203.016" x2="232.551" y2="200.882" gradientUnits="userSpaceOnUse">
<stop stop-color="#00BD7C"/>
<stop offset="1" stop-color="#00D9F5"/>
<stop offset="1" stop-color="#00C6DF"/>
</linearGradient>
<linearGradient id="paint11_linear_221_7161" x1="266.821" y1="200.577" x2="248.841" y2="197.671" gradientUnits="userSpaceOnUse">
<stop stop-color="#00BD7C"/>
<stop offset="1" stop-color="#00D9F5"/>
<stop offset="1" stop-color="#00C6DF"/>
</linearGradient>
<linearGradient id="paint12_linear_221_7161" x1="282.891" y1="196.272" x2="267.952" y2="189.03" gradientUnits="userSpaceOnUse">
<stop stop-color="#00BD7C"/>
<stop offset="1" stop-color="#00D9F5"/>
<stop offset="1" stop-color="#00C6DF"/>
</linearGradient>
<linearGradient id="paint13_linear_221_7161" x1="298.961" y1="203.016" x2="280.762" y2="200.882" gradientUnits="userSpaceOnUse">
<stop stop-color="#00BD7C"/>
<stop offset="1" stop-color="#00D9F5"/>
<stop offset="1" stop-color="#00C6DF"/>
</linearGradient>
<linearGradient id="paint14_linear_221_7161" x1="315.032" y1="200.577" x2="297.052" y2="197.671" gradientUnits="userSpaceOnUse">
<stop stop-color="#00BD7C"/>
<stop offset="1" stop-color="#00D9F5"/>
<stop offset="1" stop-color="#00C6DF"/>
</linearGradient>
<linearGradient id="paint15_linear_221_7161" x1="398.472" y1="272.604" x2="447.092" y2="259.622" gradientUnits="userSpaceOnUse">
<stop stop-color="#00BD7C"/>
<stop offset="1" stop-color="#00D9F5"/>
<stop offset="1" stop-color="#00C6DF"/>
</linearGradient>
</defs>
</svg>
