<svg width="90" height="53" viewBox="0 0 90 53" fill="none" xmlns="http://www.w3.org/2000/svg">
<g clip-path="url(#clip0_527_7497)">
<path d="M25.97 19.3854C25.97 20.4555 26.086 21.3231 26.2891 21.9594C26.5211 22.5957 26.8112 23.2898 27.2173 24.0417C27.3623 24.2731 27.4203 24.5044 27.4203 24.7069C27.4203 24.9961 27.2463 25.2853 26.8692 25.5745L25.0418 26.7892C24.7807 26.9627 24.5197 27.0495 24.2876 27.0495C23.9975 27.0495 23.7075 26.9049 23.4174 26.6446C23.0113 26.2108 22.6632 25.7481 22.3732 25.2853C22.0831 24.7937 21.793 24.2442 21.474 23.579C19.2114 26.2397 16.3688 27.5701 12.946 27.5701C10.5094 27.5701 8.56599 26.876 7.14466 25.4878C5.72334 24.0996 4.99817 22.2486 4.99817 19.9349C4.99817 17.4766 5.86837 15.4811 7.63778 13.9772C9.40718 12.4733 11.7567 11.7214 14.7444 11.7214C15.7306 11.7214 16.7459 11.8081 17.8191 11.9527C18.8924 12.0973 19.9946 12.3287 21.1549 12.589V10.4778C21.1549 8.27976 20.6908 6.74694 19.7916 5.85039C18.8634 4.95384 17.297 4.52002 15.0635 4.52002C14.0483 4.52002 13.004 4.63571 11.9308 4.896C10.8575 5.15628 9.81328 5.47442 8.79804 5.87931C8.33394 6.08176 7.98586 6.19744 7.78281 6.25528C7.57976 6.31313 7.43473 6.34205 7.3187 6.34205C6.91261 6.34205 6.70956 6.05284 6.70956 5.4455V4.02836C6.70956 3.56563 6.76758 3.21858 6.91261 3.01613C7.05764 2.81368 7.3187 2.61123 7.7248 2.40879C8.74003 1.88821 9.95831 1.45439 11.3796 1.10734C12.801 0.731368 14.3093 0.557842 15.9047 0.557842C19.3565 0.557842 21.8801 1.33871 23.5044 2.90044C25.0998 4.46218 25.912 6.8337 25.912 10.015V19.3854H25.97ZM14.1933 23.7814C15.1505 23.7814 16.1367 23.6079 17.181 23.2608C18.2252 22.9138 19.1534 22.2775 19.9366 21.4099C20.4007 20.8604 20.7488 20.2531 20.9228 19.559C21.0969 18.8648 21.2129 18.0261 21.2129 17.0428V15.8281C20.3717 15.6257 19.4725 15.4522 18.5443 15.3365C17.6161 15.2208 16.7169 15.163 15.8177 15.163C13.8742 15.163 12.4529 15.5389 11.4957 16.3198C10.5384 17.1007 10.0743 18.1997 10.0743 19.6457C10.0743 21.005 10.4224 22.0172 11.1476 22.7113C11.8437 23.4344 12.859 23.7814 14.1933 23.7814ZM37.4856 26.9049C36.9635 26.9049 36.6154 26.8181 36.3834 26.6157C36.1513 26.4422 35.9483 26.0373 35.7743 25.4878L28.9577 3.13181C28.7836 2.55339 28.6966 2.17742 28.6966 1.97497C28.6966 1.51224 28.9287 1.25195 29.3928 1.25195H32.2354C32.7866 1.25195 33.1637 1.33871 33.3667 1.54116C33.5988 1.71468 33.7728 2.11958 33.9468 2.66908L38.82 21.8148L43.345 2.66908C43.49 2.09066 43.6641 1.71468 43.8961 1.54116C44.1282 1.36763 44.5343 1.25195 45.0564 1.25195H47.3769C47.9281 1.25195 48.3051 1.33871 48.5372 1.54116C48.7692 1.71468 48.9723 2.11958 49.0883 2.66908L53.6714 22.0462L58.6895 2.66908C58.8636 2.09066 59.0666 1.71468 59.2697 1.54116C59.5017 1.36763 59.8788 1.25195 60.4009 1.25195H63.0985C63.5626 1.25195 63.8237 1.48331 63.8237 1.97497C63.8237 2.11958 63.7947 2.26418 63.7657 2.43771C63.7367 2.61123 63.6787 2.8426 63.5626 3.16073L56.572 25.5167C56.398 26.0951 56.195 26.4711 55.9629 26.6446C55.7308 26.8181 55.3538 26.9338 54.8606 26.9338H52.3661C51.8149 26.9338 51.4379 26.8471 51.2058 26.6446C50.9738 26.4422 50.7707 26.0662 50.6547 25.4878L46.1586 6.8337L41.6916 25.4588C41.5466 26.0373 41.3725 26.4132 41.1405 26.6157C40.9084 26.8181 40.5023 26.9049 39.9802 26.9049H37.4856ZM74.7592 27.6858C73.2509 27.6858 71.7425 27.5122 70.2922 27.1652C68.8419 26.8181 67.7106 26.4422 66.9564 26.0083C66.4923 25.7481 66.1733 25.4588 66.0572 25.1986C65.9412 24.9383 65.8832 24.6491 65.8832 24.3888V22.9138C65.8832 22.3065 66.1152 22.0172 66.5503 22.0172C66.7244 22.0172 66.8984 22.0462 67.0725 22.104C67.2465 22.1618 67.5076 22.2775 67.7976 22.3932C68.7839 22.827 69.8571 23.1741 70.9884 23.4055C72.1486 23.6368 73.2799 23.7525 74.4402 23.7525C76.2676 23.7525 77.6889 23.4344 78.6751 22.7981C79.6614 22.1618 80.1835 21.2364 80.1835 20.0506C80.1835 19.2408 79.9224 18.5756 79.4003 18.0261C78.8782 17.4766 77.8919 16.985 76.4706 16.5222L72.2647 15.2208C70.1472 14.5556 68.5808 13.5723 67.6236 12.2709C66.6664 10.9983 66.1733 9.5812 66.1733 8.07731C66.1733 6.86262 66.4343 5.79255 66.9564 4.86707C67.4785 3.9416 68.1747 3.13181 69.0449 2.49555C69.9151 1.83037 70.9013 1.33871 72.0616 0.991657C73.2219 0.644605 74.4402 0.5 75.7164 0.5C76.3546 0.5 77.0218 0.528921 77.6599 0.615684C78.327 0.702447 78.9362 0.818131 79.5453 0.933815C80.1255 1.07842 80.6766 1.22303 81.1987 1.39655C81.7208 1.57008 82.1269 1.7436 82.417 1.91713C82.8231 2.1485 83.1132 2.37987 83.2872 2.64016C83.4612 2.87152 83.5482 3.18966 83.5482 3.59455V4.95384C83.5482 5.56118 83.3162 5.87931 82.8811 5.87931C82.649 5.87931 82.2719 5.76363 81.7788 5.53226C80.1255 4.78031 78.269 4.40434 76.2096 4.40434C74.5562 4.40434 73.2509 4.66463 72.3517 5.21413C71.4525 5.76363 70.9884 6.60234 70.9884 7.7881C70.9884 8.59789 71.2784 9.29199 71.8586 9.84149C72.4387 10.391 73.5119 10.9405 75.0493 11.4321L79.1682 12.7336C81.2567 13.3988 82.7651 14.3242 83.6643 15.51C84.5635 16.6958 84.9986 18.0551 84.9986 19.559C84.9986 20.8026 84.7375 21.9305 84.2444 22.9138C83.7223 23.8971 83.0261 24.7647 82.1269 25.4588C81.2277 26.1819 80.1545 26.7024 78.9072 27.0784C77.6019 27.4833 76.2386 27.6858 74.7592 27.6858Z" fill="#243141"/>
<path fill-rule="evenodd" clip-rule="evenodd" d="M80.2416 41.7408C70.6984 48.7686 56.8332 52.4994 44.9115 52.4994C28.2037 52.4994 13.1492 46.3393 1.77859 36.1012C0.879379 35.2914 1.69157 34.1924 2.76481 34.8287C15.0636 41.9433 30.2341 46.2525 45.9267 46.2525C56.5142 46.2525 68.1459 44.0545 78.8493 39.5428C80.4447 38.8198 81.808 40.584 80.2416 41.7408Z" fill="#243141"/>
<path fill-rule="evenodd" clip-rule="evenodd" d="M84.2156 37.2294C82.9973 35.6677 76.1518 36.4775 73.048 36.8535C72.1198 36.9692 71.9748 36.1594 72.816 35.552C78.2692 31.7344 87.2323 32.8334 88.2766 34.106C89.3208 35.4074 87.9865 44.344 82.8813 48.6243C82.0981 49.2895 81.344 48.9425 81.692 48.0748C82.8523 45.2116 85.4339 38.7623 84.2156 37.2294Z" fill="#243141"/>
</g>
<defs>
<clipPath id="clip0_527_7497">
<rect width="89" height="52" fill="white" transform="translate(0.599976 0.5)"/>
</clipPath>
</defs>
</svg>
