<svg width="215" height="61" viewBox="0 0 215 61" fill="none" xmlns="http://www.w3.org/2000/svg">
<path d="M15.6089 42.2397C13.6875 42.2397 11.9407 40.6745 11.9407 38.7615C11.9407 36.8484 13.5128 35.2832 15.6089 35.2832C17.705 35.2832 19.277 36.8484 19.277 38.7615C19.277 40.6745 17.5303 42.2397 15.6089 42.2397ZM60.6747 23.2832C60.3253 20.5006 58.5786 18.2397 56.3078 16.5006L55.4345 15.8049L54.7358 16.6745C53.3384 18.2397 52.8144 21.0223 52.989 23.1093C53.1637 24.6745 53.6877 26.2397 54.5611 27.4571C53.8624 27.8049 52.989 28.1528 52.2903 28.5006C50.7183 29.0223 49.1462 29.1962 47.5741 29.1962H2.33368L2.159 30.2397C1.80966 33.5441 2.33368 37.0223 3.73107 40.1528L4.42976 41.3702V41.5441C8.62193 48.5006 16.1329 51.631 24.3426 51.631C40.0632 51.631 52.989 44.8484 59.1026 30.2397C63.1201 30.4136 67.1376 29.3702 69.059 25.5441L69.583 24.6745L68.7097 24.1528C66.4389 22.7615 63.2948 22.5876 60.6747 23.2832ZM38.1418 20.5006H31.3295V27.2832H38.1418V20.5006ZM38.1418 11.9789H31.3295V18.7615H38.1418V11.9789ZM38.1418 3.2832H31.3295V10.0658H38.1418V3.2832ZM46.5261 20.5006H39.7138V27.2832H46.5261V20.5006ZM21.1984 20.5006H14.3862V27.2832H21.1984V20.5006ZM29.7574 20.5006H22.9452V27.2832H29.7574V20.5006ZM12.8141 20.5006H6.00182V27.2832H12.8141V20.5006ZM29.7574 11.9789H22.9452V18.7615H29.7574V11.9789ZM21.1984 11.9789H14.3862V18.7615H21.1984V11.9789Z" fill="#243141"/>
<path d="M178.405 38.0647C181.374 35.456 184.344 33.0212 187.313 30.4125C188.361 29.543 189.409 28.6734 190.457 27.6299C189.584 26.5864 188.361 25.8908 187.138 25.3691C184.868 24.4995 182.597 24.8473 180.326 26.0647C177.531 27.6299 176.309 30.2386 176.483 33.3691C176.483 34.5864 176.833 35.8038 177.531 36.8473C178.055 37.3691 178.23 37.7169 178.405 38.0647ZM181.898 40.4995C183.296 41.0212 185.042 41.0212 186.614 40.6734C187.313 40.3256 189.409 39.456 190.108 39.6299H190.457C190.981 39.8038 191.331 40.1517 191.505 40.6734C192.029 41.7169 191.855 42.7604 190.807 43.2821L190.457 43.456C186.614 45.7169 182.597 45.3691 178.754 43.2821C177.007 42.2386 175.61 40.8473 174.562 39.1082L174.387 38.7604C171.942 34.5864 172.291 30.0647 175.086 26.0647C175.959 24.6734 177.357 23.6299 178.754 22.7604L179.278 22.4125C182.946 20.3256 186.789 20.4995 190.457 22.2386C192.379 23.2821 194.125 24.6734 195.173 26.5864L195.348 26.9343C196.221 28.3256 195.173 29.543 193.951 30.4125L190.283 33.543C187.138 35.9778 184.518 38.2386 181.898 40.4995ZM210.37 21.3691H210.719C211.942 21.3691 212.815 22.2386 212.815 23.456C212.815 25.1951 211.243 25.543 209.846 25.543C208.099 25.543 206.353 26.5864 205.13 27.8038C203.558 29.3691 202.859 31.2821 202.859 33.3691V43.1082C202.859 44.1517 202.16 45.1951 200.938 45.1951H200.588C199.366 45.1951 198.667 44.3256 198.667 43.1082V32.8473C198.667 28.8473 200.588 25.7169 203.732 23.456C206.003 22.0647 208.099 21.3691 210.37 21.3691ZM160.413 28.1517L165.13 23.456C165.654 23.1082 167.226 21.1951 167.924 21.1951H168.623C169.496 21.3691 170.195 21.8908 170.195 22.9343V23.2821C170.195 23.9778 169.322 24.6734 168.972 25.1951C168.099 26.2386 167.051 27.1082 166.178 28.1517L161.287 33.0212L167.575 39.2821L169.322 41.0212L170.02 41.7169C170.195 42.0647 170.37 42.2386 170.37 42.5864V43.1082C170.195 43.9778 169.496 44.6734 168.623 44.6734H168.274C167.575 44.6734 166.876 43.9778 166.352 43.456C165.479 42.5864 164.431 41.7169 163.557 40.6734L160.413 37.7169V42.5864C160.413 43.6299 159.715 44.6734 158.492 44.6734H158.143C156.92 44.6734 156.221 43.8038 156.221 42.5864V15.8038C156.221 14.7604 156.92 13.8908 158.143 13.8908H158.492C159.715 13.8908 160.413 14.7604 160.413 15.8038V28.1517ZM147.488 25.543C146.963 25.1951 145.741 25.1951 145.042 25.1951C141.723 25.0212 139.278 26.9343 137.88 29.8908C137.356 30.9343 137.182 31.9778 137.182 33.1951C137.182 36.6734 138.929 39.1082 142.073 40.4995C143.121 41.0212 144.693 41.1951 145.915 41.1951C146.964 41.1951 148.536 40.4995 149.409 40.1517H150.282C151.156 40.3256 151.854 40.8473 151.854 41.8908V42.2386C151.854 44.6734 147.313 45.1951 145.741 45.3691C139.802 45.7169 135.26 42.4125 133.514 36.8473C133.164 35.8038 133.164 34.9343 133.164 33.8908V33.0212C133.164 28.6734 135.26 25.1951 139.103 23.1082C140.85 22.0647 142.771 21.543 144.867 21.543H145.741C147.837 21.543 149.933 22.0647 151.68 23.2821L151.854 23.456L152.029 23.6299C152.204 23.9778 152.378 24.3256 152.378 24.6734V25.0212C152.378 26.0647 151.68 26.5864 150.632 26.7604H150.457C149.234 26.4125 147.837 25.7169 147.488 25.543ZM110.806 33.0212C110.806 35.9778 112.378 38.2386 114.824 39.8038C116.046 40.4995 117.444 40.8473 118.841 40.8473C121.81 40.8473 124.081 39.2821 125.653 36.8473C126.352 35.6299 126.701 34.2386 126.701 32.8473C126.701 30.0647 125.304 27.8038 123.033 26.2386C121.81 25.3691 120.238 25.0212 118.841 25.0212C115.522 25.0212 113.077 26.7604 111.679 29.7169C110.806 30.9343 110.806 31.9778 110.806 33.0212ZM118.142 21.1951H118.666C123.383 21.1951 126.876 23.456 129.147 27.456C130.02 29.0212 130.544 30.7604 130.544 32.6734V33.543C130.544 37.8908 128.448 41.3691 124.605 43.456C122.859 44.4995 120.937 45.0212 118.841 45.0212H117.968C113.601 45.0212 110.107 42.9343 108.011 39.1082C106.963 37.3691 106.439 35.456 106.439 33.3691V32.4995C106.439 28.1517 108.535 24.6734 112.378 22.5864C114.3 21.7169 116.046 21.1951 118.142 21.1951ZM84.2557 33.0212C84.2557 36.1517 85.8277 38.5864 88.6225 39.9778C89.6705 40.4995 90.8933 40.8473 92.2906 40.8473C95.4348 40.8473 97.7055 39.456 99.2776 36.8473C99.9763 35.6299 100.326 34.2386 100.326 32.8473C100.326 30.0647 99.1029 27.9778 96.8322 26.4125C95.4348 25.543 94.0374 25.0212 92.2906 25.0212C88.9718 25.0212 86.5264 26.7604 85.129 29.7169C84.605 30.9343 84.2557 31.9778 84.2557 33.0212ZM100.326 24.1517V15.6299C100.326 14.5864 101.024 13.543 102.247 13.543H102.596C103.819 13.543 104.518 14.4125 104.518 15.6299V33.543C104.518 37.8908 102.422 41.3691 98.5789 43.456C96.8322 44.4995 94.9108 45.0212 92.8147 45.0212H91.9413C87.5745 45.0212 84.081 42.9343 81.9849 39.1082C80.9369 37.3691 80.4128 35.456 80.4128 33.3691V32.4995C80.4128 28.1517 82.5089 24.6734 86.3517 22.5864C88.0985 21.543 90.0199 21.0212 92.116 21.0212H92.9893C95.6094 21.1951 98.2296 22.2386 100.326 24.1517Z" fill="#243141"/>
</svg>
