<svg width="120" height="42" viewBox="0 0 120 42" fill="none" xmlns="http://www.w3.org/2000/svg">
<g clip-path="url(#clip0_364_6208)">
<path d="M41.292 21.9098C41.2958 20.2342 40.7818 18.5985 39.8196 17.2266C38.8577 15.8547 37.495 14.8138 35.9184 14.2466C36.0619 13.5153 36.1342 12.7718 36.1344 12.0266C36.1358 9.55984 35.3549 7.15619 33.9041 5.16122C32.4533 3.16624 30.4073 1.68269 28.0601 0.923873C25.7131 0.165056 23.1857 0.170057 20.8416 0.938156C18.4975 1.70626 16.4573 3.1979 15.0144 5.19859C13.9499 4.37368 12.6456 3.91814 11.2989 3.90103C9.95227 3.88391 8.63676 4.30612 7.5516 5.10369C6.46644 5.90128 5.67079 7.03079 5.28514 8.32115C4.8995 9.61149 4.94489 10.9924 5.41442 12.2546C3.8341 12.8306 2.46809 13.8768 1.5001 15.2524C0.532126 16.628 0.00862894 18.267 2.76699e-05 19.949C-0.00435744 21.6303 0.51257 23.2717 1.47964 24.647C2.4467 26.0224 3.81636 27.0643 5.40002 27.629C5.25984 28.36 5.18832 29.1023 5.18642 29.8466C5.18407 32.3104 5.96426 34.7114 7.41449 36.7034C8.86474 38.6951 10.9101 40.175 13.2556 40.9295C15.6012 41.6839 18.1257 41.674 20.4652 40.901C22.8047 40.1282 24.8383 38.6323 26.2728 36.629C27.3343 37.456 28.6363 37.9142 29.9818 37.9343C31.3272 37.9545 32.6424 37.5352 33.7279 36.7403C34.8137 35.9452 35.6105 34.8179 35.9974 33.5294C36.3845 32.2406 36.3408 30.8611 35.8728 29.5994C37.4539 29.0243 38.821 27.9784 39.7894 26.6027C40.758 25.2271 41.2814 23.5875 41.2896 21.905" fill="white"/>
<path d="M16.2336 18.0748L25.2696 22.2004L34.3896 14.2132C34.5209 13.5541 34.5862 12.8836 34.584 12.2116C34.5835 10.036 33.8868 7.91763 32.5956 6.16652C31.3046 4.41541 29.4871 3.12347 27.4087 2.47973C25.3306 1.836 23.101 1.87427 21.0461 2.58895C18.9912 3.30363 17.219 4.65719 15.9888 6.45157L14.4696 14.3092L16.2336 18.0748Z" fill="#FEC514"/>
<path d="M6.88085 27.6436C6.74762 28.3129 6.68088 28.9938 6.68165 29.6764C6.6817 31.8611 7.38202 33.9882 8.67984 35.7455C9.97766 37.503 11.8046 38.7981 13.8926 39.4408C15.9806 40.0835 18.2196 40.0401 20.2811 39.3167C22.3425 38.5936 24.1179 37.2285 25.3464 35.422L26.8512 27.5812L24.8424 23.7412L15.7728 19.6084L6.88085 27.6436Z" fill="#00BFB3"/>
<path d="M6.82562 12.0074L13.0176 13.469L14.3736 6.42736C13.5314 5.78874 12.505 5.44012 11.4481 5.43369C10.3912 5.42723 9.36057 5.76335 8.51066 6.39167C7.66075 7.01996 7.03723 7.90669 6.73346 8.91904C6.42969 9.9314 6.46202 11.0149 6.82562 12.0074Z" fill="#F04E98"/>
<path d="M6.28802 13.4814C4.92943 13.9399 3.74748 14.8103 2.90657 15.9717C2.06564 17.1331 1.60755 18.5277 1.59601 19.9614C1.59503 21.3472 2.01585 22.7004 2.80253 23.8411C3.58917 24.982 4.70443 25.8563 6.00002 26.3478L14.688 18.495L13.092 15.087L6.28802 13.4814Z" fill="#1BA9F5"/>
<path d="M26.9352 35.4221C27.7761 36.0573 28.8 36.4039 29.8538 36.4094C30.9077 36.4149 31.9351 36.0797 32.7825 35.4533C33.6302 34.8269 34.2523 33.9429 34.5564 32.9337C34.8602 31.9248 34.8295 30.8443 34.4688 29.8541L28.2816 28.4141L26.9352 35.4221Z" fill="#93C90E"/>
<path d="M28.1928 26.7838L35.004 28.375C36.3634 27.9178 37.5461 27.0478 38.3873 25.8859C39.2285 24.7243 39.6859 23.3291 39.696 21.895C39.6948 20.5122 39.2731 19.1624 38.4871 18.0248C37.7009 16.8872 36.5875 16.0155 35.2944 15.5254L26.3856 23.3254L28.1928 26.7838Z" fill="#0077CC"/>
<path d="M57.7344 29.2557L58.56 29.1717L58.6176 30.8517C56.7804 31.1292 54.9266 31.2816 53.0688 31.3077C51.0209 31.3077 49.5696 30.7149 48.7152 29.5293C47.8608 28.3437 47.4343 26.4988 47.436 23.9949C47.436 19.0077 49.4184 16.5133 53.3832 16.5117C55.3032 16.5117 56.7353 17.0477 57.6792 18.1197C58.6233 19.1917 59.0969 20.8717 59.1 23.1597L58.9872 24.7821H49.5984C49.5984 26.3565 49.8833 27.5229 50.4528 28.2813C51.0225 29.0397 52.0128 29.4189 53.424 29.4189C54.8385 29.4237 56.2752 29.3692 57.7344 29.2557ZM56.9664 23.0829C56.9664 21.3373 56.6873 20.1045 56.1288 19.3845C55.5703 18.6645 54.66 18.3037 53.3976 18.3021C52.1352 18.3021 51.1865 18.6813 50.5512 19.4397C49.9161 20.1981 49.5888 21.4125 49.5696 23.0829H56.9664Z" fill="#1C1E23"/>
<path d="M62.076 31.1956V12.4756H64.2096V31.1956H62.076Z" fill="#1C1E23"/>
<path d="M77.6472 21.0914V28.2674C77.6472 28.9874 79.4184 28.949 79.4184 28.949L79.3104 30.8354C77.8104 30.8354 76.5696 30.9602 75.8256 30.2378C74.2145 30.9534 72.4692 31.3175 70.7064 31.3058C69.3991 31.3058 68.4031 30.9354 67.7184 30.1946C67.0337 29.4537 66.6919 28.389 66.6936 27.0002C66.6936 25.6146 67.0447 24.5946 67.7472 23.9402C68.4497 23.2858 69.5496 22.8858 71.0472 22.7402L75.5136 22.3154V21.0914C75.5136 20.1314 75.3055 19.4386 74.8896 19.013C74.6616 18.799 74.3928 18.6334 74.099 18.5262C73.8053 18.4189 73.493 18.3723 73.1808 18.389H67.5744V16.5098H73.0392C74.652 16.5098 75.8232 16.8802 76.5528 17.621C77.2824 18.3618 77.6472 19.5186 77.6472 21.0914ZM68.88 26.8946C68.88 28.6401 69.6 29.513 71.04 29.513C72.3391 29.5115 73.6287 29.29 74.8536 28.8578L75.5064 28.6298V23.9354L71.304 24.3338C70.4496 24.4106 69.8328 24.657 69.4536 25.073C69.0744 25.4889 68.8831 26.0961 68.88 26.8946Z" fill="#1C1E23"/>
<path d="M85.9776 18.4182C83.9088 18.4182 82.8744 19.1382 82.8744 20.5782C82.8744 21.2438 83.1144 21.7134 83.5944 21.987C84.0744 22.2606 85.1553 22.5454 86.8368 22.8414C88.5264 23.1374 89.7216 23.5502 90.4224 24.0798C91.1232 24.6095 91.4745 25.6045 91.476 27.0654C91.476 28.5277 91.0065 29.5998 90.0672 30.2814C89.1281 30.963 87.7577 31.3045 85.956 31.3062C84.78 31.3062 80.8536 30.8694 80.8536 30.8694L80.9688 29.0214C83.2248 29.2374 84.8544 29.3982 85.956 29.3982C87.0576 29.3982 87.8952 29.223 88.4736 28.8726C89.052 28.5222 89.34 27.9342 89.34 27.1086C89.34 26.283 89.1 25.7238 88.6008 25.4286C88.1016 25.1334 87.0264 24.855 85.3584 24.5886C83.6904 24.3222 82.5024 23.9334 81.8016 23.4222C81.1008 22.911 80.748 21.9606 80.748 20.5758C80.748 19.191 81.228 18.1758 82.2144 17.5038C83.2008 16.8318 84.4104 16.5078 85.8696 16.5078C87.0264 16.5078 91.0416 16.803 91.0416 16.803V18.663C88.9224 18.5694 87.1896 18.4182 85.9776 18.4182Z" fill="#1C1E23"/>
<path d="M101.76 18.643H97.236V25.4446C97.236 27.0749 97.3543 28.1463 97.5912 28.6582C97.8312 29.1718 98.3928 29.4262 99.2832 29.4262L101.815 29.2558L101.959 31.0198C101 31.1971 100.03 31.302 99.0552 31.3342C97.5768 31.3342 96.5527 30.9735 95.9832 30.2518C95.4137 29.5301 95.1295 28.1549 95.1312 26.1262V18.643H93.12V16.795H95.1408V12.4414H97.2456V16.795H101.76V18.643Z" fill="#1C1E23"/>
<path d="M104.726 14.9788V12.502H106.86V14.9788H104.726ZM104.726 31.1955V16.7956H106.86V31.1955H104.726Z" fill="#1C1E23"/>
<path d="M116.102 16.5098C117.168 16.5552 118.229 16.6699 119.28 16.853L119.962 16.937L119.878 18.6722C118.763 18.5309 117.641 18.446 116.518 18.4178C114.905 18.4178 113.81 18.8018 113.232 19.5698C112.654 20.3378 112.365 21.7602 112.363 23.837C112.363 25.917 112.634 27.3633 113.174 28.1762C113.715 28.989 114.843 29.397 116.558 29.4002L119.918 29.1458L120.005 30.9098C118.697 31.1313 117.376 31.2645 116.05 31.3082C113.832 31.3082 112.301 30.7386 111.456 29.5994C110.611 28.4601 110.189 26.5401 110.189 23.8394C110.189 21.137 110.644 19.2402 111.554 18.149C112.465 17.0578 113.981 16.5114 116.102 16.5098Z" fill="#1C1E23"/>
</g>
<defs>
<clipPath id="clip0_364_6208">
<rect width="120" height="41.28" fill="white" transform="translate(0 0.360352)"/>
</clipPath>
</defs>
</svg>
