<svg width="99" height="34" viewBox="0 0 99 34" fill="none" xmlns="http://www.w3.org/2000/svg">
<g clip-path="url(#clip0_280_6249)">
<path d="M41.8353 17.1294C41.8353 21.6637 38.236 25.0049 33.8188 25.0049C29.4016 25.0049 25.8022 21.6637 25.8022 17.1294C25.8022 12.5632 29.4016 9.25391 33.8188 9.25391C38.236 9.25391 41.8353 12.5632 41.8353 17.1294ZM38.3261 17.1294C38.3261 14.2959 36.24 12.3572 33.8188 12.3572C31.3976 12.3572 29.3115 14.2959 29.3115 17.1294C29.3115 19.9345 31.3976 21.9016 33.8188 21.9016C36.24 21.9016 38.3261 19.9309 38.3261 17.1294Z" fill="#EA4335"/>
<path d="M59.1303 17.1294C59.1303 21.6637 55.5309 25.0049 51.1137 25.0049C46.6965 25.0049 43.0972 21.6637 43.0972 17.1294C43.0972 12.5667 46.6965 9.25391 51.1137 9.25391C55.5309 9.25391 59.1303 12.5632 59.1303 17.1294ZM55.621 17.1294C55.621 14.2959 53.5349 12.3572 51.1137 12.3572C48.6925 12.3572 46.6064 14.2959 46.6064 17.1294C46.6064 19.9345 48.6925 21.9016 51.1137 21.9016C53.5349 21.9016 55.621 19.9309 55.621 17.1294Z" fill="#FBBC05"/>
<path d="M75.705 9.7297V23.8687C75.705 29.6848 72.2245 32.0602 68.11 32.0602C64.2368 32.0602 61.9057 29.5072 61.0266 27.4194L64.0819 26.166C64.6259 27.4478 65.959 28.9604 68.1064 28.9604C70.7401 28.9604 72.3722 27.3591 72.3722 24.3445V23.2118H72.2498C71.4643 24.1669 69.9511 25.0014 68.0415 25.0014C64.0458 25.0014 60.3853 21.5714 60.3853 17.1578C60.3853 12.7123 64.0458 9.25391 68.0415 9.25391C69.9475 9.25391 71.4607 10.0883 72.2498 11.0151H72.3722V9.73325H75.705V9.7297ZM72.6209 17.1578C72.6209 14.3847 70.7437 12.3572 68.355 12.3572C65.9338 12.3572 63.9053 14.3847 63.9053 17.1578C63.9053 19.9025 65.9338 21.9016 68.355 21.9016C70.7437 21.9016 72.6209 19.9025 72.6209 17.1578Z" fill="#4285F4"/>
<path d="M81.1989 1.44043V24.5201H77.7761V1.44043H81.1989Z" fill="#34A853"/>
<path d="M94.5349 19.7201L97.2587 21.5097C96.3796 22.7915 94.2611 25 90.6005 25C86.0608 25 82.6704 21.5416 82.6704 17.1245C82.6704 12.4411 86.0896 9.24902 90.2078 9.24902C94.3547 9.24902 96.3832 12.5015 97.0461 14.2591L97.41 15.1539L86.7273 19.5142C87.5452 21.0942 88.817 21.9003 90.6005 21.9003C92.3875 21.9003 93.627 21.0339 94.5349 19.7201ZM86.1509 16.8866L93.2919 13.9644C92.8992 12.9808 91.7174 12.2955 90.3267 12.2955C88.5432 12.2955 86.0608 13.8472 86.1509 16.8866Z" fill="#EA4335"/>
<path d="M12.8483 15.0796V11.7384H24.2732C24.3849 12.3207 24.4425 13.0096 24.4425 13.7552C24.4425 16.262 23.7472 19.3618 21.5061 21.5704C19.3263 23.8073 16.5413 25.0004 12.8519 25.0004C6.01348 25.0004 0.263184 19.5109 0.263184 12.7717C0.263184 6.03239 6.01348 0.542969 12.8519 0.542969C16.6349 0.542969 19.3299 2.00587 21.3548 3.91261L18.9624 6.27029C17.5105 4.92811 15.5433 3.8842 12.8483 3.8842C7.85458 3.8842 3.94899 7.85036 3.94899 12.7717C3.94899 17.693 7.85458 21.6591 12.8483 21.6591C16.0873 21.6591 17.932 20.3773 19.1138 19.2127C20.0722 18.2682 20.7027 16.9189 20.9513 15.0761L12.8483 15.0796Z" fill="#4285F4"/>
</g>
<defs>
<clipPath id="clip0_280_6249">
<rect width="98" height="32.6667" fill="white" transform="translate(0.133301 0.375)"/>
</clipPath>
</defs>
</svg>
