<svg width="217" height="38" viewBox="0 0 217 38" fill="none" xmlns="http://www.w3.org/2000/svg">
<g clip-path="url(#clip0_364_6180)">
<path fill-rule="evenodd" clip-rule="evenodd" d="M159.242 30.4798H170.706V27.3935H162.311V7.74219H159.242V30.4798ZM184.423 30.4803H186.993V15.175H184.361V17.1275C183.046 15.7418 181.23 14.923 179.162 14.923C174.777 14.923 171.268 18.4501 171.268 22.7962C171.268 27.1421 174.777 30.7322 179.162 30.7322C181.23 30.7322 183.108 29.8505 184.423 28.5278V30.4803ZM179.162 17.9463C181.855 17.9463 183.985 20.1509 183.985 22.7962C183.985 25.5046 181.855 27.6461 179.162 27.6461C176.468 27.6461 174.338 25.5046 174.338 22.7962C174.338 20.1509 176.53 17.9463 179.162 17.9463ZM205.286 22.7957C205.286 27.1418 201.714 30.7319 197.391 30.7319C195.324 30.7319 193.446 29.85 192.129 28.5273V30.48H189.561V9.002H192.569V16.7491C193.822 15.6154 195.513 14.9226 197.391 14.9226C201.714 14.8596 205.286 18.4498 205.286 22.7957ZM202.153 22.7957C202.153 20.1504 199.961 17.9458 197.329 17.9458C194.698 17.9458 192.505 20.0873 192.505 22.7957C192.505 25.4411 194.698 27.5826 197.329 27.5826C199.961 27.5826 202.153 25.4411 202.153 22.7957ZM214.367 18.5126L215.682 16.245C214.43 15.4892 213.052 14.8594 211.297 14.9853C208.415 14.9853 206.223 16.749 206.223 19.2683C206.223 21.9364 208.655 22.954 210.164 23.5859L210.233 23.6142C212.362 24.433 213.302 25 213.302 26.0707C213.302 26.9524 212.614 27.8972 211.11 27.8972C209.857 27.8972 208.228 27.2045 207.351 26.7005L206.161 29.2199C207.476 30.0387 209.356 30.7946 211.234 30.7946C214.305 30.7946 216.497 28.5901 216.497 26.0707C216.497 23.5513 214.367 21.9137 211.924 21.0319C211.834 20.9983 211.746 20.9653 211.66 20.9328C210.284 20.4177 209.23 20.0236 209.23 19.0164C209.23 18.0716 210.233 17.5047 211.423 17.5047C212.614 17.5047 213.74 18.1345 214.367 18.5126Z" fill="#F4F4F6"/>
<path d="M33.0752 16.1833C33.0126 15.6164 32.9499 14.9236 32.6994 14.1678C32.5114 13.4119 32.1982 12.5931 31.7597 11.7114C31.3211 10.8296 30.7574 9.94776 30.0683 9.06597C29.8178 8.75105 29.5045 8.37313 29.1286 8.05822C29.6298 6.0427 28.5022 4.3421 28.5022 4.3421C26.6229 4.21612 25.3699 4.90895 24.9314 5.28687C24.8688 5.28687 24.8061 5.22389 24.6808 5.16089C24.3677 5.03493 24.0544 4.90895 23.6786 4.78299C23.3027 4.65701 22.9894 4.59403 22.6136 4.46806C22.2378 4.40508 21.8618 4.3421 21.5486 4.2791C21.4859 4.2791 21.4234 4.2791 21.3606 4.2791C20.5462 1.63373 18.1658 0.5 18.1658 0.5C15.5347 2.2006 15.0336 4.53105 15.0336 4.53105C15.0336 4.53105 15.0336 4.59403 15.0336 4.65701C14.9083 4.71999 14.7203 4.71999 14.595 4.78299C14.4071 4.84597 14.2192 4.90895 13.9686 4.97195C13.7807 5.03493 13.5927 5.09791 13.3421 5.22389C12.9663 5.41284 12.5278 5.60179 12.1519 5.79074C11.776 5.9797 11.4002 6.23164 11.0243 6.48359C10.9617 6.48359 10.9617 6.4206 10.9617 6.4206C7.26563 5.03493 4.0081 6.73553 4.0081 6.73553C3.69488 10.6406 5.44893 13.16 5.8248 13.6009C5.76214 13.8528 5.63686 14.1048 5.57422 14.3567C5.32365 15.2385 5.07306 16.1833 4.94778 17.1281C4.94778 17.2541 4.88512 17.38 4.88512 17.506C1.50231 19.2066 0.5 22.6707 0.5 22.6707C3.31901 25.946 6.63918 26.1349 6.63918 26.1349C7.0777 26.8908 7.51621 27.5835 8.08 28.2764C8.33058 28.5283 8.58117 28.8433 8.7691 29.0952C7.76678 32.0555 8.89438 34.512 8.89438 34.512C12.0266 34.638 14.0939 33.1263 14.5324 32.7484C14.8456 32.8744 15.1588 32.9373 15.4721 33.0634C16.4117 33.3153 17.4141 33.4413 18.4163 33.5042C18.6669 33.5042 18.9176 33.5042 19.1682 33.5042H19.2934H19.356H19.4813H19.6066C21.1101 35.6457 23.6786 35.9606 23.6786 35.9606C25.5579 34.008 25.6205 32.0555 25.6205 31.6146C25.6205 31.5517 25.6205 31.5517 25.6205 31.5517V31.4886C25.9963 31.2367 26.3722 30.9219 26.7482 30.6069C27.4998 29.914 28.1262 29.1583 28.6901 28.3394C28.7528 28.2764 28.8154 28.2135 28.8154 28.0875C30.9453 28.2135 32.3861 26.7649 32.3861 26.7649C32.0102 24.5603 30.7573 23.4895 30.5067 23.3007C30.5067 23.3007 30.5067 23.3007 30.4442 23.3007C30.4442 23.1746 30.4442 23.0486 30.4442 22.9226C30.4442 22.6707 30.4442 22.4188 30.4442 22.2299V21.915V21.8519V21.789C30.4442 21.7259 30.4442 21.7259 30.4442 21.7259V21.6V21.4111C30.4442 21.3481 30.4442 21.2852 30.4442 21.2221C30.4442 21.1592 30.4442 21.0961 30.4442 21.0331V20.8442V20.6552C30.3814 20.4033 30.3814 20.1513 30.3189 19.9623C30.0683 19.0177 29.755 18.1358 29.2539 17.317C28.7528 16.4982 28.189 15.8054 27.4998 15.1755C26.8107 14.5457 26.059 14.1048 25.2446 13.7269C24.4302 13.349 23.6158 13.16 22.7389 13.034C22.3003 12.971 21.9245 12.971 21.4859 12.971H21.3606H21.2981H21.2354H21.1728H21.0475C20.9848 12.971 20.9221 12.971 20.8595 12.971C20.6715 12.971 20.421 13.034 20.2331 13.034C19.4187 13.16 18.6043 13.4749 17.9152 13.9158C17.2261 14.3567 16.5997 14.8606 16.0985 15.4275C15.5974 15.9943 15.2215 16.6872 14.9709 17.38C14.7203 18.0729 14.595 18.7656 14.5324 19.4585C14.5324 19.6475 14.5324 19.7735 14.5324 19.9623C14.5324 20.0254 14.5324 20.0254 14.5324 20.0884V20.2144C14.5324 20.2773 14.5324 20.4033 14.5324 20.4663C14.595 20.7811 14.6577 21.1592 14.7203 21.474C14.9083 22.1038 15.2215 22.6707 15.5347 23.1746C15.9106 23.6786 16.3491 24.0565 16.7877 24.3713C17.2261 24.6863 17.7274 24.9382 18.2285 25.0641C18.7296 25.1901 19.1682 25.2532 19.6693 25.2532C19.7318 25.2532 19.7946 25.2532 19.8571 25.2532H19.9198H19.9826C20.0451 25.2532 20.1078 25.2532 20.1078 25.2532C20.1078 25.2532 20.1078 25.2532 20.1704 25.2532H20.2331H20.2957C20.3584 25.2532 20.421 25.2532 20.4837 25.2532C20.5462 25.2532 20.609 25.2532 20.6715 25.1901C20.7968 25.1901 20.8595 25.1272 20.9848 25.1272C21.1728 25.0641 21.3606 25.0012 21.5486 24.8753C21.7365 24.8122 21.8618 24.6863 22.0498 24.5603C22.1123 24.5603 22.1125 24.4974 22.175 24.4343C22.363 24.3084 22.363 24.0565 22.2378 23.9305C22.1125 23.8045 21.9245 23.7415 21.7992 23.8674C21.7365 23.8674 21.7365 23.9305 21.6739 23.9305C21.5486 23.9934 21.4234 24.0565 21.2354 24.1194C21.1101 24.1824 20.9221 24.1824 20.7968 24.2453C20.7342 24.2453 20.609 24.2453 20.5462 24.2453C20.4837 24.2453 20.4837 24.2453 20.421 24.2453C20.3584 24.2453 20.3584 24.2453 20.2957 24.2453C20.2331 24.2453 20.2331 24.2453 20.1704 24.2453C20.1078 24.2453 20.0451 24.2453 20.0451 24.2453H19.9826H19.9198C19.8571 24.2453 19.8573 24.2453 19.7946 24.2453C19.4187 24.1824 19.1054 24.1194 18.7296 23.9305C18.3538 23.8045 18.0405 23.5526 17.7272 23.3007C17.4141 23.0486 17.1635 22.6707 16.9755 22.3559C16.7877 22.0409 16.5997 21.6 16.537 21.1592C16.4744 20.9702 16.4744 20.7182 16.4744 20.5292C16.4744 20.4663 16.4744 20.4033 16.4744 20.3404V20.2773V20.2144C16.4744 20.0884 16.4744 19.9623 16.537 19.8364C16.725 18.8916 17.1635 18.0098 17.9152 17.2541C18.1032 17.0651 18.291 16.9391 18.479 16.7501C18.6669 16.6241 18.9176 16.4982 19.1054 16.3722C19.356 16.2463 19.6066 16.1833 19.7946 16.1203C20.0451 16.0573 20.2957 15.9943 20.5462 15.9943C20.6715 15.9943 20.7968 15.9943 20.9221 15.9943C20.9848 15.9943 20.9848 15.9943 20.9848 15.9943H21.1101H21.1728H21.2981C21.5486 15.9943 21.8618 16.0573 22.1123 16.1203C22.6762 16.2463 23.1773 16.4352 23.6786 16.7501C24.6808 17.317 25.4952 18.1989 26.059 19.2066C26.3096 19.7104 26.4976 20.2773 26.6229 20.8442C26.6229 20.9702 26.6854 21.1592 26.6854 21.2852V21.4111V21.5371C26.6854 21.6 26.6854 21.6 26.6854 21.663C26.6854 21.7259 26.6854 21.7259 26.6854 21.789V21.915V22.0409C26.6854 22.1038 26.6854 22.2298 26.6854 22.2928C26.6854 22.4819 26.6854 22.6078 26.6229 22.7967C26.6229 22.9226 26.5602 23.1117 26.5602 23.2376C26.5602 23.3636 26.4974 23.5526 26.4349 23.6786C26.3722 23.9934 26.2469 24.3084 26.1216 24.5603C25.871 25.1272 25.5579 25.6941 25.1819 26.2608C24.4302 27.2687 23.428 28.1504 22.2378 28.6543C21.6739 28.9063 21.0475 29.0952 20.421 29.2212C20.1078 29.2842 19.7946 29.2842 19.4813 29.3471H19.4187H19.356H19.2307H19.1054H19.0429C19.1054 29.3471 19.0429 29.3471 19.0429 29.3471C18.8549 29.3471 18.7296 29.3471 18.5416 29.3471C17.8526 29.2842 17.1635 29.1583 16.537 28.9692C15.9106 28.7804 15.2215 28.5283 14.6577 28.2135C13.4674 27.5835 12.4025 26.7018 11.5255 25.631C11.0869 25.1272 10.7111 24.5603 10.4605 23.9305C10.1473 23.3007 9.8967 22.6707 9.70877 22.0409C9.52083 21.4111 9.39555 20.7182 9.39555 20.0884V19.9623V19.8994V19.7735V19.3956V19.3325V19.2066V19.1437C9.39555 19.0806 9.39555 18.9546 9.39555 18.8916C9.39555 18.5768 9.45819 18.1989 9.45819 17.8839C9.52083 17.5689 9.58347 17.191 9.64613 16.8762C9.70877 16.5612 9.77141 16.1833 9.89669 15.8684C10.0846 15.2385 10.3352 14.6087 10.5858 13.9788C11.1496 12.7821 11.8387 11.7114 12.7157 10.8925C12.9036 10.7036 13.1542 10.4516 13.4048 10.2627C13.6554 10.0737 13.906 9.88478 14.1565 9.75881C14.4071 9.56986 14.6577 9.44388 14.9083 9.31792C15.0336 9.25492 15.1588 9.19194 15.2841 9.12896C15.3468 9.12896 15.4094 9.06597 15.4721 9.06597C15.5347 9.06597 15.5974 9.00299 15.66 9.00299C15.9106 8.87702 16.2238 8.81403 16.4744 8.68807C16.537 8.68807 16.5997 8.62507 16.6624 8.62507C16.725 8.62507 16.7877 8.56209 16.8502 8.56209C16.9755 8.49911 17.1635 8.49911 17.2888 8.43613C17.3514 8.43613 17.4141 8.37313 17.5394 8.37313C17.6019 8.37313 17.6646 8.37313 17.7899 8.31015C17.8526 8.31015 17.9152 8.31015 18.0405 8.24717H18.1658H18.291C18.3538 8.24717 18.4163 8.24717 18.5416 8.18418C18.6043 8.18418 18.7296 8.18418 18.7923 8.1212C18.8549 8.1212 18.9802 8.1212 19.0429 8.1212C19.1054 8.1212 19.1682 8.1212 19.2307 8.1212H19.356H19.4187H19.4813C19.544 8.1212 19.6693 8.1212 19.7318 8.1212H19.8571C19.8571 8.1212 19.9198 8.1212 19.8571 8.1212H19.9198C19.9826 8.1212 20.0451 8.1212 20.1078 8.1212C20.421 8.1212 20.6715 8.1212 20.9848 8.1212C21.5486 8.1212 22.1123 8.18418 22.6762 8.31015C23.7411 8.49911 24.7435 8.87703 25.6832 9.31792C26.6229 9.75882 27.4371 10.3257 28.1262 10.9555C28.189 11.0185 28.189 11.0185 28.2515 11.0815C28.3142 11.1445 28.3142 11.1445 28.3768 11.2075C28.4395 11.2705 28.5648 11.3334 28.6274 11.4594C28.6901 11.5854 28.8154 11.5854 28.8781 11.7114C28.9406 11.8373 29.0659 11.9003 29.1286 11.9633C29.4418 12.2782 29.6923 12.5931 29.943 12.971C30.4442 13.6009 30.8827 14.2937 31.1958 14.9236C31.1958 14.9866 31.2586 14.9866 31.2586 15.0496C31.2586 15.1125 31.3211 15.1125 31.3211 15.1755C31.3838 15.2385 31.3838 15.3015 31.4464 15.4275C31.5091 15.4905 31.5091 15.5534 31.5717 15.6794C31.6344 15.7424 31.6344 15.8054 31.697 15.9313C31.8224 16.2463 31.9477 16.4982 32.0102 16.7501C32.1355 17.191 32.2608 17.5689 32.3235 17.8839C32.3861 18.0098 32.5114 18.1358 32.6366 18.0729C32.7619 18.0729 32.8874 17.9469 32.8874 17.8208C33.1379 17.0651 33.1379 16.6241 33.0752 16.1833Z" fill="url(#paint0_linear_364_6180)"/>
<path d="M63.5858 19.6479C63.3352 25.8204 58.5116 30.6702 52.4351 30.6702C46.0453 30.6702 41.3469 25.5055 41.3469 19.2069C41.3469 12.9084 46.4837 7.68066 52.7482 7.68066C55.5672 7.68066 58.3236 8.87739 60.704 11.0819L58.8874 13.3493C57.0708 11.7747 54.9408 10.7039 52.8109 10.7039C48.2378 10.7039 44.4791 14.4831 44.4791 19.144C44.4791 23.8678 48.05 27.521 52.5604 27.521C56.6322 27.521 59.8271 24.5607 60.4535 20.6556H51.2447V17.9472H63.7111L63.5858 19.6479Z" fill="#F4F4F6"/>
<path d="M74.2359 18.1356H72.5445C70.6652 18.1356 69.1617 19.6473 69.1617 21.5369V30.4807H66.1548V15.2383H68.6605V16.498C69.4749 15.6792 70.7905 15.2383 72.2313 15.2383H75.4889L74.2359 18.1356Z" fill="#F4F4F6"/>
<path d="M90.7728 30.4807H88.2043V28.5282C86.1996 30.4807 83.0675 31.4255 79.8726 30.0397C77.492 28.969 75.738 26.8275 75.2995 24.2452C74.3598 19.3953 78.1185 14.9863 82.942 14.9863C84.9467 14.9863 86.826 15.8051 88.1416 17.1279V15.1753H90.7728V30.4807ZM87.6404 23.9931C88.3296 20.907 86.0116 18.0726 83.0048 18.0726C80.3737 18.0726 78.2438 20.2141 78.2438 22.8595C78.2438 25.8198 80.8121 28.1502 83.8817 27.5834C85.6985 27.2684 87.2019 25.8198 87.6404 23.9931Z" fill="#F4F4F6"/>
<path d="M96.8499 14.3567V15.2385H101.674V17.9469H96.8499V30.5439H93.843V14.4826C93.843 11.1444 96.2235 9.12891 99.2304 9.12891H102.864L101.674 12.0262H99.2304C97.9149 12.0262 96.8499 13.034 96.8499 14.3567Z" fill="#F4F4F6"/>
<path d="M117.773 30.4807H115.205V28.5282C113.2 30.4807 110.068 31.4255 106.873 30.0397C104.493 28.969 102.739 26.8275 102.3 24.2452C101.36 19.3953 105.182 14.9863 110.005 14.9863C112.01 14.9863 113.889 15.8051 115.205 17.1279V15.1753H117.836L117.773 30.4807ZM114.704 23.9931C115.393 20.907 113.075 18.0726 110.068 18.0726C107.437 18.0726 105.307 20.2141 105.307 22.8595C105.307 25.8198 107.875 28.1502 110.945 27.5834C112.762 27.2684 114.265 25.8198 114.704 23.9931Z" fill="#F4F4F6"/>
<path d="M133.998 21.4737V30.4807H130.992V21.4737C130.992 19.5842 129.425 18.0726 127.609 18.0726C125.667 18.0726 124.163 19.5842 124.163 21.4737V30.4807H121.156V15.2383H123.662V16.561C124.727 15.5532 126.23 14.9863 127.734 14.9863C131.242 14.9863 133.998 17.8836 133.998 21.4737Z" fill="#F4F4F6"/>
<path d="M151.851 30.4807H149.282V28.5282C147.277 30.4807 144.145 31.4255 140.95 30.0397C138.57 28.969 136.816 26.8275 136.377 24.2452C135.438 19.3953 139.259 14.9863 144.083 14.9863C146.087 14.9863 147.967 15.8051 149.282 17.1279V15.1753H151.913L151.851 30.4807ZM148.781 23.9931C149.47 20.907 147.152 18.0726 144.145 18.0726C141.514 18.0726 139.384 20.2141 139.384 22.8595C139.384 25.8198 141.953 28.1502 145.022 27.5834C146.776 27.2684 148.342 25.8198 148.781 23.9931Z" fill="#F4F4F6"/>
</g>
<defs>
<linearGradient id="paint0_linear_364_6180" x1="16.9069" y1="45.5435" x2="16.9069" y2="4.52174" gradientUnits="userSpaceOnUse">
<stop stop-color="#FFF100"/>
<stop offset="1" stop-color="#F05A28"/>
</linearGradient>
<clipPath id="clip0_364_6180">
<rect width="216" height="37" fill="white" transform="translate(0.5 0.5)"/>
</clipPath>
</defs>
</svg>
