<svg width="69" height="71" viewBox="0 0 69 71" fill="none" xmlns="http://www.w3.org/2000/svg">
<g clip-path="url(#clip0_527_7490)">
<path d="M18.8412 17.4586C18.7623 17.3826 18.6764 17.3009 18.5914 17.2181C16.8503 15.5212 15.5029 13.559 14.6889 11.2399C14.4611 10.5908 14.2892 9.92873 14.3197 9.22964C14.3226 9.16329 14.3224 9.09676 14.3269 9.03054C14.3883 8.1281 14.9836 7.67209 15.8529 7.8858C16.1271 7.95784 16.3925 8.061 16.6439 8.19331C17.5947 8.67707 18.3697 9.39222 19.0824 10.1765C20.3482 11.5431 21.3634 13.128 22.0801 14.8567C22.0957 14.8978 22.1136 14.9381 22.1338 14.9772C22.1436 14.9952 22.1645 15.007 22.211 15.0498C25.6036 12.985 29.4414 11.7903 33.3918 11.5693C33.3674 11.4467 33.3528 11.3529 33.33 11.2613C32.9269 9.56909 32.8032 7.82075 32.9639 6.08745C33.0346 5.04876 33.2408 4.02417 33.5772 3.04052C33.7399 2.52243 33.9962 2.03955 34.333 1.61653C34.4602 1.46543 34.607 1.33254 34.7695 1.22152C34.9313 1.10543 35.1243 1.04244 35.3225 1.04104C35.5207 1.03964 35.7146 1.09989 35.878 1.21368C36.2233 1.45093 36.5012 1.77589 36.6839 2.15614C37.0244 2.80102 37.2691 3.4934 37.4101 4.21085C37.7316 5.72797 37.8303 7.28495 37.703 8.83135C37.64 9.77518 37.4786 10.7096 37.2213 11.6189C38.2041 11.8025 39.1823 11.9449 40.1397 12.1757C41.095 12.401 42.0368 12.6816 42.9605 13.0161C43.8917 13.3629 44.8027 13.7634 45.6888 14.2158C46.5644 14.6588 47.398 15.1875 48.2718 15.6912C48.3002 15.6306 48.3414 15.5582 48.3692 15.4809C49.2794 12.9266 50.8472 10.6661 52.9095 8.93417C53.391 8.51487 53.9439 8.18831 54.541 7.97055C54.7054 7.91239 54.8756 7.87272 55.0486 7.85223C55.913 7.75181 56.2759 8.30365 56.3398 8.96269C56.3877 9.44853 56.3515 9.93912 56.233 10.4123C55.9173 11.6347 55.4178 12.8005 54.7523 13.8686C53.8152 15.4047 52.7029 16.7883 51.2894 17.9049C51.2477 17.9378 51.211 17.9774 51.1404 18.0435C52.523 19.3372 53.7543 20.7879 54.8102 22.3671C54.7337 22.3871 54.6558 22.401 54.5771 22.4087C53.115 22.4108 51.6528 22.4062 50.1906 22.4152C50.1045 22.4131 50.0201 22.3906 49.9441 22.3495C49.8681 22.3084 49.8026 22.2499 49.7528 22.1786C46.5626 18.6427 42.2618 16.3394 37.5843 15.6618C36.2011 15.4576 34.8004 15.4027 33.4057 15.4981C29.2472 15.7557 25.2689 17.3112 22.0156 19.9516C21.1755 20.6238 20.3919 21.3656 19.6729 22.1694C19.6091 22.2497 19.5276 22.3138 19.435 22.3565C19.3425 22.3993 19.2414 22.4194 19.1397 22.4155C17.7431 22.4056 16.3464 22.4106 14.9497 22.4106H14.6527C14.738 22.0735 15.5966 20.8793 16.5686 19.8132C17.2934 19.0181 18.0613 18.2635 18.8412 17.4586Z" fill="#243141"/>
<path d="M54.4452 49.2084C53.4738 50.5877 52.3652 51.8621 51.1368 53.0113C51.2347 53.094 51.3143 53.1612 51.3938 53.2284C53.5258 54.9978 55.1344 57.3304 56.0421 59.9688C56.2836 60.6122 56.3872 61.3004 56.346 61.9876C56.3333 62.1637 56.2986 62.3373 56.2428 62.5045C56.1726 62.7413 56.0192 62.9437 55.8117 63.0733C55.6042 63.203 55.3569 63.2508 55.117 63.2077C54.7931 63.1651 54.4781 63.0703 54.1837 62.9269C53.7341 62.7018 53.3094 62.4289 52.9167 62.1127C50.8482 60.3886 49.2778 58.1292 48.3715 55.5737C48.3456 55.5019 48.3174 55.4309 48.2718 55.311C47.1703 56.0499 46.0166 56.7053 44.8201 57.2721C43.6294 57.8227 42.3981 58.2779 41.1373 58.6335C39.8563 58.9862 38.5504 59.2383 37.2313 59.3878C37.2545 59.5054 37.2678 59.5992 37.2917 59.6901C37.7101 61.3553 37.8487 63.0801 37.7016 64.7921C37.6465 65.8651 37.441 66.9247 37.0913 67.9389C36.9248 68.3587 36.7329 68.7675 36.5165 69.1632C36.4289 69.3166 36.3202 69.4567 36.1938 69.5791C35.6446 70.1544 34.9888 70.1593 34.4534 69.5688C34.2419 69.3306 34.0607 69.0664 33.9142 68.7823C33.4896 67.9737 33.2711 67.0945 33.1151 66.1979C32.9143 64.9741 32.8514 63.731 32.9276 62.4928C32.969 61.586 33.1024 60.6859 33.3256 59.8069C33.345 59.7323 33.3626 59.6571 33.3769 59.5814C33.3805 59.5622 33.3681 59.5398 33.3533 59.4781C29.4036 59.2516 25.568 58.0505 22.1797 55.9789C22.1231 56.1062 22.0745 56.2134 22.0276 56.3213C21.0781 58.5691 19.6166 60.5564 17.7633 62.1202C17.2726 62.5455 16.7091 62.8758 16.1008 63.0945C15.8157 63.2105 15.5046 63.2444 15.2017 63.1925C15.0344 63.1621 14.8778 63.0882 14.7471 62.9781C14.6164 62.8679 14.5161 62.7252 14.456 62.564C14.2606 62.0846 14.2952 61.5861 14.3616 61.0916C14.4705 60.4025 14.6704 59.7315 14.9561 59.0966C15.8024 57.0968 17.0481 55.2967 18.6146 53.8098C18.6779 53.7489 18.7429 53.6898 18.8052 53.6278C18.8249 53.599 18.8418 53.5683 18.8556 53.5361C17.3796 52.2375 16.0608 50.7657 14.9269 49.1518C15.0627 49.1405 15.1536 49.1266 15.2445 49.1265C16.6955 49.1251 18.1465 49.1303 19.5974 49.1204C19.694 49.1174 19.7899 49.1363 19.8783 49.1756C19.9667 49.215 20.0454 49.2739 20.1085 49.348C21.6859 50.9944 23.5238 52.3612 25.5461 53.3919C27.6855 54.5088 30.0118 55.2103 32.4052 55.4602C38.9078 56.1015 44.5014 54.1016 49.186 49.4606C49.2908 49.3457 49.4192 49.2555 49.5621 49.1964C49.7049 49.1373 49.8589 49.1107 50.013 49.1185C51.3656 49.1355 52.7185 49.1255 54.0713 49.1255H54.4209L54.4452 49.2084Z" fill="#243141"/>
<path d="M48.4015 28.1866C48.7862 28.1866 49.1564 28.2131 49.5214 28.1796C49.9347 28.1417 50.2306 28.2916 50.532 28.5735C52.2726 30.2006 54.0313 31.8076 55.7841 33.4213C55.8722 33.5024 55.9622 33.5815 56.0753 33.6831C56.1808 33.5911 56.2797 33.5091 56.3741 33.4219C58.1808 31.7534 59.9862 30.0833 61.7903 28.4118C61.8652 28.3336 61.9557 28.2725 62.0557 28.2328C62.1558 28.193 62.2631 28.1755 62.3704 28.1814C62.8146 28.1997 63.2601 28.1867 63.7285 28.1867V42.9383C63.4907 43.0088 60.2957 43.0228 59.9143 42.9468V35.4761L59.8403 35.4405C58.5968 36.591 57.3533 37.7415 56.0814 38.9183C54.8083 37.7547 53.5503 36.605 52.2922 35.4552L52.2199 35.4821C52.2167 36.1056 52.2188 36.7293 52.2184 37.3528C52.218 37.9725 52.218 38.5922 52.2183 39.2119V42.974H48.4333C48.3623 42.7258 48.3294 29.0213 48.4015 28.1866Z" fill="#243141"/>
<path d="M13.4734 28.2031H17.2357C17.3117 28.4485 17.3266 42.6191 17.2488 42.9766H13.4831C13.4624 42.0381 13.4766 41.1029 13.474 40.168C13.4714 39.2409 13.4734 38.3137 13.4734 37.3625H8.81073V42.9262C8.52652 43.0123 5.31467 43.0206 4.99536 42.9434V28.2048H8.79563V33.4112C9.06721 33.4908 13.063 33.5055 13.47 33.4294C13.4711 33.0126 13.4727 32.5857 13.4733 32.1587C13.4739 31.716 13.4739 31.2733 13.4734 30.8306C13.4734 30.399 13.4734 29.9673 13.4734 29.5356C13.4734 29.1047 13.4734 28.6737 13.4734 28.2031Z" fill="#243141"/>
<path d="M21.7454 42.9721V28.2478C21.9685 28.1737 30.2386 28.1448 30.7791 28.2192V31.3572C30.6579 31.366 30.5327 31.3829 30.4075 31.383C28.9347 31.3849 27.462 31.3853 25.9892 31.3843H25.5796V33.8249H30.1814V37.0718H25.6208C25.5444 37.3497 25.5234 39.2861 25.5854 39.8222C25.702 39.8301 25.8269 39.8459 25.9518 39.8461C27.4246 39.8478 28.8974 39.8482 30.3702 39.8472H30.78V42.9721H21.7454Z" fill="#243141"/>
<path d="M35.0911 42.9775C35.022 42.5824 35.0359 28.4733 35.1045 28.2051H38.8529V39.0921C39.0146 39.1006 39.1415 39.113 39.2684 39.1131C40.7521 39.1145 42.2359 39.1148 43.7197 39.114C43.8474 39.114 43.9752 39.114 44.1209 39.114V42.9775L35.0911 42.9775Z" fill="#243141"/>
</g>
<defs>
<clipPath id="clip0_527_7490">
<rect width="69" height="70" fill="white" transform="translate(0 0.5)"/>
</clipPath>
</defs>
</svg>
