<svg width="117" height="45" viewBox="0 0 117 45" fill="none" xmlns="http://www.w3.org/2000/svg">
<path fill-rule="evenodd" clip-rule="evenodd" d="M23.4386 16.8524V32.9234H30.2756V16.8524H23.4386ZM95.4202 21.0485L85.8546 32.9234H94.2665L99.7603 24.7236L104.945 32.9234H114.241L104.715 20.8459L113.934 10.2148H105.445L100.567 16.8524L95.6952 10.2148H86.6995L95.4202 21.0485ZM60.6134 10.2148V24.5204C60.6134 26.2567 61.1003 27.814 62.0794 29.1907C63.0585 30.574 64.4547 31.6559 66.2733 32.4376C68.0913 33.2248 70.185 33.6184 72.5663 33.6184C75.3827 33.6184 77.7189 33.2248 79.576 32.4431C81.4392 31.662 82.7896 30.5679 83.6478 29.1676C84.506 27.7673 84.935 26.1232 84.935 24.2426V10.2148H77.823V23.2996C77.823 24.5259 77.6689 25.5568 77.3494 26.3901C77.0358 27.2233 76.4912 27.8656 75.7227 28.3234C74.9482 28.7746 73.8987 29.0002 72.5669 29.0002C69.3593 29.0002 67.7585 27.1712 67.7585 23.5137V10.2148H60.6134ZM33.3472 10.2148V32.9234H39.5638V15.8397L47.9757 32.9234H57.8927V10.2148H51.5546V27.0208L43.1745 10.2148H33.3472Z" fill="#243141"/>
<path fill-rule="evenodd" clip-rule="evenodd" d="M23.4386 10.2148V14.1501H30.2756V10.2148H23.4386Z" fill="#243141"/>
<path fill-rule="evenodd" clip-rule="evenodd" d="M3.35901 10.2148V32.9234H21.6873V28.2361H10.5035V10.2148H3.35901Z" fill="#243141"/>
</svg>
    