<svg width="144" height="31" viewBox="0 0 144 31" fill="none" xmlns="http://www.w3.org/2000/svg">
<g clip-path="url(#clip0_280_6256)">
<path d="M50.9437 18.0133L50.0953 20.4117H50.0247C49.8833 19.8709 49.624 19.0479 49.1999 18.0603L44.6518 6.65589H40.198V24.8324H43.1436V13.6161C43.1436 12.9107 43.1436 12.1112 43.1201 11.1236C43.0965 10.6298 43.0494 10.2536 43.0258 9.9714H43.0965C43.2379 10.6768 43.4029 11.1941 43.5207 11.5233L48.9878 24.7854H51.0615L56.4815 11.4058C56.5993 11.1001 56.7171 10.4887 56.835 9.9714H56.9057C56.835 11.3117 56.7878 12.5109 56.7643 13.2399V24.7618H59.8984V6.60886H55.6096L50.9437 18.0133ZM62.8676 11.735H65.9311V24.7618H62.8676V11.735ZM64.4229 6.23264C63.9045 6.23264 63.4803 6.42075 63.1269 6.74995C62.7734 7.07915 62.5849 7.5024 62.5849 8.01972C62.5849 8.51352 62.7734 8.93677 63.1269 9.26597C63.4803 9.59517 63.9045 9.75977 64.4229 9.75977C64.9414 9.75977 65.3891 9.57165 65.719 9.26597C66.0725 8.93677 66.261 8.51352 66.261 8.01972C66.261 7.52592 66.0725 7.10266 65.719 6.74995C65.4127 6.42075 64.9649 6.23264 64.4229 6.23264ZM76.7946 11.6174C76.2291 11.4998 75.6399 11.4293 75.0744 11.4293C73.684 11.4293 72.4115 11.735 71.3511 12.3463C70.2907 12.9577 69.4423 13.8042 68.9003 14.8624C68.3347 15.944 68.052 17.1903 68.052 18.6246C68.052 19.8709 68.3347 20.976 68.8767 21.9872C69.4187 22.9748 70.1728 23.7742 71.1861 24.3151C72.1523 24.8559 73.2834 25.1381 74.5559 25.1381C76.017 25.1381 77.2659 24.8324 78.2557 24.268L78.2792 24.2445V21.4228L78.1614 21.5169C77.7137 21.8461 77.1952 22.1282 76.6768 22.2928C76.1348 22.481 75.6399 22.575 75.2158 22.575C73.9904 22.575 73.0242 22.2223 72.3408 21.4463C71.6339 20.6939 71.2804 19.6593 71.2804 18.366C71.2804 17.0257 71.6339 15.9675 72.3644 15.1916C73.0949 14.4156 74.0611 14.0158 75.2393 14.0158C76.2291 14.0158 77.2424 14.345 78.1614 15.0034L78.2792 15.0975V12.1112L78.2557 12.0877C77.8551 11.9231 77.4073 11.735 76.7946 11.6174ZM86.9041 11.5233C86.15 11.5233 85.443 11.7585 84.8303 12.2523C84.3119 12.6755 83.9584 13.2869 83.6521 14.0158H83.6285V11.735H80.565V24.7618H83.6285V18.1073C83.6285 16.9786 83.8642 16.0381 84.3826 15.3562C84.901 14.6507 85.5609 14.298 86.3621 14.298C86.6449 14.298 86.9276 14.3686 87.2811 14.4156C87.611 14.5096 87.8467 14.6037 88.0116 14.7213L88.1295 14.8153V11.7585L88.0588 11.735C87.8467 11.5939 87.4225 11.5233 86.9041 11.5233ZM95.2461 11.4528C93.1017 11.4528 91.3814 12.0877 90.1796 13.3339C88.9542 14.5802 88.3651 16.2967 88.3651 18.46C88.3651 20.4822 88.9778 22.1282 90.1561 23.3275C91.3343 24.5032 92.9367 25.1145 94.9398 25.1145C97.0371 25.1145 98.7102 24.4797 99.912 23.2099C101.137 21.9401 101.727 20.2471 101.727 18.1543C101.727 16.0851 101.161 14.4391 100.006 13.2399C98.8987 12.0406 97.2727 11.4528 95.2461 11.4528ZM97.6969 21.4698C97.1313 22.1988 96.2359 22.5515 95.1283 22.5515C94.0207 22.5515 93.1253 22.1988 92.489 21.4228C91.8527 20.6939 91.5464 19.6357 91.5464 18.2954C91.5464 16.9081 91.8763 15.85 92.489 15.0975C93.1253 14.345 93.9972 13.9688 95.1047 13.9688C96.1887 13.9688 97.0371 14.3215 97.6498 15.0505C98.2625 15.7794 98.5924 16.8375 98.5924 18.2249C98.5452 19.6357 98.286 20.7409 97.6969 21.4698ZM108.56 17.1432C107.594 16.7435 106.982 16.4378 106.699 16.1791C106.463 15.944 106.345 15.6148 106.345 15.1916C106.345 14.8388 106.487 14.4861 106.84 14.251C107.194 14.0158 107.594 13.8983 108.183 13.8983C108.702 13.8983 109.244 13.9923 109.762 14.1334C110.281 14.2745 110.752 14.4861 111.129 14.7683L111.247 14.8624V11.9936L111.176 11.9701C110.823 11.829 110.351 11.6879 109.786 11.5704C109.22 11.4763 108.702 11.4293 108.278 11.4293C106.817 11.4293 105.615 11.782 104.672 12.558C103.73 13.2869 103.282 14.2745 103.282 15.4267C103.282 16.0381 103.376 16.5789 103.588 17.0257C103.8 17.4724 104.107 17.8957 104.531 18.2484C104.955 18.5776 105.568 18.9538 106.416 19.3065C107.123 19.6122 107.665 19.8474 107.995 20.0355C108.325 20.2236 108.537 20.4352 108.702 20.5998C108.82 20.7879 108.89 21.0231 108.89 21.3288C108.89 22.1988 108.23 22.622 106.887 22.622C106.369 22.622 105.827 22.528 105.191 22.3164C104.554 22.1047 103.965 21.799 103.47 21.4463L103.353 21.3523V24.3386L103.423 24.3621C103.871 24.5737 104.413 24.7148 105.073 24.8794C105.733 24.997 106.322 25.091 106.84 25.091C108.419 25.091 109.715 24.7383 110.634 23.9624C111.577 23.2099 112.072 22.2458 112.072 20.9996C112.072 20.1295 111.836 19.3536 111.318 18.7657C110.634 18.2014 109.786 17.6135 108.56 17.1432ZM120.154 11.4528C118.01 11.4528 116.29 12.0877 115.088 13.3339C113.886 14.5802 113.273 16.2967 113.273 18.46C113.273 20.4822 113.886 22.1282 115.064 23.3275C116.243 24.5032 117.845 25.1145 119.848 25.1145C121.945 25.1145 123.619 24.4797 124.82 23.2099C126.046 21.9401 126.635 20.2471 126.635 18.1543C126.635 16.0851 126.069 14.4391 124.915 13.2399C123.807 12.0406 122.181 11.4528 120.154 11.4528ZM122.582 21.4698C122.016 22.1988 121.121 22.5515 120.013 22.5515C118.882 22.5515 118.01 22.1988 117.374 21.4228C116.738 20.6939 116.431 19.6357 116.431 18.2954C116.431 16.9081 116.761 15.85 117.374 15.0975C118.01 14.345 118.882 13.9688 119.99 13.9688C121.05 13.9688 121.922 14.3215 122.535 15.0505C123.147 15.7794 123.477 16.8375 123.477 18.2249C123.477 19.6357 123.171 20.7409 122.582 21.4698ZM143.013 14.251V11.735H139.926V7.87863L139.831 7.90215L136.909 8.77217L136.839 8.79569V11.735H132.22V10.089C132.22 9.33651 132.408 8.74866 132.738 8.37243C133.068 7.9962 133.563 7.80809 134.176 7.80809C134.6 7.80809 135.048 7.90215 135.542 8.11377L135.66 8.18432V5.52721L135.59 5.5037C135.165 5.36261 134.6 5.26855 133.869 5.26855C132.95 5.26855 132.149 5.48018 131.419 5.8329C130.688 6.23264 130.146 6.77346 129.745 7.5024C129.345 8.20783 129.133 9.00731 129.133 9.92437V11.735H126.988V14.2275H129.133V24.7618H132.22V14.251H136.839V20.9525C136.839 23.7037 138.135 25.091 140.727 25.091C141.151 25.091 141.599 25.0205 142.023 24.95C142.471 24.8559 142.801 24.7383 142.989 24.6443L143.013 24.6208V22.1047L142.895 22.1988C142.706 22.3164 142.541 22.4104 142.259 22.481C142.023 22.5515 141.811 22.575 141.646 22.575C141.033 22.575 140.609 22.4339 140.303 22.0812C140.02 21.752 139.878 21.2112 139.878 20.4117V14.251H143.013Z" fill="white"/>
<path d="M0.700195 0.541016H15.1456V14.9552H0.700195V0.541016Z" fill="#F25022"/>
<path d="M16.655 0.541016H31.1005V14.9552H16.655V0.541016Z" fill="#7FBA00"/>
<path d="M0.700195 16.4609H15.1456V30.8752H0.700195V16.4609Z" fill="#00A4EF"/>
<path d="M16.655 16.4609H31.1005V30.8752H16.655V16.4609Z" fill="#FFB900"/>
</g>
<defs>
<clipPath id="clip0_280_6256">
<rect width="142.333" height="30.3333" fill="white" transform="translate(0.700195 0.541016)"/>
</clipPath>
</defs>
</svg>
