<svg width="252" height="35" viewBox="0 0 252 35" fill="none" xmlns="http://www.w3.org/2000/svg">
<g clip-path="url(#clip0_527_7502)">
<path d="M0.241211 4.81613L14.5695 2.84316V16.6936H0.24253L0.241211 4.81613ZM14.5695 18.466V32.1598L0.24319 30.1898L0.24286 18.4667H14.5698V18.466H14.5695ZM16.1538 2.62545L35.2193 0V16.6936H16.1538V2.62545ZM35.2193 18.466V35.0007L16.1538 32.3772V18.466H35.2193Z" fill="#243141"/>
<path d="M67.5864 27.8454H64.2743V15.0169C64.2743 13.9653 64.3399 12.6812 64.4708 11.1591H64.4154C64.2087 12.0254 64.0263 12.6471 63.868 13.0264L57.8617 27.8454H55.5601L49.5394 13.1374C49.3712 12.7046 49.1931 12.0452 49.0064 11.1608H48.951C49.0265 11.9537 49.0635 13.2481 49.0635 15.0449V27.8454H45.9756V8.02196H50.6768L55.9677 21.2242C56.3698 22.2378 56.6319 22.9943 56.753 23.4912H56.8229C57.1692 22.4495 57.4495 21.6748 57.6649 21.168L63.0544 8.02196H67.5874L67.5861 27.8454H67.5864ZM73.8037 10.7171C73.2708 10.7171 72.8134 10.5473 72.4357 10.206C72.0565 9.86509 71.8672 9.43131 71.8672 8.90635C71.8672 8.3814 72.0565 7.94333 72.4357 7.59248C72.815 7.24294 73.2708 7.06719 73.8037 7.06719C74.3552 7.06719 74.8241 7.24294 75.2073 7.59248C75.5906 7.94333 75.7832 8.37975 75.7832 8.90635C75.7832 9.40323 75.5906 9.83007 75.2073 10.1849C74.8225 10.5404 74.3552 10.7171 73.8037 10.7171ZM75.4168 27.8454H72.162V13.6891H75.4171V27.8454H75.4168ZM89.9706 27.1956C88.8206 27.8497 87.4583 28.1768 85.8865 28.1768C83.7533 28.1768 82.0318 27.52 80.7219 26.2075C79.4126 24.8949 78.7569 23.1922 78.7569 21.0993C78.7569 18.7676 79.461 16.895 80.8689 15.4797C82.2772 14.0651 84.1593 13.3574 86.5177 13.3574C87.8273 13.3574 88.9829 13.5834 89.9835 14.0357V17.0212C88.9816 16.2845 87.9157 15.9151 86.7845 15.9151C85.4092 15.9151 84.282 16.3744 83.4028 17.2908C82.5235 18.2076 82.0829 19.4078 82.0829 20.8915C82.0829 22.357 82.4962 23.5136 83.3243 24.3614C84.1521 25.2094 85.2635 25.6333 86.6575 25.6333C87.8273 25.6333 88.9301 25.2236 89.969 24.4037L89.9706 27.1956ZM101.547 16.7447C101.154 16.4401 100.588 16.2888 99.849 16.2888C98.8853 16.2888 98.0803 16.7166 97.4349 17.5743C96.7892 18.4306 96.466 19.5971 96.466 21.0712V27.8454H93.2096V13.6891H96.466V16.6059H96.5214C96.8393 15.6105 97.3281 14.8342 97.9876 14.2768C98.6472 13.7198 99.3843 13.4403 100.198 13.4403C100.788 13.4403 101.237 13.5289 101.546 13.703L101.547 16.7447ZM110.248 28.1768C108.031 28.1768 106.261 27.5157 104.936 26.1933C103.612 24.8711 102.95 23.1175 102.95 20.9338C102.95 18.5555 103.639 16.6984 105.02 15.3621C106.401 14.0258 108.259 13.3574 110.599 13.3574C112.845 13.3574 114.594 14.0076 115.847 15.3073C117.102 16.6073 117.727 18.4081 117.727 20.7118C117.727 22.9705 117.052 24.7786 115.699 26.1371C114.348 27.4976 112.532 28.1768 110.248 28.1768ZM110.402 15.9151C109.13 15.9151 108.124 16.3532 107.386 17.2277C106.646 18.1035 106.277 19.3107 106.277 20.8492C106.277 22.3329 106.652 23.5011 107.4 24.3531C108.148 25.2051 109.15 25.6316 110.404 25.6316C111.687 25.6316 112.671 25.2121 113.358 24.3743C114.045 23.5348 114.39 22.3415 114.39 20.793C114.39 19.2363 114.046 18.0335 113.358 17.1854C112.67 16.339 111.685 15.9151 110.402 15.9151ZM120.157 27.4034V24.4317C121.374 25.3442 122.716 25.8001 124.184 25.8001C126.149 25.8001 127.131 25.2289 127.131 24.0862C127.131 23.7634 127.047 23.4899 126.879 23.2635C126.711 23.0376 126.484 22.837 126.197 22.6629C125.911 22.4888 125.575 22.3316 125.187 22.1928C124.798 22.0537 124.366 21.8978 123.889 21.7224C123.343 21.5122 122.811 21.2675 122.296 20.9896C121.823 20.7313 121.431 20.4396 121.117 20.1125C120.808 19.7932 120.567 19.4145 120.409 18.9991C120.25 18.5852 120.171 18.1005 120.171 17.5478C120.171 16.8656 120.335 16.2647 120.662 15.744C120.991 15.223 121.429 14.7853 121.981 14.4315C122.534 14.0763 123.159 13.8097 123.862 13.63C124.572 13.4491 125.303 13.3585 126.036 13.3604C127.365 13.3604 128.553 13.5583 129.601 13.9541V16.7602C128.59 16.078 127.43 15.7367 126.121 15.7367C125.709 15.7367 125.337 15.779 125.005 15.8603C124.673 15.9432 124.389 16.0585 124.155 16.2059C123.922 16.3532 123.739 16.53 123.608 16.7378C123.478 16.9419 123.41 17.1794 123.412 17.4216C123.412 17.7259 123.477 17.9842 123.608 18.1963C123.739 18.4081 123.933 18.5948 124.191 18.7563C124.447 18.9179 124.757 19.0652 125.117 19.1984C125.478 19.3318 125.891 19.4778 126.36 19.6338C126.927 19.8594 127.482 20.1133 128.023 20.3946C128.515 20.6526 128.933 20.9447 129.28 21.2718C129.621 21.5911 129.893 21.9771 130.079 22.4059C130.266 22.8341 130.36 23.3438 130.36 23.9332C130.36 24.6521 130.192 25.2778 129.854 25.813C129.518 26.3479 129.068 26.7899 128.508 27.1394C127.946 27.4903 127.298 27.75 126.564 27.9198C125.828 28.0912 125.055 28.1755 124.241 28.1755C122.668 28.1768 121.307 27.9198 120.157 27.4034ZM139.832 28.1768C137.615 28.1768 135.844 27.5157 134.519 26.1933C133.196 24.8711 132.534 23.1175 132.534 20.9338C132.534 18.5555 133.224 16.6984 134.605 15.3621C135.984 14.0258 137.844 13.3574 140.183 13.3574C142.429 13.3574 144.177 14.0076 145.431 15.3073C146.685 16.6073 147.312 18.4081 147.312 20.7118C147.312 22.9705 146.636 24.7786 145.284 26.1371C143.932 27.4976 142.114 28.1768 139.832 28.1768ZM139.986 15.9151C138.713 15.9151 137.707 16.3532 136.968 17.2277C136.228 18.1035 135.859 19.3107 135.859 20.8492C135.859 22.3329 136.234 23.5011 136.982 24.3531C137.73 25.2051 138.732 25.6316 139.986 25.6316C141.267 25.6316 142.252 25.2121 142.94 24.3743C143.628 23.5348 143.972 22.3415 143.972 20.793C143.972 19.2363 143.628 18.0335 142.94 17.1854C142.252 16.339 141.267 15.9151 139.986 15.9151ZM158.763 9.50135C158.325 9.25291 157.823 9.12803 157.261 9.12803C155.68 9.12803 154.89 10.0081 154.89 11.7683V13.6901H158.23V16.2059H154.904V27.8454H151.648V16.2059H149.193V13.6901H151.648V11.395C151.648 9.90176 152.144 8.72531 153.136 7.86338C154.128 7.00111 155.368 6.57031 156.855 6.57031C157.661 6.57031 158.296 6.65753 158.763 6.83296V9.50135ZM168.152 27.6938C167.516 28.007 166.678 28.1642 165.639 28.1642C162.852 28.1642 161.458 26.8461 161.458 24.2114V16.2072H159.059V13.6918H161.458V10.4152L164.715 9.503V13.6918H168.153V16.2072H164.715V23.2844C164.715 24.1225 164.868 24.7218 165.178 25.0812C165.487 25.4407 166.001 25.6204 166.721 25.6204C167.272 25.6204 167.75 25.4645 168.152 25.15V27.6938ZM195.77 27.8454H192.108L190.298 22.7991H182.383L180.643 27.8454H176.994L184.529 8.02196H188.29L195.77 27.8454H195.77ZM189.413 20.1181L186.621 12.2107C186.537 11.9524 186.447 11.5384 186.355 10.9669H186.299C186.215 11.4922 186.121 11.9074 186.018 12.2107L183.254 20.1181H189.413ZM208.793 15.0307L201.033 25.3426H208.765V27.8454H196.471V26.6426L204.4 16.1917H197.229V13.6888H208.793V15.0307ZM224.075 27.8454H220.82V25.6052H220.765C219.82 27.3192 218.351 28.1768 216.359 28.1768C212.963 28.1768 211.264 26.1682 211.264 22.1492V13.6888H214.52V21.8179C214.52 24.3617 215.516 25.6333 217.51 25.6333C218.473 25.6333 219.266 25.2838 219.888 24.5834C220.511 23.883 220.822 22.9662 220.822 21.8321V13.6888H224.078L224.075 27.8454ZM236.664 16.7447C236.271 16.4401 235.705 16.2888 234.965 16.2888C234.002 16.2888 233.197 16.7166 232.551 17.5743C231.906 18.4306 231.582 19.5971 231.582 21.0712V27.8454H228.327V13.6891H231.582V16.6059H231.638C231.956 15.6105 232.444 14.8342 233.104 14.2768C233.764 13.7198 234.501 13.4403 235.314 13.4403C235.903 13.4403 236.353 13.5289 236.661 13.703L236.664 16.7447H236.664ZM251.161 21.6381H241.365C241.402 22.9464 241.811 23.9557 242.593 24.666C243.374 25.3749 244.447 25.7301 245.814 25.7301C247.348 25.7301 248.756 25.2781 250.037 24.3756V26.9597C248.728 27.7711 246.997 28.1768 244.845 28.1768C242.73 28.1768 241.072 27.5339 239.87 26.2481C238.667 24.9623 238.067 23.1542 238.067 20.8228C238.067 18.6202 238.728 16.8246 240.054 15.4378C241.378 14.0509 243.022 13.3574 244.987 13.3574C246.952 13.3574 248.471 13.9795 249.547 15.223C250.623 16.4669 251.162 18.1947 251.162 20.4072L251.16 21.6381H251.161ZM248.017 19.3711C248.003 18.2188 247.732 17.3228 247.189 16.6829C246.646 16.043 245.898 15.7229 244.943 15.7229C244.008 15.7229 243.214 16.0598 242.565 16.7321C241.915 17.4044 241.515 18.2849 241.365 19.3725H248.017V19.3711Z" fill="#243141"/>
</g>
<defs>
<clipPath id="clip0_527_7502">
<rect width="251" height="35" fill="white" transform="translate(0.199951)"/>
</clipPath>
</defs>
</svg>
