<svg width="140" height="48" viewBox="0 0 140 48" fill="none" xmlns="http://www.w3.org/2000/svg">
<g clip-path="url(#clip0_364_6149)">
<path fill-rule="evenodd" clip-rule="evenodd" d="M72.2961 41.8882L72.9592 41.982C72.8561 42.3947 72.66 42.7231 72.38 42.9482C72.1 43.1733 71.7454 43.2953 71.3069 43.2953C70.7562 43.2953 70.3175 43.1077 70.0002 42.7418C69.6735 42.376 69.5149 41.86 69.5149 41.2034C69.5149 40.5186 69.6829 39.9839 70.0002 39.6087C70.3269 39.2334 70.7562 39.0459 71.2692 39.0459C71.7738 39.0459 72.1846 39.2335 72.5015 39.5994C72.8192 39.9652 72.9777 40.4905 72.9777 41.1659C72.9777 41.2034 72.9777 41.2597 72.9777 41.3441H70.1682C70.1962 41.7944 70.3082 42.1321 70.5229 42.3666C70.7282 42.6105 70.9895 42.7231 71.3069 42.7231C71.54 42.7231 71.7361 42.6574 71.9046 42.5261C72.0723 42.3947 72.203 42.179 72.2961 41.8882ZM70.2055 40.7813H72.3054C72.2777 40.4342 72.1938 40.1809 72.063 40.012C71.8577 39.74 71.5961 39.6087 71.2792 39.6087C70.9802 39.6087 70.7375 39.7119 70.5322 39.9276C70.3362 40.1434 70.2242 40.4248 70.2055 40.7813Z" fill="#030529"/>
<path fill-rule="evenodd" clip-rule="evenodd" d="M104.254 14.8818H108.295C109.424 14.8818 110.451 15.3509 111.198 16.0919C111.944 16.8424 112.401 17.8743 112.401 19.0187V29.7409C112.401 30.8759 111.944 31.9078 111.198 32.6583C110.451 33.4087 109.424 33.8778 108.295 33.8778H104.254C103.115 33.8778 102.088 33.4087 101.341 32.6583C100.595 31.9078 100.138 30.8759 100.138 29.7409V19.0187C100.138 17.8743 100.595 16.8424 101.341 16.0919C102.088 15.3509 103.115 14.8818 104.254 14.8818ZM108.295 17.6398H104.254C103.871 17.6398 103.535 17.7899 103.283 18.0431C103.031 18.2964 102.881 18.6435 102.881 19.0187V29.7409C102.881 30.1161 103.031 30.4632 103.283 30.7165C103.535 30.9604 103.871 31.1198 104.254 31.1198H108.295C108.668 31.1198 109.014 30.9604 109.256 30.7165C109.508 30.4632 109.667 30.1161 109.667 29.7409V19.0187C109.667 18.6435 109.508 18.2964 109.256 18.0431C109.014 17.7899 108.668 17.6398 108.295 17.6398Z" fill="#030529"/>
<path fill-rule="evenodd" clip-rule="evenodd" d="M10.2947 34.8249C10.4347 34.9749 10.4347 34.9749 10.4534 33.8117C10.4627 32.6391 10.5001 30.3127 10.5094 29.1401C10.5281 27.9769 10.5281 27.9769 10.0987 27.1702C9.67872 26.3728 8.8201 24.7687 8.0921 23.0614C7.37341 21.3635 6.77607 19.5624 6.27207 17.7332C5.7774 15.904 5.37607 14.0372 5.1334 12.2173C4.89074 10.3975 4.80674 8.61515 4.77874 7.46135C4.7414 6.3169 4.76007 5.79158 4.7694 5.5383C4.77874 5.27564 4.77874 5.27564 6.72007 5.22874C8.66141 5.18184 12.5441 5.07865 14.8214 5.03174C17.0894 4.98484 17.7521 4.98484 18.6854 4.98484C19.6187 4.98484 20.8321 4.98484 22.2694 4.98484C23.7161 4.98484 25.3961 4.98484 28.7001 5.01298C32.0041 5.05051 36.9321 5.11617 39.4334 5.14431C41.9347 5.18184 42.0001 5.18184 42.0094 5.21936C42.0281 5.25688 42.0001 5.34131 42.0001 5.71654C42.0001 6.08238 42.0281 6.74841 41.9907 7.81779C41.9534 8.88719 41.8321 10.36 41.6081 12.0297C41.3841 13.6995 41.0481 15.5663 40.5721 17.358C40.0961 19.1403 39.4801 20.8664 38.9014 22.3485C38.3227 23.84 37.7721 25.1064 37.1841 26.2696C36.5961 27.4422 35.9707 28.5116 35.2801 29.6186C34.5987 30.7255 33.8521 31.8793 32.9281 33.1926C32.0041 34.5059 30.8934 35.9787 29.4747 37.6203C28.0561 39.2713 26.3294 41.0818 25.2747 42.1699C24.2201 43.2581 23.8281 43.6146 23.6321 43.7928C23.4454 43.971 23.4454 43.971 22.5867 43.1362C21.7374 42.3013 20.0294 40.6315 19.1707 39.7966C18.3121 38.9617 18.3121 38.9617 18.3121 38.943C18.3121 38.9242 18.3121 38.8961 18.3214 36.7198C18.3307 34.534 18.3494 30.2095 18.3494 25.9601C18.3494 21.7012 18.3307 17.5268 18.3494 15.4162C18.3681 13.3149 18.4147 13.2774 18.4614 13.2492C18.5081 13.2117 18.5547 13.1836 20.1134 13.146C21.6721 13.1179 24.7334 13.0897 26.3387 13.0804C27.9441 13.071 28.0841 13.0897 28.1774 13.1085C28.2801 13.1366 28.3267 13.1648 28.3454 13.6244C28.3547 14.0747 28.3454 14.9471 28.3454 16.6638C28.3454 18.3805 28.3547 20.9414 28.3641 22.2922C28.3734 23.6337 28.3734 23.765 28.3547 23.84C28.3454 23.9245 28.3081 23.9526 28.1774 23.9714C28.0374 23.9901 27.7947 23.9901 26.7214 23.9808C25.6481 23.9714 23.7534 23.9526 22.8014 23.962C21.8494 23.9714 21.8494 24.0089 21.8494 24.037C21.8494 24.0746 21.8494 24.1027 21.8401 24.7312C21.8307 25.3691 21.8121 26.598 21.8027 27.2171C21.8027 27.8268 21.8027 27.8268 21.8027 27.8175C21.8121 27.8175 21.8307 27.7987 23.1747 27.7893C24.5187 27.7799 27.1974 27.7799 28.5694 27.7612C29.9414 27.7518 30.0067 27.7143 30.5107 27.2171C31.0147 26.7105 31.9667 25.7349 32.4427 25.2565C32.9187 24.7687 32.9187 24.7687 32.9094 24.4685C32.8907 24.1684 32.8534 23.568 32.8534 21.5136C32.8441 19.4499 32.8534 15.9321 32.8627 14.1591C32.8721 12.3862 32.8721 12.358 32.8534 12.3111C32.8441 12.2549 32.8067 12.1986 32.3307 11.7014C31.8547 11.2042 30.9401 10.2849 30.4734 9.81588C30.0067 9.35622 29.9881 9.35622 27.8134 9.35622C25.6387 9.35622 21.2987 9.35622 19.1241 9.3656C16.9494 9.37498 16.9307 9.39375 16.4827 9.81588C16.0441 10.238 15.1761 11.0635 14.7374 11.495C14.2987 11.9359 14.2987 11.9828 14.2987 12.3393C14.2987 12.6958 14.2987 13.3618 14.2987 13.7933C14.2987 14.2154 14.2987 14.4124 14.2987 18.7838C14.2987 23.1646 14.2987 31.7198 14.2987 35.9974C14.2987 40.275 14.2987 40.275 14.2987 40.275C14.2987 40.275 14.2987 40.275 15.2041 41.2131C16.1094 42.1512 17.9107 44.0273 19.1054 45.2281C20.3001 46.4288 20.8787 46.9447 21.1681 47.2074C21.4574 47.47 21.4574 47.4701 21.4947 47.4701C21.5227 47.4701 21.5881 47.47 22.2507 47.4607C22.9134 47.4513 24.1641 47.4325 24.8081 47.4231C25.4427 47.4138 25.4614 47.4138 25.4707 47.4138C25.4894 47.4138 25.5081 47.4138 26.5441 46.41C27.5894 45.4063 29.6521 43.3988 31.2574 41.6821C32.8534 39.9655 34.0014 38.5396 35.1681 36.9637C36.3347 35.3783 37.5294 33.6429 38.8081 31.4572C40.0774 29.2715 41.4307 26.6261 42.4201 24.3654C43.4001 22.0952 44.0161 20.2003 44.5481 18.1553C45.0894 16.1103 45.5561 13.9246 45.8454 11.5982C46.1254 9.26242 46.2187 6.78594 46.2654 5.51954C46.3027 4.25314 46.2841 4.20624 45.7334 3.65278C45.1921 3.1087 44.1094 2.04868 43.5681 1.52336C43.0267 0.99804 43.0267 0.99804 41.6547 0.960517C40.2734 0.913614 37.5201 0.838568 34.0947 0.782284C30.6787 0.725999 26.6001 0.688477 23.7441 0.688477C20.8787 0.688477 19.2361 0.725999 16.0721 0.782284C12.9174 0.838568 8.24141 0.913614 5.90807 0.960517C3.5654 0.99804 3.5654 0.99804 3.27607 1.31698C2.98674 1.62655 2.40807 2.26443 1.87607 2.79913C1.34407 3.33384 0.858742 3.76535 0.625405 4.00925C0.392071 4.25314 0.410738 4.30005 0.438738 5.25688C0.466738 6.21371 0.522738 8.08045 0.709405 10.0598C0.905404 12.0297 1.2414 14.1216 1.7454 16.2886C2.24007 18.4461 2.90274 20.6881 3.69607 22.7894C4.4894 24.9001 5.40407 26.87 6.1694 28.3615C6.93474 29.8531 7.55072 30.8568 8.0921 31.7386C8.64272 32.611 9.1281 33.3521 9.51072 33.8774C9.8841 34.3933 10.1547 34.6841 10.2947 34.8249Z" fill="#0546C7"/>
<path fill-rule="evenodd" clip-rule="evenodd" d="M59.5563 17.4795C59.4906 17.5358 59.5 17.5452 59.5469 17.5639L59.5657 17.5358L59.5563 17.4795Z" fill="#0546C7"/>
<path fill-rule="evenodd" clip-rule="evenodd" d="M59.6586 17.4049C59.6119 17.433 59.5839 17.4612 59.5559 17.4799L59.5652 17.5362C59.6586 17.4143 59.8732 17.2454 59.6586 17.4049Z" fill="#0546C7"/>
<path fill-rule="evenodd" clip-rule="evenodd" d="M72.4269 16.2608C72.4269 15.501 73.043 14.8818 73.7992 14.8818C74.5546 14.8818 75.1707 15.501 75.1707 16.2608V32.4988C75.1707 33.2586 74.5546 33.8778 73.7992 33.8778C73.043 33.8778 72.4269 33.2586 72.4269 32.4988V16.2608Z" fill="#030529"/>
<path fill-rule="evenodd" clip-rule="evenodd" d="M86.5484 27.8079H83.5992C82.6007 27.8079 82.0123 27.8079 81.5646 27.9393C81.3961 27.9862 81.2377 28.0518 81.1261 28.1456C81.023 28.2207 80.9392 28.3239 80.8738 28.474C80.7807 28.7085 80.7153 29.0274 80.6961 29.3651C80.6777 29.731 80.7061 30.1062 80.7715 30.397C80.8177 30.5659 80.8738 30.6878 80.9392 30.7441C81.0046 30.8191 81.1353 30.8754 81.3407 30.9317C81.6669 31.0255 82.0961 31.0724 82.5815 31.0912C83.0484 31.1193 83.6923 31.1193 84.3361 31.1193C85.1015 31.1193 85.7084 31.7385 85.7084 32.4983C85.7084 33.2581 85.1015 33.8773 84.3361 33.8773C83.7392 33.8773 83.1323 33.8773 82.4515 33.8397C81.7792 33.8022 81.1538 33.7365 80.6315 33.5958C79.9684 33.4082 79.4361 33.1268 79.0069 32.6953C78.5684 32.2638 78.2884 31.7291 78.1207 31.0724C77.9807 30.519 77.9246 29.8529 77.9615 29.2057C78.0084 28.5678 78.1299 27.9299 78.3538 27.4046C78.6246 26.7761 79.0069 26.307 79.4646 25.9599C79.8846 25.6316 80.3508 25.4252 80.8177 25.2939C81.6392 25.05 82.3577 25.05 83.5992 25.05H86.5484V24.5059C86.5484 23.868 86.5484 23.3709 86.5207 23.0144C86.5015 22.7517 86.4738 22.5829 86.4177 22.4797C86.3992 22.4234 86.3523 22.3859 86.3061 22.3484C86.1846 22.2639 86.0161 22.2076 85.8115 22.1607C85.2323 22.0294 84.3553 22.0294 83.6269 22.0294C83.2069 22.0294 82.8246 22.0294 82.6099 22.0388C82.3484 22.0482 82.1153 22.0669 81.9007 22.1138C81.7138 22.1514 81.5361 22.2076 81.3869 22.2921C81.3123 22.3296 81.2469 22.3765 81.2192 22.414C81.0792 22.5829 80.9861 23.0238 80.8923 23.4647H80.883V23.474C80.7246 24.2151 79.9961 24.6748 79.2592 24.5153C78.5215 24.3558 78.0553 23.6241 78.2138 22.8831C78.3723 22.1232 78.5407 21.3728 79.0815 20.6974C79.3715 20.3409 79.7161 20.0688 80.1177 19.8531C80.4908 19.6561 80.9207 19.5154 81.3499 19.4216C81.723 19.3465 82.0961 19.309 82.4884 19.2902C82.9361 19.2715 83.263 19.2715 83.6269 19.2715C84.4861 19.2715 85.503 19.2715 86.4177 19.4779C86.9499 19.5998 87.4161 19.7968 87.8177 20.0688C88.2846 20.3784 88.6392 20.7818 88.8815 21.279C89.1061 21.7292 89.2084 22.2076 89.2553 22.7986C89.2923 23.2864 89.2923 23.8211 89.2923 24.5059V32.4983C89.2923 33.2581 88.6761 33.8773 87.9207 33.8773C87.1646 33.8773 86.5484 33.2581 86.5484 32.4983V27.8079Z" fill="#030529"/>
<path fill-rule="evenodd" clip-rule="evenodd" d="M91.6438 22.0291C90.8876 22.0291 90.2715 21.4099 90.2715 20.6501C90.2715 19.8903 90.8876 19.2711 91.6438 19.2711H92.493V17.0479C92.493 16.2881 93.1091 15.6689 93.8653 15.6689C94.6214 15.6689 95.2369 16.2881 95.2369 17.0479V19.2711H96.8614C97.6169 19.2711 98.233 19.8903 98.233 20.6501C98.233 21.4099 97.6169 22.0291 96.8614 22.0291H95.2369V27.2823C95.2369 29.5805 95.2369 30.5374 95.3769 30.9314C95.3769 30.9501 95.3769 30.9595 95.3861 30.9689V30.9783C95.4145 30.997 95.4707 31.0158 95.5545 31.0345C95.7315 31.0721 95.9184 31.1002 96.1238 31.1096C96.3014 31.119 96.6092 31.119 96.9169 31.119C97.673 31.119 98.2799 31.7381 98.2799 32.4979C98.2799 33.2578 97.673 33.8769 96.9169 33.8769C96.6369 33.8769 96.3661 33.8769 95.9838 33.8488C95.6199 33.83 95.2653 33.7925 94.9384 33.7174C94.5091 33.6142 94.0984 33.4548 93.7253 33.164C93.3238 32.8544 92.9969 32.4323 92.7915 31.8413V31.8319C92.493 30.9689 92.493 29.8901 92.493 27.2823V22.0291H91.6438Z" fill="#030529"/>
<path fill-rule="evenodd" clip-rule="evenodd" d="M118.188 42.1792L118.122 24.459C118.122 23.3802 118.113 22.6204 118.113 22.0763L119.084 22.0669C120.157 22.0482 121.464 22.02 122.257 22.02C122.762 22.02 123.042 22.02 123.218 22.0482C123.228 22.0482 123.246 22.0576 123.275 22.0763C123.396 22.142 123.536 22.2358 123.648 22.3577C123.722 22.4234 123.778 22.4984 123.816 22.5735C123.862 22.6767 123.891 22.8549 123.909 23.0894C123.937 23.399 123.937 23.8117 123.937 24.2995C123.937 25.2095 123.937 26.3914 123.956 27.7141L123.965 27.9955C123.975 28.7554 123.993 29.3182 123.853 29.806C123.778 30.0593 123.666 30.3126 123.526 30.5377C123.405 30.716 123.284 30.8567 123.172 30.9317C123.106 30.988 123.013 31.0161 122.911 31.0255C122.762 31.0537 122.509 31.0537 122.266 31.0537H120.605C119.849 31.0537 119.233 31.6728 119.233 32.4326C119.233 33.1925 119.849 33.8116 120.605 33.8116H122.266C122.602 33.8116 122.938 33.8116 123.349 33.7459C123.825 33.6615 124.301 33.502 124.758 33.1737C125.169 32.8829 125.533 32.4795 125.822 32.0199C126.112 31.579 126.345 31.063 126.485 30.5659C126.728 29.7028 126.718 28.9524 126.691 27.9393V27.6672C126.672 26.9168 126.672 25.4346 126.672 24.2995C126.672 23.7555 126.672 23.2958 126.635 22.8549C126.597 22.339 126.495 21.8793 126.298 21.4384C126.112 21.0351 125.869 20.7067 125.598 20.4347C125.272 20.097 124.917 19.8437 124.637 19.6842C124.311 19.4966 124.049 19.3841 123.582 19.3278C123.275 19.2809 122.892 19.2715 122.257 19.2715C121.408 19.2809 120.101 19.2996 119.037 19.3184L117.964 19.3371L117.442 19.3465C116.358 19.3559 116.246 19.3559 115.817 19.778C115.537 20.0688 115.397 20.2565 115.388 21.279C115.388 21.748 115.388 22.6673 115.397 24.459L115.453 42.1792C115.453 42.939 116.069 43.5488 116.825 43.5488C117.581 43.5488 118.188 42.939 118.188 42.1792Z" fill="#030529"/>
<path fill-rule="evenodd" clip-rule="evenodd" d="M140.42 23.277C140.42 24.0369 139.804 24.6466 139.048 24.6466C138.291 24.6466 137.676 24.0369 137.676 23.277C137.676 22.7705 137.676 22.2733 137.629 22.2452C137.498 22.1607 137.2 22.1045 136.808 22.0669C136.331 22.0294 135.651 22.0294 134.969 22.0294C133.784 22.0294 132.589 22.0294 132.225 22.2452C132.207 22.2639 132.253 22.2452 132.244 22.2733C132.197 22.4891 132.197 22.8831 132.197 23.2958C132.197 23.8962 132.197 24.5716 132.431 24.7123C132.664 24.8624 133.131 24.9468 133.671 24.9937C134.278 25.05 135.062 25.05 135.744 25.05C137.451 25.05 138.647 25.05 139.542 25.9599C140.018 26.4571 140.242 27.0856 140.345 27.7892C140.42 28.3426 140.42 28.8773 140.42 29.4214C140.42 30.7629 140.42 32.1418 139.188 33.0799C138.124 33.8773 136.537 33.8773 134.941 33.8773C133.355 33.8773 131.777 33.8773 130.731 33.1456C130.06 32.6765 129.724 32.0199 129.575 31.2788C129.453 30.7066 129.453 30.1719 129.453 29.6372C129.453 28.8773 130.069 28.2582 130.825 28.2582C131.581 28.2582 132.197 28.8773 132.197 29.6372C132.197 30.0593 132.197 30.4721 132.253 30.7347C132.271 30.8285 132.281 30.8848 132.291 30.8848C132.617 31.1193 133.775 31.1193 134.941 31.1193C136.089 31.1193 137.228 31.1193 137.545 30.8848C137.676 30.7816 137.676 30.0968 137.676 29.4214C137.676 28.9524 137.676 28.4833 137.638 28.1644C137.611 28.0049 137.591 27.8924 137.591 27.8924C137.517 27.8079 136.78 27.8079 135.744 27.8079C135.053 27.8079 134.269 27.8079 133.429 27.7329C132.515 27.6485 131.647 27.4608 131.002 27.0575C129.453 26.11 129.453 24.6185 129.453 23.2958C129.453 22.7423 129.453 22.2264 129.584 21.6729C129.751 20.9413 130.097 20.3221 130.816 19.8906C131.833 19.2715 133.411 19.2715 134.969 19.2715C135.66 19.2715 136.341 19.2715 137.051 19.3371C137.853 19.4122 138.562 19.5717 139.113 19.9281C140.42 20.7724 140.42 22.02 140.42 23.277Z" fill="#030529"/>
<path fill-rule="evenodd" clip-rule="evenodd" d="M57.7266 41.9914L58.3613 41.8789C58.3986 42.1508 58.4919 42.3572 58.6599 42.5073C58.8186 42.6574 59.0519 42.7231 59.3413 42.7231C59.6306 42.7231 59.8546 42.6668 59.9946 42.5354C60.1346 42.4041 60.2093 42.254 60.2093 42.0758C60.2093 41.9257 60.1439 41.8038 60.0133 41.7099C59.9293 41.6537 59.7053 41.5692 59.3599 41.4755C58.8933 41.3536 58.5666 41.2409 58.3893 41.1471C58.2119 41.0533 58.0719 40.922 57.9786 40.7625C57.8853 40.5936 57.8386 40.4155 57.8386 40.2185C57.8386 40.0309 57.8759 39.8619 57.9506 39.7119C58.0346 39.5618 58.1373 39.4305 58.2679 39.3273C58.3613 39.2523 58.5013 39.1866 58.6693 39.1303C58.8466 39.074 59.0239 39.0459 59.2199 39.0459C59.5186 39.0459 59.7799 39.0927 60.0039 39.1865C60.2279 39.271 60.3866 39.4024 60.4986 39.5618C60.6013 39.7119 60.6759 39.9276 60.7133 40.1903L60.0879 40.2842C60.0599 40.0778 59.9759 39.9089 59.8453 39.7869C59.7053 39.665 59.5186 39.6087 59.2666 39.6087C58.9773 39.6087 58.7719 39.665 58.6413 39.7682C58.5199 39.8714 58.4546 39.9934 58.4546 40.1341C58.4546 40.2279 58.4826 40.3028 58.5293 40.3779C58.5853 40.4529 58.6693 40.5093 58.7813 40.5562C58.8373 40.5843 59.0239 40.6405 59.3413 40.7344C59.7893 40.8657 60.1066 40.9689 60.2839 41.0533C60.4613 41.1377 60.6013 41.2597 60.7039 41.4191C60.8066 41.5786 60.8626 41.7756 60.8626 42.0101C60.8626 42.2353 60.7973 42.451 60.6759 42.6574C60.5453 42.8544 60.3679 43.0139 60.1346 43.1264C59.9013 43.239 59.6399 43.2953 59.3413 43.2953C58.8466 43.2953 58.4733 43.1827 58.2213 42.967C57.9599 42.7418 57.8013 42.4229 57.7266 41.9914Z" fill="#030529"/>
<path fill-rule="evenodd" clip-rule="evenodd" d="M84.3361 41.7099L84.9614 41.8038C84.8961 42.2728 84.7191 42.6386 84.4391 42.9013C84.1591 43.164 83.8137 43.2953 83.403 43.2953C82.8899 43.2953 82.4699 43.1077 82.1614 42.7418C81.8445 42.3854 81.6853 41.86 81.6853 41.1846C81.6853 40.7437 81.7599 40.3591 81.8907 40.0308C82.0214 39.7025 82.2268 39.4586 82.5068 39.2897C82.7776 39.1303 83.0761 39.0459 83.403 39.0459C83.8137 39.0459 84.1499 39.1585 84.4107 39.3836C84.663 39.5994 84.8307 39.9182 84.9053 40.331L84.2899 40.4342C84.2337 40.1622 84.1214 39.9558 83.9722 39.8151C83.823 39.6838 83.6453 39.6087 83.4307 39.6087C83.1045 39.6087 82.843 39.7307 82.6468 39.984C82.4414 40.2372 82.3391 40.6218 82.3391 41.1659C82.3391 41.7099 82.4414 42.1039 82.6376 42.3572C82.8245 42.6011 83.0853 42.7231 83.3937 42.7231C83.6453 42.7231 83.8507 42.648 84.0191 42.4792C84.1868 42.3103 84.2991 42.057 84.3361 41.7099Z" fill="#030529"/>
<path fill-rule="evenodd" clip-rule="evenodd" d="M96.0868 43.2021V42.6017C95.7883 43.0614 95.3961 43.2959 94.8922 43.2959C94.6683 43.2959 94.463 43.249 94.2668 43.1552C94.0806 43.0614 93.9314 42.9488 93.8376 42.8081C93.7445 42.6674 93.6791 42.4985 93.6414 42.2922C93.623 42.1608 93.6045 41.9451 93.6045 41.6543V39.1309H94.2484V41.3822C94.2484 41.7481 94.2576 41.992 94.286 42.1139C94.323 42.2922 94.4068 42.4329 94.5376 42.5361C94.6684 42.6392 94.8268 42.6955 95.023 42.6955C95.2099 42.6955 95.3868 42.6392 95.5553 42.5361C95.723 42.4329 95.8445 42.2828 95.9099 42.1045C95.9845 41.9263 96.0214 41.6543 96.0214 41.3072V39.1309H96.6561V43.2021H96.0868Z" fill="#030529"/>
<path fill-rule="evenodd" clip-rule="evenodd" d="M105.765 43.2015V39.1303H106.335V39.7588C106.484 39.468 106.624 39.271 106.745 39.1865C106.867 39.0927 107.007 39.0459 107.156 39.0459C107.371 39.0459 107.595 39.1209 107.809 39.2617L107.585 39.8995C107.427 39.8057 107.278 39.7588 107.118 39.7588C106.978 39.7588 106.858 39.8057 106.745 39.8995C106.634 39.984 106.558 40.1152 106.512 40.2747C106.438 40.5186 106.4 40.7813 106.4 41.0721V43.2015H105.765Z" fill="#030529"/>
<path fill-rule="evenodd" clip-rule="evenodd" d="M127.736 42.5915L127.829 43.2012C127.643 43.2387 127.484 43.2575 127.344 43.2575C127.111 43.2575 126.934 43.22 126.803 43.1449C126.681 43.0605 126.588 42.9573 126.541 42.826C126.485 42.6946 126.458 42.4226 126.458 42.0099V39.6647H125.991V39.13H126.458V38.1262L127.101 37.7041V39.13H127.736V39.6647H127.101V42.0474C127.101 42.2444 127.111 42.3757 127.129 42.432C127.158 42.4883 127.195 42.5352 127.241 42.5633C127.298 42.6008 127.363 42.6196 127.456 42.6196C127.531 42.6196 127.624 42.6102 127.736 42.5915Z" fill="#030529"/>
<path fill-rule="evenodd" clip-rule="evenodd" d="M136.454 44.7687L136.379 44.1308C136.519 44.1777 136.641 44.1964 136.743 44.1964C136.892 44.1964 137.005 44.1683 137.088 44.1214C137.172 44.0651 137.247 43.9994 137.294 43.9056C137.341 43.8306 137.406 43.6617 137.49 43.3897C137.508 43.3522 137.518 43.2959 137.546 43.2208L136.118 39.1309H136.799L137.592 41.4854C137.695 41.7856 137.779 42.0952 137.863 42.4235C137.938 42.1139 138.022 41.8044 138.125 41.5042L138.927 39.1309H139.571L138.143 43.2771C137.985 43.7274 137.872 44.0276 137.779 44.1964C137.667 44.4216 137.536 44.5904 137.387 44.6936C137.247 44.8062 137.07 44.8531 136.865 44.8531C136.743 44.8531 136.603 44.825 136.454 44.7687Z" fill="#030529"/>
<path fill-rule="evenodd" clip-rule="evenodd" d="M60.1718 32.4701C60.1718 33.2299 59.5557 33.8397 58.8091 33.8397C58.0531 33.8397 57.4371 33.2299 57.4371 32.4701V19.1026C57.4371 15.7162 57.4371 15.6317 58.0344 15.1908C58.4264 14.9 58.5291 14.9 59.5371 14.8907H60.0878L61.2264 14.8719C62.3464 14.8625 63.7184 14.8438 64.5958 14.8438C65.2491 14.8438 65.6411 14.8437 65.9304 14.8813C66.3504 14.9188 66.6024 14.9938 66.9104 15.1252C67.2091 15.2565 67.5731 15.4441 67.9091 15.6974C68.2078 15.9225 68.4878 16.204 68.7024 16.551C68.9544 16.9544 69.0757 17.3859 69.1317 17.8737C69.1691 18.2583 69.1691 18.6242 69.1691 19.0557C69.1691 19.9281 69.1691 21.0632 69.1878 21.6541L69.1971 21.9449C69.2158 22.7048 69.2344 23.2864 69.0664 23.9618C68.9544 24.4121 68.7584 24.8811 68.4131 25.3126C68.0584 25.7535 67.5637 26.1287 66.8731 26.3726C66.3131 26.5696 65.6411 26.6634 64.9224 26.7103C64.2131 26.7479 63.5411 26.7479 62.8691 26.7479C62.1037 26.7479 61.4971 26.1287 61.4971 25.3689C61.4971 24.6091 62.1037 23.9899 62.8691 23.9899C63.5504 23.9899 64.2317 23.9899 64.7544 23.9618C65.2677 23.9337 65.6971 23.8774 65.9771 23.7836C66.1264 23.7273 66.2197 23.6616 66.2757 23.596C66.3411 23.5209 66.3784 23.4083 66.4064 23.2864C66.4904 22.9674 66.4811 22.5547 66.4624 22.02L66.4531 21.7198C66.4251 20.7067 66.4251 19.7686 66.4251 19.0557C66.4251 18.6805 66.4251 18.3709 66.4064 18.1739C66.3971 18.0707 66.3878 18.005 66.3784 17.9863C66.3597 17.9675 66.3224 17.93 66.2664 17.8925C66.1357 17.7893 65.9771 17.7142 65.8464 17.658C65.7904 17.6298 65.7437 17.6204 65.6691 17.6111C65.4544 17.5923 65.1464 17.5829 64.5958 17.5829C63.7558 17.5923 62.3838 17.6111 61.2638 17.6204L60.1158 17.6298L59.7238 17.6392C59.9198 17.7612 60.1718 18.0895 60.1718 19.1026V32.4701Z" fill="#030529"/>
</g>
<defs>
<clipPath id="clip0_364_6149">
<rect width="140" height="46.9036" fill="white" transform="translate(0 0.547852)"/>
</clipPath>
</defs>
</svg>
