<svg width="288" height="41" viewBox="0 0 288 41" fill="none" xmlns="http://www.w3.org/2000/svg">
<g clip-path="url(#clip0_527_7536)">
<path d="M17.1481 19.6969V3.36657L0 5.77502V19.6969H17.1481ZM18.7682 19.6969H41.3167V0.0195312L18.7682 3.23211V19.6969ZM17.1481 21.3029H0V35.3581L17.1481 37.633V21.3029ZM18.7682 21.3029V37.901L41.3167 40.9798V21.3029H18.7682Z" fill="#243141"/>
<path d="M211.714 26.6571C211.714 28.6651 211.038 30.4052 209.553 31.4754C208.067 32.6802 206.043 33.2155 203.477 33.2155C202.532 33.2155 201.452 33.0819 200.371 32.8143C199.157 32.5467 198.346 32.1455 197.941 31.8774V28.5308C198.616 29.2001 199.561 29.7353 200.777 30.1369C201.991 30.5387 202.937 30.8059 204.018 30.8059C207.258 30.8059 208.743 29.6013 208.743 27.0579C208.743 25.9868 208.338 25.1842 207.663 24.3801C206.987 23.5777 205.637 22.64 203.477 21.436C201.452 20.2311 199.967 19.16 199.157 18.2232C198.346 17.1519 197.941 15.947 197.941 14.4748C197.941 12.6013 198.616 10.9946 200.102 9.78991C201.587 8.58503 203.477 7.91602 205.772 7.91602C207.933 7.91602 209.553 8.18384 210.633 8.85351V12.0661C209.283 10.995 207.663 10.5934 205.637 10.5934C204.287 10.5934 203.207 10.995 202.262 11.6647C201.452 12.3339 200.912 13.2708 200.912 14.342C200.912 15.1451 201.047 15.8145 201.317 16.35C201.587 16.885 201.991 17.287 202.666 17.8224C203.341 18.3577 204.287 18.8931 205.771 19.6961C207.932 20.9006 209.552 22.1052 210.362 23.1765C211.308 23.9798 211.714 25.3185 211.714 26.6571ZM229.401 24.7835H216.844C216.844 26.7912 217.384 28.2639 218.464 29.3341C219.409 30.4049 220.894 30.9404 222.649 30.9404C224.675 30.9404 226.43 30.2714 228.186 29.0665V31.7441C226.7 32.8149 224.54 33.4842 221.975 33.4842C219.409 33.4842 217.518 32.6809 216.033 31.0746C214.684 29.4685 213.874 27.1928 213.874 24.3812C213.874 22.6411 214.277 21.035 214.954 19.6963C215.628 18.2243 216.574 17.1532 217.924 16.3502C219.139 15.5469 220.489 15.1455 222.11 15.1455C224.405 15.1455 226.16 15.9481 227.51 17.4208C228.861 18.8933 229.401 21.035 229.401 23.5786V24.7835H229.401ZM226.565 22.3735C226.565 20.767 226.161 19.4285 225.35 18.6253C224.54 17.688 223.46 17.287 222.11 17.287C220.759 17.287 219.679 17.8227 218.734 18.7595C217.788 19.6968 217.249 20.9014 216.978 22.5075H226.565V22.3735ZM241.822 18.0905C241.283 17.6884 240.607 17.5553 239.662 17.5553C238.447 17.5553 237.366 18.0905 236.557 19.2954C235.747 20.4998 235.342 21.9727 235.342 23.8462V32.8147H232.506V15.2791H235.342V18.8935H235.476C235.882 17.6884 236.422 16.7516 237.232 16.0826C238.042 15.4129 238.987 15.0115 240.067 15.0115C240.742 15.0115 241.417 15.1453 241.822 15.2791V18.0905ZM259.645 15.2791L252.625 32.8147H249.788L243.038 15.2791H246.143L250.598 27.9956C250.869 28.6646 251.004 29.4683 251.139 30.4047H251.273C251.408 29.6017 251.543 28.7989 251.814 27.9956L256.539 15.1455H259.644V15.2789H259.645V15.2791ZM275.578 24.7835H263.156C263.156 26.7912 263.696 28.2639 264.776 29.3341C265.722 30.4049 267.206 30.9404 268.961 30.9404C270.987 30.9404 272.743 30.2714 274.498 29.0665V31.7441C273.013 32.8149 270.852 33.4842 268.287 33.4842C265.722 33.4842 263.83 32.6809 262.347 31.0746C260.996 29.4685 260.185 27.1928 260.185 24.3812C260.185 22.6411 260.591 21.035 261.266 19.6963C261.941 18.2243 262.886 17.1532 264.237 16.3502C265.452 15.5469 266.802 15.1455 268.422 15.1455C270.717 15.1455 272.472 15.9481 273.822 17.4208C275.173 18.8933 275.713 21.035 275.713 23.5786V24.783H275.578V24.7835H275.578ZM272.743 22.3735C272.743 20.767 272.337 19.4285 271.528 18.6253C270.717 17.688 269.638 17.287 268.287 17.287C266.936 17.287 265.857 17.8227 264.911 18.7595C263.966 19.6968 263.426 20.9014 263.156 22.5075H272.743V22.3735ZM288 18.0905C287.46 17.6884 286.784 17.5553 285.839 17.5553C284.624 17.5553 283.544 18.0905 282.734 19.2954C281.924 20.4998 281.518 21.9727 281.518 23.8462V32.8147H278.684V15.2791H281.518V18.8935H281.654C282.059 17.6884 282.599 16.7516 283.409 16.0826C284.219 15.4129 285.165 15.0115 286.244 15.0115C286.92 15.0115 287.595 15.1453 288 15.2791V18.0905H288Z" fill="#243141"/>
<path d="M85.8736 8.31841L78.8522 32.8142H75.4771L70.3457 14.8774C70.2114 14.2077 70.0758 13.4049 69.9412 12.334H69.8056L69.4012 14.7438L64.27 32.6801H60.8945L53.7383 8.31841H56.8439L62.1096 27.192C62.3793 27.9953 62.5147 28.7988 62.5147 29.6014H62.6495C62.6495 28.9323 62.9192 28.1287 63.1898 27.192L68.7261 8.31819H71.5609L76.8268 27.3258C76.9622 27.9951 77.0967 28.7988 77.2326 29.6014C77.2326 29.0659 77.5023 28.2636 77.6372 27.192L82.768 8.31819L85.8736 8.31841ZM91.5448 9.52307C91.5448 10.0583 91.4094 10.4599 91.0047 10.8618C90.5994 11.2629 90.1945 11.397 89.654 11.397C89.1145 11.397 88.709 11.2629 88.3041 10.8618C87.8989 10.4599 87.7642 10.0583 87.7642 9.52307C87.7642 8.98742 87.8987 8.5858 88.3041 8.18439C88.7092 7.78298 89.1143 7.64917 89.654 7.64917C90.1943 7.64917 90.5996 7.78298 91.0047 8.18439C91.2747 8.5858 91.5448 8.98764 91.5448 9.52307ZM91.0045 32.8144H88.1691V15.2788H91.0045V32.8144ZM109.907 32.8144H107.072V22.7746C107.072 19.0268 105.721 17.1529 103.021 17.1529C101.671 17.1529 100.456 17.6881 99.5108 18.7592C98.566 19.8298 98.1606 21.1681 98.1606 22.7746V32.8144H95.3254V15.2788H98.1609V18.2238H98.2961C99.6459 15.948 101.537 14.8776 104.102 14.8776C105.992 14.8776 107.477 15.5468 108.558 16.7513C109.638 17.9559 110.043 19.8298 110.043 22.1058V32.8144H109.907ZM129.62 32.8144H126.785V29.8692H126.65C125.3 32.1454 123.274 33.2154 120.574 33.2154C118.279 33.2154 116.524 32.4128 115.174 30.8062C113.824 29.2004 113.148 27.0582 113.148 24.3809C113.148 21.4368 113.824 19.1608 115.309 17.4205C116.794 15.6804 118.684 14.7438 121.249 14.7438C123.68 14.7438 125.435 15.6804 126.515 17.5547H126.65V6.8457H129.486V32.8139L129.62 32.8144ZM126.785 24.917V22.3736C126.785 20.9005 126.245 19.696 125.3 18.7594C124.354 17.8223 123.14 17.2869 121.789 17.2869C120.034 17.2869 118.684 17.9557 117.738 19.1608C116.793 20.3653 116.253 22.1056 116.253 24.3809C116.253 26.3888 116.658 27.9953 117.604 29.2002C118.549 30.4044 119.763 30.94 121.384 30.94C123.004 30.94 124.219 30.4044 125.165 29.2002C126.244 28.1287 126.785 26.6568 126.785 24.917ZM150.549 23.9795C150.549 26.7904 149.739 29.0659 148.118 30.6724C146.498 32.4128 144.337 33.2156 141.638 33.2156C139.072 33.2156 136.912 32.4128 135.427 30.8062C133.806 29.2004 133.131 26.9247 133.131 24.2475C133.131 21.3032 133.941 19.0274 135.561 17.4209C137.182 15.6806 139.342 14.8778 142.178 14.8778C144.744 14.8778 146.903 15.6806 148.388 17.2871C149.739 18.8932 150.549 21.1681 150.549 23.9795ZM147.578 24.113C147.578 21.972 147.038 20.2317 146.093 19.0268C145.147 17.8221 143.662 17.2867 141.907 17.2867C140.152 17.2867 138.666 17.9557 137.586 19.0268C136.506 20.2317 135.966 21.9718 135.966 24.113C135.966 26.255 136.506 27.8615 137.586 29.0662C138.667 30.271 140.152 30.8062 141.907 30.8062C143.797 30.8062 145.148 30.271 146.093 29.0662C147.173 27.9953 147.578 26.255 147.578 24.113ZM176.338 15.2788L171.072 32.8144H168.101L164.456 20.2319C164.321 19.83 164.186 19.2948 164.186 18.626H164.051C164.051 19.0272 163.917 19.5627 163.646 20.2319L159.73 32.8144H156.895L151.494 15.2788H154.464L158.11 28.5309C158.245 28.9323 158.245 29.468 158.38 30.137H158.515C158.515 29.7354 158.65 29.2002 158.784 28.5309L162.835 15.4128H165.401L169.046 28.6645C169.181 29.0662 169.181 29.6016 169.316 30.271H169.452C169.452 29.7354 169.586 29.2002 169.721 28.6645L173.367 15.4128H176.337V15.2788H176.338ZM188.354 28.1287C188.354 29.6014 187.814 30.9398 186.599 31.8771C185.383 32.8139 183.898 33.3492 181.873 33.3492C180.253 33.3492 178.768 32.9477 177.552 32.2787V29.2002C178.903 30.271 180.523 30.9403 182.144 30.9403C184.438 30.9403 185.519 30.137 185.519 28.5309C185.519 27.8615 185.249 27.3263 184.844 26.9247C184.438 26.5232 183.359 25.9876 181.874 25.1846C180.253 24.5151 179.173 23.8459 178.498 23.0426C177.824 22.2396 177.552 21.3027 177.552 19.9643C177.552 18.4914 178.093 17.2869 179.308 16.3503C180.523 15.4128 182.009 14.8776 183.764 14.8776C185.114 14.8776 186.465 15.1452 187.544 15.6804V18.4914C186.329 17.6883 185.115 17.2867 183.494 17.2867C182.548 17.2867 181.874 17.5545 181.199 17.9555C180.659 18.3576 180.389 19.0268 180.389 19.6958C180.389 20.4991 180.659 21.0345 181.063 21.4365C181.468 21.8377 182.413 22.3736 183.764 22.9088C185.384 23.5781 186.599 24.3811 187.275 25.1846C188.084 25.9876 188.354 26.9242 188.354 28.1287Z" fill="#243141"/>
</g>
<defs>
<clipPath id="clip0_527_7536">
<rect width="288" height="41" fill="white"/>
</clipPath>
</defs>
</svg>
