<svg width="1290" height="587" viewBox="0 0 1290 587" fill="none" xmlns="http://www.w3.org/2000/svg">
<path d="M730.307 97.7098H645.663H644.337M730.307 97.7098H814.951M730.307 97.7098V0.732422M730.307 97.7098V195.423M814.951 97.7098H899.626M814.951 97.7098L814.951 0.732422M814.951 97.7098L814.951 195.423M899.626 97.7098H984.259M899.626 97.7098V0.732422M899.626 97.7098V195.423M984.259 97.7098H1068.9M984.259 97.7098V0.732422M984.259 97.7098V195.423M1068.9 97.7098H1153.55M1068.9 97.7098V0.732422M1068.9 97.7098V195.423M1153.55 97.7098H1238.19M1153.55 97.7098V0.732422M1153.55 97.7098V195.423M1238.19 97.7098H1289.33M1238.19 97.7098V0.732422M1238.19 97.7098V195.423M730.307 195.423H645.663H644.337M730.307 195.423H814.951M730.307 195.423V293.13M814.951 195.423H899.626M814.951 195.423L814.951 293.13M899.626 195.423H984.259M899.626 195.423V293.13M984.259 195.423H1068.9M984.259 195.423V293.13M1068.9 195.423H1153.55M1068.9 195.423V293.13M1153.55 195.423H1238.19M1153.55 195.423V293.13M1238.19 195.423H1289.33M1238.19 195.423V293.13M730.307 293.13H645.663H644.337M730.307 293.13H814.951M730.307 293.13V390.843M814.951 293.13H899.626M814.951 293.13L814.95 390.843M899.626 293.13H984.259M899.626 293.13V390.843M984.259 293.13H1068.9M984.259 293.13V390.843M1068.9 293.13H1153.55M1068.9 293.13V390.843M1153.55 293.13H1238.19M1153.55 293.13V390.843M1238.19 293.13H1289.33M1238.19 293.13V390.843M730.307 390.843H645.663H644.337M730.307 390.843H814.95M730.307 390.843V488.554M814.95 390.843H899.626M814.95 390.843L814.95 488.554M899.626 390.843H984.259M899.626 390.843V488.554M984.259 390.843H1068.9M984.259 390.843V488.554M1068.9 390.843H1153.55M1068.9 390.843V488.554M1153.55 390.843H1238.19M1153.55 390.843V488.554M1238.19 390.843H1289.33M1238.19 390.843V488.554M730.307 488.554H645.663H644.337M730.307 488.554H814.95M730.307 488.554V586.267V587M814.95 488.554H899.626M814.95 488.554L814.95 586.267V587M899.626 488.554H984.259M899.626 488.554V586.267V587M984.259 488.554H1068.9M984.259 488.554V586.267V587M1068.9 488.554H1153.55M1068.9 488.554V586.267V587M1153.55 488.554H1238.19M1153.55 488.554V586.267V587M1238.19 488.554H1289.33M1238.19 488.554V586.267V587M645.663 587V586.267H644.337M644.337 97.7098H559.693M644.337 97.7098V0.732422M644.337 97.7098V195.423M559.693 97.7098H475.049M559.693 97.7098V0.732422M559.693 97.7098V195.423M475.049 97.7098H390.374M475.049 97.7098L475.049 0.732422M475.049 97.7098L475.049 195.423M390.374 97.7098H305.741M390.374 97.7098V0.732422M390.374 97.7098V195.423M305.741 97.7098H221.098M305.741 97.7098V0.732422M305.741 97.7098V195.423M221.098 97.7098H136.454M221.098 97.7098V0.732422M221.098 97.7098V195.423M136.454 97.7098H51.8095M136.454 97.7098V0.732422M136.454 97.7098V195.423M51.8095 97.7098H0.665527M51.8095 97.7098V0.732422M51.8095 97.7098V195.423M644.337 195.423H559.693M644.337 195.423V293.13M559.693 195.423H475.049M559.693 195.423V293.13M475.049 195.423H390.374M475.049 195.423L475.049 293.13M390.374 195.423H305.741M390.374 195.423V293.13M305.741 195.423H221.098M305.741 195.423V293.13M221.098 195.423H136.454M221.098 195.423V293.13M136.454 195.423H51.8095M136.454 195.423V293.13M51.8095 195.423H0.665527M51.8095 195.423V293.13M644.337 293.13H559.693M644.337 293.13V390.843M559.693 293.13H475.049M559.693 293.13V390.843M475.049 293.13H390.374M475.049 293.13L475.05 390.843M390.374 293.13H305.741M390.374 293.13V390.843M305.741 293.13H221.098M305.741 293.13V390.843M221.098 293.13H136.454M221.098 293.13V390.843M136.454 293.13H51.8095M136.454 293.13V390.843M51.8095 293.13H0.665527M51.8095 293.13V390.843M644.337 390.843H559.693M644.337 390.843V488.554M559.693 390.843H475.05M559.693 390.843V488.554M475.05 390.843H390.374M475.05 390.843L475.05 488.554M390.374 390.843H305.741M390.374 390.843V488.554M305.741 390.843H221.098M305.741 390.843V488.554M221.098 390.843H136.454M221.098 390.843V488.554M136.454 390.843H51.8095M136.454 390.843V488.554M51.8095 390.843H0.665527M51.8095 390.843V488.554M644.337 488.554H559.693M644.337 488.554V586.267M559.693 488.554H475.05M559.693 488.554V586.267V587M475.05 488.554H390.374M475.05 488.554L475.05 586.267V587M390.374 488.554H305.741M390.374 488.554V586.267V587M305.741 488.554H221.098M305.741 488.554V586.267V587M221.098 488.554H136.454M221.098 488.554V586.267V587M136.454 488.554H51.8095M136.454 488.554V586.267V587M51.8095 488.554H0.665527M51.8095 488.554V586.267V587M644.337 586.267V587" stroke="url(#paint0_radial_221_7089)"/>
<defs>
<radialGradient id="paint0_radial_221_7089" cx="0" cy="0" r="1" gradientUnits="userSpaceOnUse" gradientTransform="translate(607 333) rotate(-159.228) scale(449.734 233.734)">
<stop stop-color="#E8E8E8"/>
<stop offset="1" stop-color="#F1F1F1" stop-opacity="0.81"/>
</radialGradient>
</defs>
</svg>
