<svg width="9" height="16" viewBox="0 0 9 16" fill="none" xmlns="http://www.w3.org/2000/svg">
<path d="M7.10062 14.8795L0.360625 8.15953C0.280625 8.07953 0.224091 7.99287 0.191025 7.89953C0.157425 7.8062 0.140625 7.7062 0.140625 7.59953C0.140625 7.49286 0.157425 7.39286 0.191025 7.29953C0.224091 7.2062 0.280625 7.11953 0.360625 7.03953L7.10062 0.299531C7.28729 0.112865 7.52062 0.0195312 7.80062 0.0195312C8.08062 0.0195312 8.32062 0.119531 8.52062 0.319531C8.72062 0.519531 8.82062 0.752865 8.82062 1.01953C8.82062 1.2862 8.72062 1.51953 8.52062 1.71953L2.64063 7.59953L8.52062 13.4795C8.70729 13.6662 8.80062 13.8961 8.80062 14.1691C8.80062 14.4427 8.70062 14.6795 8.50062 14.8795C8.30062 15.0795 8.06729 15.1795 7.80062 15.1795C7.53396 15.1795 7.30062 15.0795 7.10062 14.8795Z" fill="black"/>
</svg>
