<svg width="9" height="16" viewBox="0 0 9 16" fill="none" xmlns="http://www.w3.org/2000/svg">
<path d="M1.89938 14.8795L8.63938 8.15953C8.71938 8.07953 8.77591 7.99287 8.80898 7.89953C8.84258 7.8062 8.85938 7.7062 8.85938 7.59953C8.85938 7.49286 8.84258 7.39286 8.80898 7.29953C8.77591 7.2062 8.71938 7.11953 8.63938 7.03953L1.89938 0.299531C1.71271 0.112865 1.47938 0.0195312 1.19938 0.0195312C0.919375 0.0195312 0.679375 0.119531 0.479375 0.319531C0.279375 0.519531 0.179375 0.752865 0.179375 1.01953C0.179375 1.2862 0.279375 1.51953 0.479375 1.71953L6.35937 7.59953L0.479375 13.4795C0.292709 13.6662 0.199375 13.8961 0.199375 14.1691C0.199375 14.4427 0.299375 14.6795 0.499375 14.8795C0.699375 15.0795 0.932708 15.1795 1.19938 15.1795C1.46604 15.1795 1.69938 15.0795 1.89938 14.8795Z" fill="black"/>
</svg>
