<svg width="18" height="19" viewBox="0 0 18 19" fill="none" xmlns="http://www.w3.org/2000/svg">
<path fill-rule="evenodd" clip-rule="evenodd" d="M0 9.67773C0 7.29079 0.948212 5.0016 2.63604 3.31377C4.32387 1.62595 6.61305 0.677734 9 0.677734C11.3869 0.677734 13.6761 1.62595 15.364 3.31377C17.0518 5.0016 18 7.29079 18 9.67773C18 12.0647 17.0518 14.3539 15.364 16.0417C13.6761 17.7295 11.3869 18.6777 9 18.6777C6.61305 18.6777 4.32387 17.7295 2.63604 16.0417C0.948212 14.3539 0 12.0647 0 9.67773H0ZM8.4864 13.5297L13.668 7.05213L12.732 6.30333L8.3136 11.8245L5.184 9.21694L4.416 10.1385L8.4864 13.5309V13.5297Z" fill="#B5B5B5"/>
</svg>
